{"glyphs":{"0":{"ha":885,"x_min":0,"x_max":0,"o":"m 471 925 b 885 321 700 925 885 654 b 471 -285 885 -14 700 -285 b 57 321 242 -285 57 -14 b 471 925 57 654 242 925 m 471 -261 b 676 321 578 -261 676 -1 b 471 901 676 642 578 901 b 264 321 364 901 264 642 b 471 -261 264 -1 364 -261 "},"1":{"ha":364,"x_min":0,"x_max":0,"o":"m 322 -243 b 364 -278 332 -258 347 -271 l 57 -278 b 114 -192 92 -262 114 -229 l 114 715 b 57 772 114 747 89 772 l 307 918 l 307 -192 b 322 -243 307 -210 313 -228 "},"2":{"ha":797,"x_min":0,"x_max":0,"o":"m 568 -87 b 706 -7 675 -87 706 -14 l 797 -278 l 60 -278 b 81 -204 65 -256 75 -225 b 397 221 132 -44 193 60 b 526 360 457 269 499 317 b 581 544 563 415 581 481 l 581 547 b 401 897 581 740 499 883 b 379 899 393 899 386 899 b 207 682 279 899 207 803 b 222 585 207 651 211 618 l 222 583 b 57 693 176 613 93 669 b 401 921 114 828 247 921 b 775 592 607 921 775 799 l 775 583 b 610 283 775 494 751 401 b 522 221 585 261 556 240 b 353 121 446 175 393 143 b 194 -19 276 79 225 24 b 186 -43 189 -26 186 -35 b 229 -87 186 -65 204 -87 "},"3":{"ha":772,"x_min":0,"x_max":0,"o":"m 399 465 b 772 93 606 465 772 299 b 399 -279 772 -112 606 -279 b 57 -53 246 -279 114 -186 l 57 -51 b 221 57 93 -28 176 28 b 206 -39 210 24 206 -8 b 378 -257 206 -161 278 -257 b 399 -256 385 -257 392 -257 b 579 94 497 -242 579 -99 b 383 442 579 279 521 442 l 369 440 b 192 244 213 429 192 244 l 100 306 l 97 307 b 151 369 110 325 140 361 b 431 556 192 411 272 474 b 557 642 481 582 522 611 b 574 678 568 653 574 665 b 525 726 574 703 554 726 l 303 726 b 167 646 194 726 167 651 l 75 918 l 743 918 b 708 811 736 888 725 850 b 661 726 696 783 681 756 b 442 535 615 657 546 588 b 293 450 381 503 332 475 b 399 465 326 460 363 465 "},"4":{"ha":836,"x_min":0,"x_max":0,"o":"m 778 54 b 800 33 778 43 788 33 l 836 33 l 836 8 l 800 8 b 778 -12 788 8 778 -1 l 778 -192 b 794 -243 778 -210 783 -228 b 836 -278 804 -258 818 -271 l 528 -278 b 586 -192 563 -262 586 -229 l 586 -24 b 553 8 586 -6 571 8 l 57 8 l 57 33 b 321 550 57 33 297 218 b 322 586 322 563 322 574 b 242 838 322 672 304 764 l 528 918 b 536 814 528 918 536 879 b 92 33 536 649 482 317 l 553 33 b 586 65 571 33 586 47 l 586 518 l 778 518 "},"5":{"ha":774,"x_min":0,"x_max":0,"o":"m 415 465 b 774 118 604 458 760 307 l 774 92 b 400 -281 774 -114 607 -281 b 57 -53 246 -281 114 -187 b 221 56 92 -28 176 26 l 222 56 b 207 -42 211 22 207 -11 b 379 -258 207 -162 279 -258 b 400 -257 386 -258 393 -258 b 581 92 499 -243 581 -100 b 383 442 581 281 522 442 l 369 442 b 192 244 213 429 192 244 l 93 311 l 114 726 l 124 918 l 722 918 l 629 647 b 492 726 629 654 599 726 l 181 726 b 138 685 157 726 139 708 l 121 340 l 122 340 b 399 465 189 417 288 465 "},"6":{"ha":818,"x_min":0,"x_max":0,"o":"m 443 581 b 472 582 453 582 463 582 b 811 231 703 582 790 361 b 818 147 817 203 818 176 b 443 -286 818 -92 650 -286 b 57 289 236 -286 57 -46 b 457 926 57 624 218 926 b 713 779 551 926 649 882 b 563 669 713 779 564 669 b 567 726 565 689 567 708 b 451 903 567 829 522 903 b 282 539 378 903 307 751 b 269 382 275 489 271 438 b 443 581 315 578 435 581 m 443 -262 b 625 147 543 -262 625 -79 b 617 271 625 190 622 232 b 443 557 593 436 525 557 b 424 554 436 557 431 556 b 296 385 371 542 325 478 b 269 268 285 350 275 310 b 261 147 264 229 261 189 b 443 -262 261 -79 343 -262 "},"7":{"ha":732,"x_min":0,"x_max":0,"o":"m 446 -200 b 443 -217 444 -206 443 -211 b 482 -278 443 -242 458 -267 l 174 -278 b 247 -193 211 -262 238 -231 l 517 854 b 518 863 518 857 518 860 b 486 894 518 881 504 894 l 360 894 b 110 732 296 894 174 888 l 57 918 l 732 918 "},"8":{"ha":807,"x_min":0,"x_max":0,"o":"m 528 451 b 807 89 689 408 807 263 b 432 -285 807 -118 639 -285 b 57 89 225 -285 57 -118 b 336 451 57 263 176 408 b 119 682 210 482 119 574 b 432 925 119 817 260 925 b 746 682 606 925 746 817 b 528 451 746 574 654 482 m 314 682 b 432 463 314 561 367 463 b 550 682 497 463 550 561 b 432 901 550 803 497 901 b 314 682 367 901 314 803 m 432 -261 b 613 89 532 -261 613 -104 b 432 439 613 282 532 439 b 251 89 332 439 251 282 b 432 -261 251 -104 332 -261 "},"9":{"ha":818,"x_min":0,"x_max":0,"o":"m 432 926 b 818 351 639 926 818 688 b 418 -286 818 17 657 -286 b 163 -139 324 -286 226 -242 b 313 -29 163 -139 311 -29 b 308 -86 310 -49 308 -68 b 424 -262 308 -189 353 -262 b 593 101 497 -262 568 -111 b 606 258 600 151 604 203 b 432 60 560 63 440 60 b 403 58 422 58 413 58 b 64 410 174 58 85 279 b 57 493 58 438 57 465 b 432 926 57 732 225 926 m 606 372 b 614 493 611 411 614 451 b 432 903 614 719 532 903 b 250 493 332 903 250 719 b 258 369 250 450 253 408 b 432 83 282 204 350 83 b 451 86 439 83 444 85 b 579 256 504 99 550 163 b 606 372 590 292 600 331 "}," ":{"ha":354,"x_min":0,"x_max":0,"o":""},"!":{"ha":250,"x_min":0,"x_max":0,"o":"m 142 -6 l 57 918 l 250 918 l 165 -6 m 153 -85 b 250 -182 207 -85 250 -129 b 153 -278 250 -235 207 -278 b 57 -182 100 -278 57 -235 b 153 -85 57 -129 100 -85 "},"\"":{"ha":472,"x_min":0,"x_max":0,"o":"m 472 814 b 339 603 472 783 465 650 b 367 661 339 603 357 626 b 368 675 368 665 368 671 b 332 736 368 700 354 724 b 279 821 301 751 279 783 b 281 833 279 825 281 829 b 364 917 285 878 321 913 b 375 918 368 917 372 918 b 472 821 429 918 472 874 m 250 814 b 117 603 250 783 243 650 b 144 661 117 603 135 626 b 146 675 146 665 146 671 b 110 736 146 700 132 724 b 57 821 79 751 57 783 b 58 833 57 825 58 829 b 142 917 63 878 99 913 b 153 918 146 917 150 918 b 250 821 207 918 250 874 "},"#":{"ha":1525,"x_min":0,"x_max":0,"o":"m 1151 551 l 978 88 l 1343 88 l 1333 64 l 969 64 l 842 -278 l 817 -278 l 943 64 l 449 64 l 321 -278 l 294 -278 l 422 64 l 57 64 l 67 88 l 432 88 l 604 551 l 240 551 l 249 576 l 613 576 l 740 918 l 767 918 l 639 576 l 1135 576 l 1261 918 l 1288 918 l 1160 576 l 1525 576 l 1515 551 m 1125 551 l 631 551 l 457 88 l 953 88 "},"$":{"ha":808,"x_min":0,"x_max":0,"o":"m 679 332 b 808 68 768 264 808 167 b 757 -117 808 4 790 -61 b 444 -287 704 -204 617 -281 l 444 -439 l 421 -439 l 421 -287 l 419 -287 b 60 -7 228 -287 108 -164 l 242 94 b 219 -24 232 71 219 28 b 242 -139 219 -58 225 -99 b 421 -262 272 -211 343 -256 l 421 268 l 188 417 b 57 642 97 483 57 564 b 242 896 57 747 129 847 b 246 897 243 896 244 896 b 361 918 283 911 322 918 l 421 918 l 421 1078 l 444 1078 l 444 918 l 769 918 l 671 732 b 488 893 649 865 554 890 l 444 893 l 444 489 m 421 893 l 388 893 b 231 794 321 893 257 856 b 217 728 221 774 217 750 b 285 596 217 681 238 632 l 421 504 m 656 -128 b 679 -22 672 -92 679 -56 b 554 183 679 65 629 140 l 444 253 l 444 -264 l 454 -264 b 656 -128 524 -260 614 -218 "},"%":{"ha":883,"x_min":0,"x_max":0,"o":"m 267 -278 l 242 -278 l 686 918 l 713 918 m 242 921 b 425 653 343 921 425 801 b 242 383 425 504 343 383 b 57 653 140 383 57 504 b 242 921 57 801 140 921 m 242 394 b 332 653 289 394 332 510 b 242 911 332 796 289 911 b 150 653 193 911 150 796 b 242 394 150 510 193 394 m 700 254 b 883 -14 801 254 883 135 b 700 -283 883 -162 801 -283 b 515 -14 599 -283 515 -162 b 700 254 515 135 599 254 m 700 -272 b 790 -14 747 -272 790 -157 b 700 244 790 128 747 244 b 608 -14 651 244 608 128 b 700 -272 608 -157 651 -272 "},"&":{"ha":988,"x_min":0,"x_max":0,"o":"m 988 372 b 774 313 988 372 897 332 b 754 289 761 311 754 300 b 757 276 754 285 754 281 b 804 93 788 222 804 160 b 431 -282 804 -114 638 -282 b 404 -281 422 -282 413 -281 b 57 74 217 -268 65 -114 l 57 94 b 335 454 57 267 175 413 b 117 686 208 486 117 578 b 431 929 117 821 257 929 b 743 686 604 929 743 821 b 515 536 743 547 569 536 l 500 536 b 549 686 540 571 549 639 b 431 906 549 807 496 906 b 313 686 365 906 313 807 b 506 449 313 483 506 449 b 250 93 407 449 250 286 b 431 -257 250 -100 331 -257 b 611 93 531 -257 611 -100 b 600 215 611 136 607 176 b 547 261 594 244 572 261 b 511 249 536 261 524 257 b 393 69 399 171 393 71 b 390 93 393 71 390 79 b 628 356 390 142 417 257 b 751 422 671 375 713 396 b 813 474 776 439 800 458 b 988 372 813 474 911 407 "},"'":{"ha":250,"x_min":0,"x_max":0,"o":"m 250 814 b 117 603 250 783 243 650 b 144 661 117 603 135 626 b 146 675 146 665 146 671 b 110 736 146 700 132 724 b 57 821 79 751 57 783 b 58 833 57 825 58 829 b 142 917 63 878 99 913 b 153 918 146 917 150 918 b 250 821 207 918 250 874 "},"(":{"ha":528,"x_min":0,"x_max":0,"o":"m 250 319 b 528 -367 250 -60 374 -367 l 528 -390 b 57 319 268 -390 57 -74 b 528 1028 57 711 268 1028 l 528 1006 b 250 319 374 1006 250 699 "},")":{"ha":528,"x_min":0,"x_max":0,"o":"m 335 319 b 57 1006 335 699 210 1006 l 57 1028 b 528 319 317 1028 528 711 b 57 -390 528 -74 317 -390 l 57 -367 b 335 319 210 -367 335 -60 "},"*":{"ha":329,"x_min":0,"x_max":0,"o":"m 207 921 l 329 921 l 329 910 l 207 910 l 293 824 l 285 815 l 199 900 l 199 779 l 186 779 l 186 900 l 101 815 l 92 824 l 178 910 l 57 910 l 57 921 l 178 921 l 92 1007 l 101 1015 l 186 931 l 186 1051 l 199 1051 l 199 931 l 285 1015 l 293 1007 "},"+":{"ha":593,"x_min":0,"x_max":0,"o":"m 338 308 l 338 53 l 313 53 l 313 308 l 57 308 l 57 332 l 313 332 l 313 588 l 338 588 l 338 332 l 593 332 l 593 308 "},",":{"ha":250,"x_min":0,"x_max":0,"o":"m 250 -190 b 118 -400 250 -224 242 -353 b 144 -343 118 -400 136 -378 b 147 -326 146 -337 147 -332 b 110 -268 147 -301 132 -279 b 57 -182 79 -251 57 -219 b 58 -169 57 -178 58 -174 b 143 -86 64 -126 100 -90 b 154 -85 147 -86 151 -85 b 250 -182 208 -85 250 -129 "},"-":{"ha":592,"x_min":0,"x_max":0,"o":"m 57 332 l 592 332 l 592 308 l 57 308 "},".":{"ha":250,"x_min":0,"x_max":0,"o":"m 250 -182 b 153 -278 250 -235 207 -278 b 57 -182 100 -278 57 -235 b 153 -85 57 -128 100 -85 b 250 -182 207 -85 250 -128 "},"/":{"ha":528,"x_min":0,"x_max":0,"o":"m 82 -278 l 57 -278 l 503 918 l 528 918 "},":":{"ha":250,"x_min":0,"x_max":0,"o":"m 153 142 b 250 44 207 142 250 97 b 153 -51 250 -8 207 -51 b 57 44 100 -51 57 -8 b 153 142 57 97 100 142 m 153 499 b 57 594 100 499 57 542 b 153 692 57 649 100 692 b 250 594 207 692 250 649 b 153 499 250 542 207 499 "},";":{"ha":250,"x_min":0,"x_max":0,"o":"m 154 499 b 58 594 101 499 58 542 b 154 692 58 649 101 692 b 250 594 207 692 250 649 b 154 499 250 542 207 499 m 250 36 b 118 -174 250 3 242 -126 b 144 -117 118 -174 136 -151 b 147 -100 146 -111 147 -106 b 110 -42 147 -75 132 -53 b 57 44 79 -25 57 7 b 58 57 57 49 58 53 b 143 140 64 100 100 136 b 154 142 147 140 151 142 b 250 44 208 142 250 97 "},"<":{"ha":400,"x_min":0,"x_max":0,"o":"m 108 319 l 400 164 l 400 138 l 57 319 l 400 503 l 400 475 "},"=":{"ha":592,"x_min":0,"x_max":0,"o":"m 57 264 l 592 264 l 592 240 l 57 240 m 57 400 l 592 400 l 592 375 l 57 375 "},">":{"ha":400,"x_min":0,"x_max":0,"o":"m 349 319 l 57 475 l 57 503 l 400 319 l 57 138 l 57 164 "},"?":{"ha":776,"x_min":0,"x_max":0,"o":"m 776 588 b 461 206 776 554 765 311 l 432 -10 l 415 -10 l 357 282 b 582 585 572 374 582 554 l 582 589 b 401 896 582 782 500 883 b 381 897 394 897 388 897 b 207 681 279 897 207 801 b 222 583 207 650 211 617 b 57 693 176 613 93 668 b 401 921 114 828 246 921 b 776 592 608 921 776 825 m 428 -90 b 525 -186 481 -90 525 -133 b 428 -283 525 -240 481 -283 b 332 -186 375 -283 332 -240 b 428 -90 332 -133 375 -90 "},"@":{"ha":1228,"x_min":0,"x_max":0,"o":"m 642 906 b 1228 319 965 906 1228 643 b 1192 119 1228 249 1215 182 l 1192 118 b 1186 104 1190 113 1189 108 b 1025 -14 1139 -7 1046 -14 l 1021 -14 b 885 24 965 -14 919 3 b 793 49 856 40 825 49 b 697 19 760 49 726 39 b 688 13 693 17 690 15 b 618 -15 665 0 642 -10 b 543 -25 594 -21 568 -25 b 432 -1 504 -25 464 -17 b 336 168 368 31 336 99 b 349 240 336 193 340 218 b 663 488 394 374 560 413 b 729 561 682 501 729 531 l 729 564 b 600 693 729 636 671 693 l 599 693 b 449 533 583 693 449 689 b 450 506 449 525 449 515 l 367 593 b 611 711 367 593 451 710 b 867 453 751 711 867 593 l 867 163 b 899 69 867 128 879 96 b 911 56 903 64 907 60 b 1019 11 939 28 978 11 b 1160 101 1081 11 1135 46 b 1204 318 1188 168 1204 242 b 1201 367 1204 335 1203 350 b 692 879 1179 638 963 856 b 642 882 675 881 658 882 b 81 322 333 882 81 631 b 83 269 81 304 82 288 b 601 -240 107 -3 329 -221 b 642 -242 615 -242 628 -242 b 1022 -93 789 -242 922 -186 l 1039 -110 b 640 -267 935 -207 794 -267 b 601 -265 628 -267 615 -267 b 57 294 306 -244 69 -1 l 57 319 b 642 906 57 643 319 906 m 729 515 b 679 472 714 499 697 485 b 488 300 608 418 522 388 b 468 197 475 269 468 233 b 558 18 468 124 494 50 b 604 7 574 10 589 7 b 624 8 611 7 617 7 b 658 19 635 10 647 14 b 729 88 676 26 729 56 "},"A":{"ha":938,"x_min":0,"x_max":0,"o":"m 615 -278 b 654 -217 640 -267 654 -242 b 653 -201 654 -211 654 -207 l 532 319 b 444 386 524 360 486 386 b 415 382 435 386 425 385 b 331 333 381 372 353 356 b 274 199 276 281 274 210 l 274 197 l 272 197 b 383 -51 281 106 336 21 b 446 -178 418 -104 444 -146 l 446 -182 b 344 -278 446 -254 379 -275 l 57 -278 b 144 -183 101 -262 133 -226 l 253 274 l 253 275 l 250 265 l 382 822 b 385 846 383 831 385 839 b 331 918 385 892 354 911 l 600 918 l 857 -186 b 938 -278 867 -229 897 -262 m 421 -179 b 363 -64 419 -153 393 -111 b 253 164 321 -1 269 78 l 168 -193 b 167 -204 167 -197 167 -200 b 218 -253 167 -231 189 -253 l 344 -253 b 421 -183 347 -253 421 -249 m 313 350 b 508 422 358 394 424 419 l 413 839 l 290 324 b 313 350 297 333 304 342 "},"B":{"ha":849,"x_min":0,"x_max":0,"o":"m 697 283 b 849 8 779 219 847 118 l 849 3 b 785 -182 849 -64 825 -129 b 543 -281 726 -257 633 -281 b 343 -196 474 -281 408 -253 b 307 -156 329 -183 317 -169 l 307 -278 l 57 -278 b 114 -192 92 -262 114 -229 l 114 832 b 99 883 114 851 108 869 b 57 918 88 899 74 911 l 307 918 l 307 807 b 519 928 322 849 386 924 l 533 928 b 836 674 672 928 836 868 b 681 460 836 618 806 504 b 551 436 632 442 588 436 b 446 454 488 436 447 454 b 481 429 458 446 471 436 b 697 283 551 376 626 338 m 428 886 b 307 685 346 854 307 800 l 307 672 b 382 504 307 582 339 533 b 460 483 401 490 429 483 b 646 692 543 483 646 543 l 646 699 b 476 894 642 858 543 894 b 428 886 456 894 439 890 m 557 -211 b 656 -11 633 -179 656 -86 l 656 -6 b 572 251 656 89 622 174 b 338 508 518 333 429 429 b 307 539 326 518 315 529 l 307 -62 b 364 -182 307 -110 328 -154 b 365 -183 365 -182 365 -182 b 489 -224 400 -208 444 -224 b 557 -211 513 -224 536 -219 "},"C":{"ha":1147,"x_min":0,"x_max":0,"o":"m 1147 -49 b 665 -287 1036 -193 861 -287 b 235 -110 497 -287 346 -219 b 57 319 125 0 57 153 l 57 328 b 649 918 61 654 322 910 l 1046 918 l 972 778 l 947 732 b 915 819 942 769 931 797 b 751 894 872 885 800 894 l 665 894 b 250 325 436 894 251 644 l 250 321 b 665 -262 250 -1 436 -262 b 990 33 825 -262 990 -192 l 990 44 "},"D":{"ha":1146,"x_min":0,"x_max":0,"o":"m 561 925 b 1146 318 940 925 1146 654 b 551 -289 1146 -17 928 -289 b 307 -158 439 -289 350 -224 l 307 -278 l 57 -278 b 114 -192 92 -262 114 -229 l 114 832 b 99 883 114 851 108 869 b 57 918 89 899 74 911 l 307 918 l 307 813 b 561 925 358 872 456 925 m 550 -265 b 953 318 779 -265 953 -4 b 558 901 953 640 788 900 l 556 901 b 307 649 418 901 307 788 l 307 -12 b 522 -264 307 -139 399 -249 b 550 -265 532 -265 542 -265 "},"E":{"ha":790,"x_min":0,"x_max":0,"o":"m 490 -253 b 692 -92 554 -253 667 -239 l 790 -278 l 57 -278 b 114 -192 92 -262 114 -229 l 114 832 b 99 883 114 851 108 869 b 57 918 89 899 74 911 l 790 918 l 692 732 b 490 894 667 881 554 894 l 358 894 b 307 843 329 894 307 871 l 307 393 l 354 393 b 574 514 426 393 532 443 l 574 249 b 354 369 528 324 426 369 l 307 369 l 307 -201 b 358 -253 307 -231 329 -253 "},"F":{"ha":790,"x_min":0,"x_max":0,"o":"m 790 918 l 692 732 b 490 894 668 881 554 894 l 365 894 b 307 836 333 894 307 868 l 307 393 l 356 393 b 575 514 426 393 532 443 l 575 249 b 356 369 529 324 426 369 l 307 369 l 307 -192 b 322 -243 307 -210 313 -228 b 365 -278 333 -258 347 -269 l 57 -278 b 114 -206 88 -265 108 -237 l 114 832 b 99 883 114 851 108 869 b 57 918 89 899 75 911 "},"G":{"ha":1231,"x_min":0,"x_max":0,"o":"m 1231 369 b 1174 283 1196 354 1174 321 l 1174 -278 l 1154 -269 b 989 -236 1101 -247 1044 -236 b 850 -258 942 -236 896 -244 b 667 -286 792 -276 731 -286 l 643 -286 b 57 321 318 -275 57 -4 l 57 324 b 647 918 58 651 321 910 l 1071 918 l 997 778 l 972 732 b 940 819 967 769 956 797 b 776 894 897 885 825 893 l 664 894 b 249 321 435 894 249 643 b 664 -262 249 -1 435 -250 l 689 -262 b 863 -228 756 -262 811 -249 b 981 -50 935 -199 981 -128 l 981 283 b 965 335 981 301 975 319 b 924 369 956 350 940 363 "},"H":{"ha":893,"x_min":0,"x_max":0,"o":"m 835 -192 b 893 -278 835 -229 858 -262 l 585 -278 b 643 -192 619 -262 643 -229 l 643 539 b 407 449 535 533 460 494 b 307 217 342 390 307 304 l 307 -192 b 364 -278 307 -229 329 -262 l 57 -278 b 114 -192 92 -262 114 -229 l 114 832 b 57 918 114 869 92 904 l 364 918 b 307 832 329 904 307 869 l 307 356 b 643 564 351 439 447 553 l 643 832 b 585 918 643 869 619 904 l 893 918 b 835 832 858 904 835 869 "},"I":{"ha":364,"x_min":0,"x_max":0,"o":"m 364 918 b 307 832 329 904 307 869 l 307 -192 b 364 -278 307 -229 329 -262 l 57 -278 b 114 -192 92 -262 114 -229 l 114 832 b 57 918 114 869 92 904 "},"J":{"ha":364,"x_min":0,"x_max":0,"o":"m 364 918 b 307 832 329 904 307 869 l 307 -267 b 26 -547 307 -422 182 -547 l -57 -547 b 114 -351 42 -533 114 -450 l 114 832 b 99 883 114 851 108 869 b 57 918 89 899 75 911 "},"K":{"ha":882,"x_min":0,"x_max":0,"o":"m 533 -278 b 603 -135 533 -278 603 -274 b 588 -3 603 -100 599 -57 b 461 251 567 100 514 192 b 369 346 415 303 369 346 b 307 424 344 369 322 394 l 307 -192 b 364 -278 307 -229 329 -262 l 57 -278 b 114 -192 92 -262 114 -229 l 114 832 b 57 918 114 869 92 904 l 364 918 b 307 832 329 904 307 869 l 307 510 b 310 483 307 501 308 492 l 311 476 b 322 442 314 465 318 453 b 329 429 325 438 328 433 b 381 381 342 408 358 392 b 438 367 396 374 415 367 b 507 389 458 367 482 372 b 622 689 604 454 622 567 b 583 918 622 869 583 918 l 871 918 b 815 751 871 918 815 899 b 613 369 815 556 753 433 b 468 339 564 349 511 339 b 392 356 433 339 404 344 b 578 235 458 310 517 289 b 801 -150 763 74 786 -72 b 882 -278 824 -260 882 -278 "},"L":{"ha":704,"x_min":0,"x_max":0,"o":"m 115 832 b 99 883 115 851 108 869 b 57 918 89 899 75 911 l 365 918 b 307 832 331 904 307 869 l 307 -201 b 358 -253 307 -231 331 -253 l 404 -253 b 606 -92 468 -253 582 -239 l 704 -278 l 57 -278 b 115 -192 92 -262 115 -229 "},"M":{"ha":947,"x_min":0,"x_max":0,"o":"m 890 -192 b 947 -278 890 -229 913 -262 l 640 -278 b 681 -243 657 -269 671 -258 b 697 -192 692 -228 697 -210 l 697 858 l 404 190 l 146 790 l 146 -183 b 211 -278 146 -225 172 -262 l 57 -278 b 121 -183 96 -262 121 -225 l 121 825 b 57 918 121 867 96 904 l 300 918 l 497 463 l 697 918 l 947 918 b 906 883 929 911 915 899 b 890 832 896 869 890 851 "},"N":{"ha":851,"x_min":0,"x_max":0,"o":"m 786 -183 b 851 -278 786 -225 811 -262 l 607 -278 l 146 790 l 146 -183 b 211 -278 146 -225 172 -262 l 57 -278 b 122 -183 96 -262 122 -225 l 122 825 b 57 918 122 867 96 904 l 300 918 l 761 -149 l 761 825 b 697 918 761 867 736 904 l 851 918 b 786 825 811 904 786 867 "},"O":{"ha":1272,"x_min":0,"x_max":0,"o":"m 713 926 b 1272 321 1025 901 1272 640 b 664 -286 1272 -14 1000 -286 b 57 321 329 -286 57 -14 b 664 929 57 657 329 929 b 699 928 676 929 688 928 l 713 928 m 250 321 b 488 -207 250 88 347 -114 b 658 -258 539 -242 599 -258 b 803 -224 708 -258 758 -247 b 876 -160 833 -208 858 -187 b 910 -49 900 -122 910 -85 b 819 157 910 32 861 104 b 671 303 779 208 724 257 b 432 678 553 408 432 515 b 440 756 432 703 435 728 b 492 851 449 794 467 826 b 250 321 349 760 250 557 m 910 -150 b 1079 321 1013 -43 1079 128 b 794 875 1079 579 960 799 b 679 901 758 892 719 901 b 586 883 649 901 617 894 b 463 750 526 861 478 818 b 454 681 457 725 454 703 b 688 321 454 526 572 422 b 839 172 740 274 796 225 b 933 -49 883 115 933 39 b 910 -150 933 -82 926 -115 "},"P":{"ha":882,"x_min":0,"x_max":0,"o":"m 554 929 b 882 596 779 929 882 749 b 557 276 882 465 790 276 l 544 276 b 307 429 425 281 350 350 l 307 -192 b 364 -278 307 -229 329 -262 l 57 -278 b 114 -192 92 -262 114 -229 l 114 832 b 57 918 114 869 92 904 l 364 918 b 307 832 329 904 307 869 l 307 776 b 554 929 340 850 433 929 m 465 332 b 490 331 474 331 482 331 b 689 626 647 331 689 490 b 493 882 689 733 611 882 b 463 879 483 882 474 882 l 461 879 b 307 682 369 858 307 775 l 307 510 b 465 332 307 429 390 340 "},"Q":{"ha":1272,"x_min":0,"x_max":0,"o":"m 671 -367 b 849 -343 729 -351 790 -343 b 1097 -450 956 -343 1051 -374 b 1122 -539 1115 -482 1122 -511 b 1069 -669 1122 -615 1069 -669 b 943 -525 1068 -599 1043 -553 b 858 -515 919 -518 890 -515 b 603 -551 775 -515 672 -535 b 528 -561 575 -558 550 -561 b 346 -433 417 -561 356 -493 b 344 -415 344 -428 344 -421 b 536 -272 344 -329 450 -290 b 57 321 263 -214 57 29 b 664 929 57 657 329 929 b 699 928 676 929 688 928 l 713 928 l 713 926 b 1272 321 1025 901 1272 640 b 664 -286 1272 -14 1000 -286 b 610 -283 646 -286 628 -286 l 592 -283 b 574 -285 585 -283 579 -283 b 372 -408 468 -299 372 -346 b 374 -419 372 -411 372 -415 b 410 -449 378 -440 390 -449 b 671 -367 458 -449 551 -396 m 586 883 b 463 750 526 861 478 818 b 454 681 457 725 454 703 b 688 321 454 526 572 422 b 839 172 740 274 796 225 b 933 -49 883 115 933 39 b 910 -150 933 -82 926 -115 b 1079 321 1013 -43 1079 128 b 794 875 1079 579 960 799 b 679 901 758 892 719 901 b 586 883 649 901 617 894 m 250 321 b 488 -207 250 88 347 -114 b 658 -258 539 -242 599 -258 b 803 -224 708 -258 758 -247 b 876 -160 833 -208 858 -187 b 910 -49 900 -122 910 -85 b 819 157 910 32 861 104 b 671 303 779 208 724 257 b 431 679 553 408 431 517 b 439 756 431 704 433 729 b 492 851 449 794 467 826 b 250 321 349 760 250 557 "},"R":{"ha":883,"x_min":0,"x_max":0,"o":"m 803 -150 b 883 -278 825 -260 883 -278 l 535 -278 b 604 -135 535 -278 604 -274 b 589 -3 604 -100 600 -57 b 368 350 546 204 368 350 b 307 429 343 374 324 400 l 307 -192 b 365 -278 307 -229 331 -262 l 57 -278 b 115 -192 92 -262 115 -229 l 115 832 b 57 918 115 869 92 904 l 365 918 b 307 832 331 904 307 869 l 307 782 b 556 918 342 856 435 918 b 883 596 779 918 883 749 b 558 276 883 465 792 276 l 546 276 b 514 279 535 278 524 278 b 579 235 538 265 558 250 b 803 -150 774 88 786 -72 m 307 510 b 467 332 307 429 388 332 b 690 626 644 332 690 483 b 494 882 690 733 611 882 b 464 879 485 882 475 882 l 463 879 b 307 682 371 858 307 775 "},"S":{"ha":808,"x_min":0,"x_max":0,"o":"m 678 332 b 808 69 767 265 808 167 b 756 -115 808 6 790 -60 b 418 -287 700 -207 607 -287 b 58 -6 226 -287 107 -164 l 240 94 b 218 -24 231 71 218 28 b 240 -137 218 -58 224 -97 b 439 -262 274 -217 354 -262 l 453 -262 b 654 -126 524 -260 614 -217 b 678 -21 671 -90 678 -54 b 554 185 678 67 629 142 l 188 418 b 57 643 96 483 57 565 b 242 896 57 747 128 847 b 246 899 242 897 243 897 b 361 918 282 911 321 918 l 768 918 l 669 732 b 488 894 647 867 553 890 l 388 894 b 229 796 319 894 257 857 b 215 729 221 775 215 753 b 285 596 215 682 236 632 "},"T":{"ha":876,"x_min":0,"x_max":0,"o":"m 876 918 l 778 732 b 594 894 756 867 661 890 l 563 894 l 563 -192 b 578 -243 563 -210 568 -228 b 619 -278 588 -258 603 -271 l 313 -278 b 369 -192 347 -262 369 -229 l 369 894 l 338 894 b 156 732 272 890 176 867 l 57 918 "},"U":{"ha":849,"x_min":0,"x_max":0,"o":"m 849 918 b 783 785 786 900 783 804 l 783 50 b 449 -286 783 -135 633 -286 b 115 49 264 -286 115 -136 l 115 832 b 99 883 115 851 108 869 b 57 918 89 899 75 911 l 365 918 b 307 832 331 904 307 869 l 307 47 b 374 -156 307 -49 333 -114 b 535 -214 415 -197 472 -214 b 760 58 649 -214 760 -93 l 760 307 b 579 657 760 442 660 561 b 486 794 532 713 494 757 b 483 822 485 804 483 814 b 518 896 483 860 501 882 b 585 918 535 910 560 918 m 760 782 b 646 894 760 844 708 894 l 585 894 b 533 878 565 894 546 889 b 507 821 517 864 507 844 b 510 799 507 814 508 807 b 597 672 517 768 554 724 b 760 429 656 603 724 522 "},"V":{"ha":896,"x_min":0,"x_max":0,"o":"m 896 918 b 813 825 854 903 822 868 l 710 367 l 710 365 l 575 -228 b 572 -253 574 -236 572 -244 b 575 -278 572 -261 574 -269 l 378 -278 l 132 829 b 57 918 124 869 94 903 l 364 918 b 326 857 340 907 326 882 b 328 842 326 851 326 847 l 557 -197 l 686 372 b 692 422 690 389 692 406 b 585 693 692 521 633 615 b 525 819 551 744 526 786 l 525 824 b 622 918 525 894 589 917 m 790 833 b 792 844 792 838 792 840 b 742 894 792 872 769 894 l 622 894 b 549 824 619 894 549 889 l 549 819 b 606 706 550 794 575 753 b 710 478 644 642 693 563 "},"W":{"ha":1349,"x_min":0,"x_max":0,"o":"m 1349 918 b 1265 825 1307 903 1275 868 l 1161 367 l 1161 365 l 1028 -228 b 1025 -253 1026 -236 1025 -244 b 1028 -278 1025 -261 1026 -269 l 831 -278 l 699 317 l 575 -228 b 572 -253 574 -236 572 -244 b 575 -278 572 -261 574 -269 l 378 -278 l 132 829 b 106 883 128 850 118 868 b 57 918 93 899 75 911 l 364 918 b 326 857 340 907 326 882 b 328 842 326 851 326 847 l 557 -197 l 657 246 b 672 375 667 289 672 332 b 658 499 672 417 667 458 l 585 829 b 508 918 576 869 547 903 l 815 918 b 778 857 792 907 778 882 b 779 842 778 851 778 847 l 1010 -197 l 1139 372 b 1144 422 1143 389 1144 406 b 1038 693 1144 521 1085 614 b 978 819 1004 744 978 786 l 978 824 b 1074 918 978 894 1040 917 m 1243 833 b 1244 844 1244 838 1244 840 b 1194 894 1244 872 1222 894 l 1075 894 b 1001 824 1072 894 1001 889 l 1001 819 b 1057 706 1003 794 1028 753 b 1163 478 1097 642 1146 563 "},"X":{"ha":875,"x_min":0,"x_max":0,"o":"m 875 918 b 772 833 832 903 796 872 l 578 497 b 551 397 560 467 551 432 b 567 318 551 371 557 343 l 786 -192 b 875 -278 803 -231 835 -262 l 568 -278 b 590 -235 582 -268 590 -251 b 586 -215 590 -228 589 -222 l 407 203 l 179 -190 b 171 -221 174 -200 171 -211 b 211 -278 171 -246 186 -269 l 57 -278 b 146 -199 94 -261 126 -235 l 343 142 b 371 244 363 174 371 208 b 354 325 371 271 365 299 l 135 840 b 57 918 119 875 92 903 l 364 918 b 336 869 347 908 336 889 b 340 849 336 863 338 856 l 517 439 l 749 839 b 756 867 754 847 756 857 b 721 918 756 889 743 910 "},"Y":{"ha":865,"x_min":0,"x_max":0,"o":"m 865 918 b 771 828 822 903 788 871 l 590 394 b 563 257 572 351 563 304 l 563 -192 b 578 -243 563 -210 568 -228 b 619 -278 588 -258 603 -269 l 313 -278 b 369 -192 347 -262 369 -229 l 369 193 b 331 379 369 257 357 321 l 135 840 b 103 886 126 857 117 874 b 57 918 90 900 74 911 l 364 918 b 336 871 346 908 336 890 b 340 849 336 864 338 856 l 549 360 l 747 835 b 753 858 750 843 753 850 b 711 918 753 883 736 908 "},"Z":{"ha":846,"x_min":0,"x_max":0,"o":"m 546 -253 b 747 -92 611 -253 724 -239 l 846 -278 l 57 -278 l 621 894 l 357 894 b 154 732 292 894 179 881 l 57 918 l 846 918 l 282 -253 "},"[":{"ha":403,"x_min":0,"x_max":0,"o":"m 403 -367 l 403 -390 l 57 -390 l 57 1028 l 403 1028 l 403 1004 l 250 1004 l 250 -367 "},"\\":{"ha":528,"x_min":0,"x_max":0,"o":"m 82 918 l 528 -278 l 503 -278 l 57 918 "},"]":{"ha":403,"x_min":0,"x_max":0,"o":"m 210 1004 l 57 1004 l 57 1028 l 403 1028 l 403 -390 l 57 -390 l 57 -367 l 210 -367 "},"^":{"ha":424,"x_min":0,"x_max":0,"o":"m 424 1001 l 410 989 l 240 1171 l 72 989 l 57 1001 l 240 1219 "},"_":{"ha":592,"x_min":0,"x_max":0,"o":"m 57 -254 l 592 -254 l 592 -278 l 57 -278 "},"`":{"ha":257,"x_min":0,"x_max":0,"o":"m 81 1224 l 257 1001 l 243 989 l 57 1204 "},"a":{"ha":900,"x_min":0,"x_max":0,"o":"m 597 -278 b 638 -218 624 -267 638 -243 b 636 -203 638 -212 638 -208 l 579 69 b 582 28 581 56 582 42 b 518 -167 582 -74 535 -137 b 322 -278 476 -237 406 -278 b 174 -222 261 -278 214 -257 b 99 -17 125 -181 99 -106 b 100 8 99 -8 100 0 b 119 104 101 36 115 89 b 222 608 119 104 193 464 b 225 636 224 618 225 626 b 194 722 225 667 215 697 b 143 840 194 722 143 789 b 147 864 143 849 144 857 b 285 918 163 900 194 918 l 654 918 b 611 853 625 907 611 881 b 613 836 611 847 611 842 l 828 -186 b 900 -278 838 -228 854 -262 m 549 61 b 251 651 549 211 461 379 l 163 222 b 147 97 154 182 147 139 b 261 -101 147 15 172 -61 b 357 -124 294 -117 328 -124 b 549 54 471 -124 547 -24 m 260 674 b 554 192 411 476 517 317 l 419 838 b 351 894 413 869 389 894 l 276 894 b 169 860 201 894 181 882 b 165 839 167 854 165 847 b 213 733 165 803 196 750 b 239 701 221 724 231 713 b 260 674 246 692 253 683 "},"b":{"ha":850,"x_min":0,"x_max":0,"o":"m 697 282 b 850 8 781 219 847 118 b 786 -182 850 -61 828 -128 b 543 -281 726 -258 635 -281 b 344 -197 474 -281 408 -254 b 307 -156 331 -183 318 -169 l 307 -278 l 57 -278 b 114 -192 92 -264 114 -229 l 114 832 b 99 883 114 850 108 868 b 57 918 89 899 75 911 l 307 918 l 307 807 b 519 928 322 847 386 922 l 533 928 b 838 672 674 928 838 868 b 681 460 838 618 806 504 b 551 436 632 442 589 436 b 446 454 488 436 447 454 b 482 429 460 444 472 436 b 697 282 553 376 626 336 m 429 886 b 307 685 347 853 307 800 l 307 672 b 382 504 307 581 339 532 b 460 483 403 490 431 483 b 646 690 544 483 646 543 l 646 699 b 476 893 643 858 543 893 b 429 886 457 893 439 890 m 558 -212 b 657 -11 635 -179 657 -87 b 572 251 657 83 624 171 b 338 508 519 333 431 429 b 307 539 326 518 317 528 l 307 -64 b 365 -183 307 -110 328 -154 b 492 -225 400 -210 447 -225 b 558 -212 515 -225 538 -221 "},"c":{"ha":1163,"x_min":0,"x_max":0,"o":"m 664 -264 b 990 32 824 -264 990 -192 l 990 43 l 1147 -49 b 664 -287 1036 -194 861 -287 b 57 319 329 -287 57 -15 b 664 928 57 656 329 928 b 1053 788 813 928 947 875 b 1163 557 1125 722 1163 638 b 1111 407 1163 503 1146 451 b 919 322 1056 335 971 322 b 890 324 908 322 899 322 b 883 325 888 324 886 324 b 872 326 876 325 872 326 b 590 689 757 349 649 488 b 493 808 567 768 535 808 l 492 808 b 374 736 456 808 414 779 b 331 667 358 715 343 692 l 314 633 b 250 319 274 543 250 436 b 664 -264 250 -3 435 -264 m 664 904 b 458 826 589 904 519 875 b 492 832 469 831 481 832 l 493 832 b 614 696 547 832 588 786 b 756 424 651 567 703 478 b 846 385 781 397 813 385 b 943 431 882 385 918 400 b 946 433 944 431 944 432 b 990 571 974 468 990 517 b 861 833 990 657 950 756 b 849 842 857 836 854 839 b 664 904 793 882 731 904 "},"d":{"ha":1146,"x_min":0,"x_max":0,"o":"m 561 925 b 1146 318 942 925 1146 653 b 553 -290 1146 -18 928 -290 b 307 -158 440 -290 351 -225 l 307 -278 l 57 -278 b 115 -192 92 -264 115 -229 l 115 832 b 99 883 115 850 110 868 b 57 918 89 899 75 911 l 307 918 l 307 813 b 561 925 360 872 457 925 m 551 -265 b 954 318 781 -265 954 -4 b 560 901 954 640 789 899 l 556 901 b 307 649 418 901 307 786 l 307 -14 b 524 -264 307 -139 399 -249 b 551 -265 533 -265 542 -265 "},"e":{"ha":790,"x_min":0,"x_max":0,"o":"m 490 -254 b 692 -92 556 -254 668 -240 l 790 -278 l 57 -278 b 115 -192 92 -264 115 -229 l 115 832 b 99 883 115 850 110 868 b 57 918 89 899 75 911 l 790 918 l 692 732 b 490 894 668 881 556 894 l 358 894 b 307 842 331 894 307 871 l 307 393 l 356 393 b 575 514 428 393 532 443 l 575 249 b 356 368 529 324 428 368 l 307 368 l 307 -203 b 358 -254 307 -231 331 -254 "},"f":{"ha":790,"x_min":0,"x_max":0,"o":"m 790 918 l 692 732 b 489 894 667 881 554 894 l 364 894 b 307 836 332 894 307 868 l 307 393 l 354 393 b 574 514 426 393 532 443 l 574 249 b 354 368 528 324 426 368 l 307 368 l 307 -192 b 322 -243 307 -210 313 -228 b 364 -278 332 -258 347 -271 l 57 -278 b 113 -206 88 -265 108 -237 b 114 -192 114 -201 114 -196 l 114 832 b 99 883 114 850 108 868 b 57 918 89 899 74 911 "},"g":{"ha":1174,"x_min":0,"x_max":0,"o":"m 1111 315 b 1174 74 1174 222 1174 74 l 1174 -278 l 1154 -269 b 986 -237 1100 -247 1043 -237 b 850 -258 940 -237 894 -244 b 665 -287 792 -276 729 -287 l 643 -287 b 57 319 318 -276 57 -4 l 57 322 b 647 918 58 651 321 910 l 1071 918 l 997 778 l 972 732 b 940 818 967 768 956 797 b 776 893 897 883 825 893 l 664 893 b 603 888 643 893 622 892 l 603 885 l 590 885 b 501 849 560 878 529 865 b 397 650 440 803 397 721 b 451 529 397 601 417 560 b 646 476 494 494 560 476 l 660 476 b 1007 411 714 476 893 474 b 1111 315 1051 388 1085 354 m 1024 89 b 646 451 1024 128 1017 451 b 436 511 554 451 483 472 b 374 650 396 546 374 593 b 404 769 374 689 385 731 b 249 319 310 665 249 504 b 664 -264 249 -3 435 -251 l 706 -264 b 829 -240 750 -262 790 -253 b 963 -135 892 -217 933 -178 b 1024 89 1024 -37 1024 89 "},"h":{"ha":892,"x_min":0,"x_max":0,"o":"m 835 -192 b 892 -278 835 -229 857 -264 l 585 -278 b 642 -192 619 -264 642 -229 l 642 539 b 406 447 533 533 458 494 b 307 217 342 389 307 304 l 307 -192 b 364 -278 307 -229 329 -264 l 57 -278 b 114 -192 92 -264 114 -229 l 114 832 b 57 918 114 869 92 903 l 364 918 b 307 832 329 903 307 869 l 307 356 b 642 563 351 439 447 553 l 642 832 b 585 918 642 869 619 903 l 892 918 b 835 832 857 903 835 869 "},"i":{"ha":365,"x_min":0,"x_max":0,"o":"m 365 918 b 307 832 331 903 307 869 l 307 -192 b 365 -278 307 -229 331 -264 l 57 -278 b 115 -192 92 -264 115 -229 l 115 832 b 57 918 115 869 92 903 "},"j":{"ha":463,"x_min":0,"x_max":0,"o":"m 463 918 b 404 832 428 903 404 869 l 404 -292 b 149 -547 404 -433 290 -547 b 78 -524 124 -547 99 -539 b 22 -406 51 -503 22 -467 b 25 -376 22 -397 24 -387 b 96 -190 33 -326 63 -264 b 157 -49 117 -146 138 -99 b 213 244 194 44 213 144 l 213 832 b 196 883 213 850 206 868 b 154 918 186 899 172 911 m 142 -524 b 213 -453 181 -524 213 -492 l 213 35 b 118 -200 188 -49 150 -129 b 50 -379 85 -272 57 -333 b 47 -407 49 -389 47 -399 b 106 -514 47 -469 82 -500 b 142 -524 117 -521 129 -524 "},"k":{"ha":883,"x_min":0,"x_max":0,"o":"m 535 -278 b 604 -135 535 -278 604 -274 b 589 -3 604 -100 600 -57 b 463 250 568 100 515 190 b 369 346 417 303 369 346 b 307 422 346 369 324 393 l 307 -192 b 365 -278 307 -229 331 -264 l 57 -278 b 115 -192 92 -264 115 -229 l 115 832 b 57 918 115 869 92 903 l 365 918 b 307 832 331 903 307 869 l 307 510 b 310 483 307 501 308 492 l 313 476 b 324 442 315 464 318 453 b 331 429 326 438 328 433 b 381 381 342 408 360 390 b 438 367 396 372 415 367 b 507 389 458 367 482 372 b 622 688 604 454 622 565 b 585 918 622 869 585 918 l 872 918 b 815 751 872 918 815 897 l 815 744 b 613 368 815 553 753 432 b 471 339 565 347 513 339 b 392 356 435 339 406 344 b 579 235 460 308 518 288 b 803 -150 764 74 786 -72 b 883 -278 825 -260 883 -278 "},"l":{"ha":703,"x_min":0,"x_max":0,"o":"m 114 832 b 99 883 114 850 108 868 b 57 918 89 899 74 911 l 364 918 b 307 832 329 903 307 869 l 307 -203 b 358 -254 307 -231 329 -254 l 403 -254 b 604 -92 468 -254 581 -240 l 703 -278 l 57 -278 b 114 -192 92 -264 114 -229 "},"m":{"ha":947,"x_min":0,"x_max":0,"o":"m 890 -192 b 947 -278 890 -229 913 -264 l 640 -278 b 682 -243 658 -271 672 -258 b 697 -192 692 -228 697 -210 l 697 857 l 406 190 l 146 789 l 146 -185 b 211 -278 146 -226 172 -264 l 57 -278 b 122 -185 96 -264 122 -226 l 122 825 b 57 918 122 867 96 904 l 301 918 l 499 461 l 697 918 l 947 918 b 906 883 931 911 915 899 b 890 832 896 868 890 850 "},"n":{"ha":851,"x_min":0,"x_max":0,"o":"m 786 -185 b 851 -278 786 -226 813 -264 l 608 -278 l 146 789 l 146 -185 b 211 -278 146 -226 172 -264 l 57 -278 b 122 -185 96 -264 122 -226 l 122 825 b 57 918 122 867 96 904 l 301 918 l 763 -150 l 763 825 b 697 918 763 867 736 904 l 851 918 b 786 825 813 904 786 867 "},"o":{"ha":1272,"x_min":0,"x_max":0,"o":"m 713 926 b 1272 321 1026 901 1272 640 b 665 -287 1272 -15 1000 -287 b 57 321 329 -287 57 -15 b 665 928 57 656 329 928 b 700 926 676 928 689 928 m 250 321 b 489 -207 250 88 347 -114 b 660 -258 540 -242 600 -258 b 804 -224 710 -258 760 -247 b 876 -160 833 -208 860 -189 b 910 -49 900 -122 910 -85 b 821 157 910 32 863 103 b 672 303 779 208 725 256 b 432 678 554 408 432 515 b 440 754 432 701 435 728 b 493 851 449 794 468 826 b 250 321 350 760 250 557 m 910 -150 b 1079 321 1013 -44 1079 128 b 796 875 1079 579 961 797 b 681 900 760 892 719 900 b 588 883 649 900 617 894 b 464 750 528 861 479 817 b 456 679 458 725 456 701 b 689 321 456 526 574 422 b 839 171 742 274 797 225 b 935 -47 885 114 935 39 b 910 -150 935 -81 928 -115 "},"p":{"ha":883,"x_min":0,"x_max":0,"o":"m 556 928 b 883 596 779 928 883 749 b 561 276 883 464 793 276 l 546 276 b 307 429 425 281 351 350 l 307 -192 b 364 -278 307 -229 329 -264 l 57 -278 b 114 -192 92 -264 114 -229 l 114 832 b 57 918 114 869 92 903 l 364 918 b 307 832 329 903 307 869 l 307 775 b 556 928 340 849 433 928 m 465 332 b 490 331 474 331 482 331 b 690 626 647 331 690 490 b 494 882 690 733 611 882 b 464 879 485 882 475 882 l 461 879 b 307 681 371 858 307 775 l 307 510 b 465 332 307 429 392 339 "},"q":{"ha":1272,"x_min":0,"x_max":0,"o":"m 671 -367 b 849 -343 729 -353 790 -343 b 1097 -451 956 -343 1053 -374 b 1122 -540 1115 -483 1122 -512 b 1071 -669 1122 -615 1071 -669 b 943 -525 1068 -600 1043 -554 b 863 -517 921 -518 893 -517 b 603 -553 779 -517 675 -536 b 529 -562 576 -560 551 -562 b 347 -435 419 -562 357 -494 b 346 -417 346 -429 346 -422 b 536 -274 346 -331 451 -290 b 57 321 263 -214 57 29 b 665 928 57 656 329 928 b 700 926 676 928 689 928 l 713 926 b 1272 321 1026 901 1272 640 b 665 -287 1272 -15 1000 -287 b 610 -285 646 -287 628 -286 b 592 -283 604 -283 599 -283 b 574 -285 586 -283 581 -283 b 374 -410 469 -299 374 -346 b 375 -421 374 -412 374 -417 b 410 -450 379 -442 390 -450 b 671 -367 458 -450 551 -397 m 588 883 b 464 750 528 861 479 817 b 456 679 458 725 456 701 b 688 321 456 526 574 422 b 839 171 742 274 797 225 b 935 -47 885 114 935 39 b 910 -150 935 -81 928 -115 b 1079 321 1013 -44 1079 128 b 796 875 1079 579 961 797 b 681 900 760 892 719 900 b 588 883 649 900 617 894 m 250 321 b 489 -207 250 88 347 -114 b 660 -258 540 -242 600 -258 b 804 -224 710 -258 760 -247 b 876 -160 833 -208 860 -189 b 910 -49 900 -122 910 -85 b 819 157 910 31 861 103 b 672 303 779 208 725 256 b 432 678 554 408 432 515 b 440 754 432 701 435 728 b 493 851 449 794 468 826 b 250 321 350 760 250 557 "},"r":{"ha":882,"x_min":0,"x_max":0,"o":"m 801 -150 b 882 -278 824 -260 882 -278 l 533 -278 b 604 -135 533 -278 604 -274 b 589 -3 604 -100 600 -57 b 367 349 546 203 367 349 l 368 349 b 307 429 343 372 322 400 l 307 -192 b 364 -278 307 -229 329 -264 l 57 -278 b 114 -192 92 -264 114 -229 l 114 832 b 57 918 114 869 92 903 l 364 918 b 307 832 329 903 307 869 l 307 781 b 554 918 340 854 433 918 b 882 596 779 918 882 749 b 561 276 882 464 793 276 l 546 276 b 513 279 535 276 524 278 b 578 235 536 264 558 250 b 801 -150 774 86 786 -72 m 307 510 b 465 332 307 429 386 332 b 690 626 644 332 690 483 b 494 882 690 733 611 882 b 464 879 485 882 475 882 l 461 879 b 307 681 369 858 307 775 "},"s":{"ha":808,"x_min":0,"x_max":0,"o":"m 679 332 b 808 69 768 264 808 167 b 757 -117 808 4 790 -60 b 419 -287 701 -208 608 -287 b 58 -7 228 -287 107 -164 l 242 94 b 219 -24 232 71 219 28 b 242 -139 219 -58 225 -99 b 443 -264 275 -218 357 -264 l 454 -264 b 656 -128 524 -260 614 -218 b 679 -22 671 -92 679 -56 b 554 183 679 65 629 140 l 188 417 b 57 642 97 483 57 564 b 242 896 57 747 129 847 b 246 897 243 896 244 897 b 361 918 283 911 322 918 l 769 918 l 671 732 b 488 893 649 867 554 890 b 468 894 482 893 475 894 l 388 894 b 231 794 321 894 257 857 b 217 728 221 774 217 750 b 285 596 217 681 238 632 "},"t":{"ha":885,"x_min":0,"x_max":0,"o":"m 885 918 l 786 732 b 603 893 764 867 669 890 b 585 894 597 893 590 894 l 169 894 b 101 865 144 894 118 883 b 82 817 88 851 82 833 b 107 753 82 793 92 769 b 153 732 121 738 138 732 b 207 747 176 732 199 742 b 215 753 210 750 213 751 b 249 783 228 761 238 772 b 290 819 261 796 274 810 b 372 851 313 835 340 844 b 385 854 376 853 381 854 b 404 857 390 856 397 857 b 450 861 421 860 436 861 l 453 861 b 515 851 475 860 496 857 b 567 783 546 843 567 815 l 567 -192 b 583 -243 567 -210 572 -228 b 625 -278 593 -258 607 -271 l 317 -278 b 375 -192 351 -264 375 -229 l 375 760 b 328 807 375 788 353 807 b 303 800 319 807 311 804 b 267 767 289 792 278 779 b 229 733 256 756 243 743 b 219 726 226 731 222 729 b 154 708 197 714 175 708 b 89 738 129 708 106 718 b 57 817 69 758 57 788 b 83 882 57 840 65 863 b 169 918 106 904 138 918 "},"u":{"ha":847,"x_min":0,"x_max":0,"o":"m 847 918 b 782 782 785 899 782 797 l 782 50 b 449 -287 782 -135 633 -287 b 114 47 264 -287 114 -137 l 114 832 b 99 883 114 850 108 868 b 57 918 89 899 74 911 l 364 918 b 307 832 329 903 307 869 l 307 47 b 374 -156 307 -49 332 -114 b 533 -215 414 -197 471 -215 b 758 57 647 -215 758 -94 l 758 307 b 578 656 758 442 658 560 b 486 793 531 713 494 757 b 483 821 485 803 483 813 b 517 896 483 858 501 882 b 585 918 535 910 558 918 m 758 781 b 646 894 758 843 708 894 l 585 894 b 532 876 564 894 546 888 b 507 822 515 863 507 844 b 510 799 507 815 508 807 b 597 671 517 768 554 724 b 758 429 656 603 724 521 "},"v":{"ha":897,"x_min":0,"x_max":0,"o":"m 897 918 b 814 824 856 903 824 868 l 710 367 l 710 365 l 576 -228 b 574 -253 575 -236 574 -244 b 576 -278 574 -261 575 -269 l 378 -278 l 133 829 b 57 918 124 869 96 903 l 364 918 b 326 857 340 907 326 882 b 328 842 326 851 326 847 l 558 -197 l 688 372 b 693 422 692 389 693 406 b 586 692 693 521 633 614 b 526 818 553 744 526 786 l 526 822 b 622 918 526 894 589 917 m 792 833 b 793 844 793 838 793 840 b 743 894 793 871 771 894 l 624 894 b 550 824 621 893 550 889 l 550 819 b 606 704 551 793 576 753 b 711 478 646 642 694 563 "},"w":{"ha":1349,"x_min":0,"x_max":0,"o":"m 1349 918 b 1267 824 1307 903 1276 868 l 1163 367 l 1163 365 l 1028 -228 b 1026 -253 1026 -236 1026 -244 b 1028 -278 1026 -261 1026 -269 l 831 -278 l 699 317 l 576 -228 b 574 -253 574 -236 574 -244 b 576 -278 574 -261 574 -269 l 379 -278 l 133 829 b 107 883 129 850 119 868 b 57 918 93 899 76 911 l 364 918 b 326 857 340 907 326 882 b 328 842 326 851 326 847 l 558 -197 l 658 244 b 672 374 668 288 672 331 b 658 499 672 415 668 458 l 586 829 b 510 918 576 869 549 903 l 817 918 b 779 857 793 907 779 882 b 781 842 779 851 779 847 l 1010 -197 l 1139 372 b 1144 422 1143 389 1144 406 b 1038 692 1144 521 1086 614 b 978 818 1006 744 979 786 l 978 822 b 1075 918 978 894 1042 917 m 1243 833 b 1244 844 1244 838 1244 840 b 1194 894 1244 871 1222 894 l 1075 894 b 1001 821 1074 893 1001 889 l 1001 819 b 1058 704 1003 793 1029 753 b 1163 478 1097 642 1147 563 "},"x":{"ha":875,"x_min":0,"x_max":0,"o":"m 875 918 b 772 832 832 903 794 872 l 578 497 b 550 397 560 467 550 432 b 567 318 550 371 556 343 l 785 -192 b 875 -278 801 -232 835 -262 l 567 -278 b 589 -236 582 -268 589 -253 b 585 -215 589 -229 588 -222 l 407 203 l 179 -190 b 171 -221 174 -200 171 -211 b 211 -278 171 -246 186 -269 l 57 -278 b 146 -200 94 -262 125 -235 l 343 140 b 371 244 361 172 371 208 b 354 325 371 272 365 299 l 133 839 b 57 918 119 875 92 903 l 364 918 b 336 871 346 908 336 889 b 340 849 336 863 338 856 l 515 438 l 747 839 b 754 867 753 847 754 857 b 721 918 754 889 742 910 "},"y":{"ha":867,"x_min":0,"x_max":0,"o":"m 867 918 b 771 828 824 903 789 869 l 590 394 b 563 256 572 351 563 304 l 563 -192 b 579 -243 563 -210 568 -228 b 621 -278 589 -258 603 -271 l 313 -278 b 371 -192 347 -264 371 -229 l 371 192 b 332 379 371 257 357 321 l 135 839 b 104 886 128 857 117 872 b 57 918 90 899 75 910 l 365 918 b 338 871 347 908 338 889 b 342 849 338 863 339 856 l 550 360 l 747 833 b 753 858 751 842 753 850 b 713 918 753 883 738 908 "},"z":{"ha":847,"x_min":0,"x_max":0,"o":"m 547 -254 b 749 -92 613 -254 725 -240 l 847 -278 l 57 -278 l 622 894 l 357 894 b 156 732 293 894 179 881 l 57 918 l 847 918 l 283 -254 "},"{":{"ha":544,"x_min":0,"x_max":0,"o":"m 151 296 b 199 265 168 286 185 276 b 392 -106 319 182 392 43 l 392 -212 b 544 -390 392 -301 457 -376 l 465 -390 b 199 -125 318 -390 199 -272 l 199 81 b 161 219 199 131 185 178 b 57 319 136 261 100 296 b 199 557 144 365 199 457 l 199 763 b 465 1028 199 910 318 1028 l 544 1028 b 392 850 457 1014 392 939 l 392 743 b 199 372 392 594 319 456 b 151 343 185 361 168 351 l 107 319 "},"|":{"ha":82,"x_min":0,"x_max":0,"o":"m 57 918 l 82 918 l 82 -278 l 57 -278 "},"}":{"ha":544,"x_min":0,"x_max":0,"o":"m 449 343 b 401 372 433 351 417 361 b 208 743 282 456 208 594 l 208 850 b 57 1028 208 939 144 1014 l 136 1028 b 401 763 283 1028 401 910 l 401 557 b 544 319 401 457 457 365 b 440 219 500 296 465 261 b 401 81 415 178 401 131 l 401 -125 b 136 -390 401 -272 283 -390 l 57 -390 b 208 -212 144 -376 208 -301 l 208 -106 b 401 265 208 43 282 182 b 449 296 417 276 433 286 l 493 319 "},"~":{"ha":421,"x_min":0,"x_max":0,"o":"m 57 307 b 58 311 57 307 57 308 b 67 322 60 314 63 317 b 82 338 71 326 75 332 b 92 346 85 340 89 343 b 106 354 96 349 100 351 b 136 367 114 360 124 364 b 156 371 142 369 149 369 b 175 369 161 371 169 371 l 196 365 b 215 357 203 364 210 361 b 235 347 222 354 228 350 l 250 333 b 265 321 254 331 260 325 l 271 315 l 279 311 b 293 303 283 308 288 304 l 301 299 b 308 297 304 299 306 299 b 315 296 311 297 314 296 b 322 294 318 296 321 294 l 340 294 l 344 296 b 353 297 347 296 350 297 b 365 300 356 299 360 299 l 386 313 b 401 325 392 317 397 321 b 410 332 404 329 408 331 l 414 336 l 421 331 b 419 326 421 331 419 331 l 411 314 b 397 299 407 311 403 304 b 386 290 394 296 390 293 b 374 282 383 288 379 285 b 358 275 369 279 365 276 l 351 271 l 346 269 l 340 269 b 328 268 338 269 333 268 l 311 268 b 301 269 308 268 304 269 b 292 272 299 271 294 271 b 282 276 288 274 286 275 b 263 286 275 279 269 282 l 246 299 b 231 311 240 303 236 306 l 217 322 b 203 331 211 326 207 329 l 188 339 l 172 343 b 156 344 167 344 161 344 l 140 344 b 114 335 132 342 122 339 b 103 331 110 333 106 332 b 92 324 99 328 96 326 b 76 313 86 319 81 315 b 67 304 72 310 69 306 b 64 300 65 301 64 300 l 57 307 "},"¡":{"ha":250,"x_min":0,"x_max":0,"o":"m 165 144 l 250 -778 l 57 -778 l 142 144 m 153 225 b 57 321 100 225 57 268 b 153 418 57 375 100 418 b 250 321 207 418 250 375 b 153 225 250 268 207 225 "},"¢":{"ha":1147,"x_min":0,"x_max":0,"o":"m 1147 -47 b 664 -287 1038 -193 861 -287 l 661 -287 l 661 -439 l 636 -439 l 636 -287 b 57 319 314 -272 57 -7 b 636 917 57 646 314 903 l 636 1078 l 661 1078 l 661 918 l 1089 918 l 1026 801 l 990 732 b 789 893 965 879 853 893 l 661 893 l 661 -264 l 664 -264 b 1032 49 824 -264 963 -137 m 636 892 b 250 319 421 874 250 629 b 636 -262 250 11 421 -242 "},"£":{"ha":844,"x_min":0,"x_max":0,"o":"m 93 -278 b 150 -192 128 -264 150 -229 l 150 274 l 57 274 l 57 297 l 150 297 l 150 592 b 493 918 150 771 306 918 b 815 800 686 918 815 800 l 682 672 b 669 764 682 708 678 738 b 504 888 644 843 572 888 b 347 749 433 888 367 843 b 343 711 344 736 343 724 l 343 297 l 493 297 l 493 274 l 343 274 l 343 -203 b 394 -254 343 -231 365 -254 l 544 -254 b 746 -92 610 -254 722 -240 l 844 -278 "},"¤":{"ha":476,"x_min":0,"x_max":0,"o":"m 267 135 b 389 181 314 135 354 150 b 407 197 396 186 401 192 b 453 321 438 232 453 274 b 407 443 453 367 438 407 b 389 460 401 449 396 454 b 267 506 354 490 314 506 b 144 460 221 506 179 490 l 128 443 b 82 321 97 407 82 367 b 128 197 82 274 97 232 l 144 181 b 267 135 179 150 221 135 m 476 319 b 424 179 476 267 458 219 l 465 139 l 447 121 l 407 163 b 267 110 367 128 321 110 b 128 163 213 110 167 128 l 86 121 l 69 139 l 111 179 b 57 319 75 219 57 267 b 111 458 57 372 75 419 l 69 500 l 86 517 l 128 475 b 267 529 167 511 213 529 b 407 475 321 529 367 511 l 447 517 l 465 500 l 424 458 b 476 319 458 419 476 372 "},"¥":{"ha":865,"x_min":0,"x_max":0,"o":"m 747 833 b 753 858 750 842 753 850 b 711 918 753 883 736 907 l 865 918 b 771 828 822 903 789 869 l 590 394 b 564 293 576 363 568 328 l 729 293 l 729 269 l 563 269 l 563 157 l 729 157 l 729 133 l 563 133 l 563 -192 b 578 -243 563 -211 568 -229 b 619 -278 588 -258 603 -271 l 313 -278 b 369 -192 347 -264 369 -229 l 369 133 l 194 133 l 194 157 l 369 157 l 369 192 b 364 269 369 218 368 243 l 194 269 l 194 293 l 358 293 b 332 379 353 322 343 351 l 135 839 b 103 886 126 857 117 872 b 57 918 90 899 75 910 l 364 918 b 336 868 347 908 336 889 b 340 847 336 861 338 854 l 550 360 "},"¦":{"ha":81,"x_min":0,"x_max":0,"o":"m 57 918 l 81 918 l 81 368 l 57 368 m 57 283 l 81 283 l 81 -278 l 57 -278 "},"§":{"ha":818,"x_min":0,"x_max":0,"o":"m 696 488 b 818 285 781 439 818 361 b 764 129 818 229 799 174 b 814 -6 797 88 814 42 b 763 -147 814 -56 796 -104 b 424 -278 707 -217 613 -278 b 64 -62 233 -278 113 -183 l 258 56 b 235 -51 249 38 235 -4 b 257 -146 235 -82 240 -115 b 451 -254 290 -208 365 -254 l 458 -254 b 650 -151 529 -251 611 -222 b 667 -83 661 -132 667 -108 b 592 39 667 -37 646 11 b 178 243 578 47 179 243 b 57 417 93 292 57 356 b 139 571 57 475 88 531 b 63 707 86 614 63 661 b 247 901 63 788 135 864 l 251 901 b 367 918 289 913 328 918 l 774 918 l 675 733 b 493 893 667 844 558 893 l 393 893 b 236 824 326 893 263 871 b 224 782 228 810 224 796 b 300 690 224 749 250 719 m 683 196 l 683 201 b 560 357 683 267 635 324 l 224 519 b 221 499 222 513 221 506 b 290 397 221 461 243 425 "},"¨":{"ha":442,"x_min":0,"x_max":0,"o":"m 236 1078 b 146 989 236 1029 196 989 b 57 1078 97 989 57 1029 b 146 1167 57 1126 97 1167 b 236 1078 196 1167 236 1126 m 442 1078 b 351 989 442 1029 401 989 b 263 1078 303 989 263 1029 b 351 1167 263 1126 303 1167 b 442 1078 401 1167 442 1126 "},"©":{"ha":1228,"x_min":0,"x_max":0,"o":"m 643 906 b 1228 319 965 906 1228 643 b 643 -265 1228 -3 965 -265 b 57 319 319 -265 57 -3 b 643 906 57 643 319 906 m 643 -242 b 1204 319 953 -242 1204 10 b 643 881 1204 629 953 881 b 81 319 333 881 81 629 b 643 -242 81 10 333 -242 m 650 -57 b 889 146 753 -57 843 25 l 964 83 b 650 -72 892 -11 778 -72 b 254 322 431 -72 254 104 b 650 713 254 542 431 713 l 926 713 l 886 636 l 861 590 b 731 696 846 688 772 696 l 650 696 b 379 322 500 696 379 532 b 650 -57 379 113 500 -57 "},"ª":{"ha":294,"x_min":0,"x_max":0,"o":"m 221 618 l 221 644 b 203 629 214 636 207 632 b 175 618 194 624 185 619 b 143 614 165 615 154 614 b 97 624 128 614 111 617 b 57 694 71 638 57 665 b 63 724 57 704 60 714 b 193 825 82 779 150 794 b 221 856 201 831 221 843 l 221 857 b 167 911 221 886 196 911 b 106 846 163 911 106 910 l 106 833 l 71 869 b 172 918 71 869 106 918 b 278 813 231 918 278 871 l 278 644 b 282 629 278 639 279 633 b 294 618 285 624 289 621 m 192 632 b 221 661 199 635 221 647 l 221 838 b 200 819 214 831 207 825 b 121 747 171 797 135 785 b 113 706 115 735 113 721 b 150 632 113 676 124 644 b 168 626 156 628 161 626 b 176 628 171 626 174 628 b 192 632 182 628 186 629 "},"«":{"ha":646,"x_min":0,"x_max":0,"o":"m 108 319 l 400 164 l 400 138 l 57 319 l 400 503 l 400 475 m 354 319 l 646 164 l 646 138 l 303 319 l 646 503 l 646 475 "},"¬":{"ha":774,"x_min":0,"x_max":0,"o":"m 774 444 l 774 196 l 750 196 l 750 421 l 57 421 l 57 444 "},"®":{"ha":592,"x_min":0,"x_max":0,"o":"m 324 906 b 592 638 472 906 592 785 b 324 369 592 490 472 369 b 57 638 176 369 57 490 b 324 906 57 785 176 906 m 324 381 b 581 638 465 381 581 496 b 324 894 581 779 465 894 b 67 638 182 894 67 779 b 324 381 67 496 182 381 m 433 497 b 457 460 440 465 457 460 l 354 460 b 374 501 354 460 374 461 b 369 542 374 511 372 525 b 332 617 364 572 347 599 b 304 646 317 635 304 646 b 286 669 297 653 290 661 l 286 485 b 303 460 286 474 293 464 l 211 460 b 229 485 222 464 229 474 l 229 790 b 211 815 229 801 222 811 l 303 815 b 286 790 293 811 286 801 l 286 775 b 360 815 296 797 324 815 b 457 719 426 815 457 765 b 363 625 457 681 431 625 l 347 625 b 367 613 354 621 361 617 b 433 497 425 568 429 521 m 286 694 b 333 640 286 669 310 640 b 400 728 386 640 400 686 b 342 806 400 761 376 806 b 332 804 338 806 335 804 b 286 744 304 797 286 772 "},"¯":{"ha":357,"x_min":0,"x_max":0,"o":"m 57 1008 l 357 1008 l 357 989 l 57 989 "},"°":{"ha":329,"x_min":0,"x_max":0,"o":"m 193 947 b 57 1083 118 947 57 1008 b 193 1219 57 1158 118 1219 b 329 1083 268 1219 329 1158 b 193 947 329 1008 268 947 m 193 1200 b 86 1083 128 1200 86 1147 b 193 967 86 1018 128 967 b 300 1083 257 967 300 1018 b 193 1200 300 1147 257 1200 "},"±":{"ha":593,"x_min":0,"x_max":0,"o":"m 58 35 l 593 35 l 593 11 l 58 11 m 338 350 l 338 94 l 313 94 l 313 350 l 57 350 l 57 374 l 313 374 l 313 629 l 338 629 l 338 374 l 593 374 l 593 350 "},"²":{"ha":240,"x_min":0,"x_max":0,"o":"m 183 668 b 217 688 210 668 217 686 l 240 619 l 57 619 b 63 639 58 625 61 633 b 140 743 75 678 90 704 b 174 778 156 756 167 768 b 186 824 182 792 186 808 l 186 825 b 142 911 186 872 167 908 l 136 911 b 93 858 111 911 93 889 b 97 833 93 850 94 842 b 57 861 86 840 65 854 b 142 917 71 894 103 917 b 235 836 193 917 235 886 l 235 833 b 193 758 235 811 228 789 b 172 743 188 754 181 749 b 129 719 153 732 140 725 b 90 685 111 708 99 694 b 89 679 89 683 89 681 b 99 668 89 674 93 668 "},"³":{"ha":235,"x_min":0,"x_max":0,"o":"m 142 803 b 235 711 193 803 235 763 b 142 618 235 660 193 618 b 57 675 103 618 71 642 b 97 701 65 681 86 694 b 93 676 94 693 93 685 b 135 625 93 649 111 625 l 142 625 b 186 711 167 628 186 663 b 138 797 186 757 172 797 l 135 797 b 90 749 94 794 90 749 l 67 764 b 81 779 69 768 78 778 b 150 825 90 790 110 806 b 181 847 161 832 172 839 b 185 856 183 850 185 853 b 172 868 185 863 179 868 l 118 868 b 83 849 90 868 83 849 l 61 915 l 226 915 b 218 889 225 908 222 899 b 207 868 215 882 211 875 b 151 821 196 850 178 833 b 115 800 138 813 125 806 b 142 803 124 801 132 803 "},"´":{"ha":257,"x_min":0,"x_max":0,"o":"m 71 989 l 57 1001 l 233 1224 l 257 1204 "},"µ":{"ha":849,"x_min":0,"x_max":0,"o":"m 760 782 b 726 863 760 814 749 840 b 646 894 704 883 678 894 l 585 894 b 533 878 565 894 549 889 b 507 821 515 864 507 844 b 510 799 507 814 508 807 b 596 675 521 767 550 726 b 597 672 596 674 596 674 b 688 560 626 638 657 600 b 760 429 717 519 742 475 m 307 47 b 325 -75 307 -1 313 -42 b 374 -156 338 -108 353 -135 b 447 -200 394 -176 419 -190 b 535 -214 474 -210 503 -214 b 690 -135 592 -214 644 -187 b 760 58 736 -82 760 -18 l 760 307 b 732 438 760 353 750 396 b 663 554 713 478 689 517 b 579 657 635 590 607 625 b 486 794 529 711 499 757 b 483 822 485 804 483 814 b 494 868 483 840 488 856 b 518 896 501 881 508 889 b 585 918 538 911 560 918 l 849 918 b 804 879 828 911 814 897 b 788 824 794 861 789 842 b 783 785 785 804 783 792 l 783 50 b 686 -187 783 -43 751 -122 b 449 -286 621 -253 542 -286 b 307 -256 397 -286 350 -276 l 307 -368 b 365 -454 307 -406 326 -435 l 57 -454 b 115 -368 96 -435 115 -406 l 115 832 b 99 883 115 851 110 868 b 57 918 89 899 75 911 l 365 918 b 307 832 326 899 307 869 l 307 47 "},"¶":{"ha":671,"x_min":0,"x_max":0,"o":"m 671 918 l 671 -278 l 478 -278 l 478 918 m 435 918 l 435 -278 l 411 -278 l 411 368 l 332 368 b 57 643 179 368 57 492 b 332 918 57 794 179 918 "},"·":{"ha":250,"x_min":0,"x_max":0,"o":"m 250 319 b 153 224 250 267 207 224 b 57 319 100 224 57 267 b 153 417 57 374 100 417 b 250 319 207 417 250 374 "},"¸":{"ha":490,"x_min":0,"x_max":0,"o":"m 283 -157 b 490 -301 399 -161 490 -224 b 271 -446 490 -381 392 -446 b 57 -333 167 -446 79 -397 l 78 -322 b 271 -422 94 -379 175 -422 b 467 -301 379 -422 467 -368 b 283 -181 467 -237 385 -185 l 258 -181 l 258 36 l 283 36 "},"¹":{"ha":133,"x_min":0,"x_max":0,"o":"m 122 629 b 133 619 125 625 129 622 l 57 619 b 71 642 65 624 71 632 l 71 865 b 57 879 71 874 65 879 b 119 915 86 896 94 901 l 119 642 b 122 629 119 636 121 632 "},"º":{"ha":261,"x_min":0,"x_max":0,"o":"m 158 918 b 261 768 215 918 261 851 b 158 618 261 686 215 618 b 57 768 103 618 57 686 b 158 918 57 851 103 918 m 158 625 b 210 768 185 625 210 689 b 158 913 210 847 185 913 b 108 768 132 913 108 847 b 158 625 108 689 132 625 "},"»":{"ha":646,"x_min":0,"x_max":0,"o":"m 303 503 l 646 319 l 303 138 l 303 164 l 594 319 l 303 475 m 57 503 l 400 319 l 57 138 l 57 164 l 349 319 l 57 475 "},"¼":{"ha":704,"x_min":0,"x_max":0,"o":"m 107 -278 l 81 -278 l 526 918 l 551 918 m 175 401 b 194 386 179 394 186 390 l 57 386 b 83 425 72 393 83 408 l 83 828 b 57 853 83 842 71 853 b 168 918 110 883 124 892 l 168 425 b 175 401 168 417 171 408 m 679 -129 b 689 -139 679 -135 683 -139 l 704 -139 l 704 -150 l 689 -150 b 679 -158 683 -150 679 -154 l 679 -239 b 686 -261 679 -247 682 -254 b 704 -276 690 -268 697 -274 l 568 -276 b 593 -239 583 -271 593 -256 l 593 -164 b 579 -150 593 -156 588 -150 l 358 -150 l 358 -139 b 475 92 358 -139 465 -57 b 476 114 476 99 476 106 b 440 218 476 149 467 188 l 568 254 b 572 208 568 254 572 238 b 374 -139 572 136 547 -12 l 579 -139 b 593 -125 588 -139 593 -132 l 593 76 l 679 76 "},"½":{"ha":735,"x_min":0,"x_max":0,"o":"m 106 -278 l 79 -278 l 525 918 l 551 918 m 175 401 b 193 386 179 394 185 390 l 57 386 b 82 425 72 393 82 408 l 82 828 b 57 853 82 842 71 853 b 168 918 108 883 122 892 l 168 425 b 175 401 168 417 169 408 m 632 -193 b 693 -157 678 -193 693 -162 l 735 -278 l 406 -278 b 415 -244 408 -268 413 -254 b 556 -56 438 -174 465 -128 b 614 6 583 -35 601 -12 b 638 89 631 31 638 60 b 558 244 638 175 601 239 l 549 244 b 471 149 503 244 471 203 b 478 106 471 135 474 121 b 404 154 458 119 421 144 b 558 256 431 214 489 256 b 724 110 650 256 724 201 l 724 106 b 651 -28 724 65 714 25 b 613 -56 640 -37 628 -47 b 536 -100 578 -76 554 -90 b 467 -162 501 -119 479 -143 b 463 -174 464 -167 463 -171 b 482 -193 463 -183 471 -193 "},"¾":{"ha":824,"x_min":0,"x_max":0,"o":"m 210 717 b 376 550 301 717 376 642 b 210 385 376 458 301 385 b 57 485 140 385 82 426 b 129 533 72 496 110 521 b 131 535 131 533 131 535 l 131 533 b 124 490 125 518 124 504 b 201 394 124 436 157 394 l 210 394 b 290 550 254 401 290 464 b 203 706 290 633 264 706 l 196 706 b 117 618 126 700 117 618 l 75 646 b 99 674 81 654 94 669 b 224 757 117 692 153 721 b 281 796 246 768 264 782 b 288 810 285 800 288 806 b 265 832 288 821 278 832 l 167 832 b 106 797 118 832 106 799 l 65 918 l 363 918 b 347 871 360 904 356 888 b 326 832 342 858 335 846 b 228 747 306 801 275 771 b 163 710 201 733 181 721 b 210 717 178 714 193 717 m 226 -278 l 200 -278 l 646 918 l 672 918 m 799 -129 b 808 -139 799 -135 803 -139 l 824 -139 l 824 -150 l 808 -150 b 799 -158 803 -150 799 -154 l 799 -239 b 806 -261 799 -247 801 -254 b 824 -276 810 -268 817 -274 l 688 -276 b 713 -239 703 -271 713 -256 l 713 -164 b 699 -150 713 -156 707 -150 l 479 -150 l 479 -139 b 596 92 479 -139 585 -57 l 596 108 b 561 218 596 146 588 186 l 688 254 b 692 208 688 254 692 238 b 493 -139 692 136 667 -12 l 699 -139 b 713 -125 707 -139 713 -132 l 713 76 l 799 76 "},"¿":{"ha":776,"x_min":0,"x_max":0,"o":"m 57 -453 b 372 -71 57 -418 68 -176 l 401 144 l 418 144 l 476 -147 b 251 -449 261 -237 251 -419 l 251 -454 b 432 -761 251 -647 333 -749 b 453 -762 439 -761 446 -762 b 626 -546 554 -762 626 -667 b 611 -449 626 -514 622 -482 b 776 -558 657 -478 740 -533 b 432 -786 719 -693 588 -786 b 57 -457 225 -786 57 -690 m 406 225 b 310 322 353 225 310 268 b 406 418 310 375 353 418 b 501 322 458 418 501 375 b 406 225 501 268 458 225 "},"À":{"ha":938,"x_min":0,"x_max":0,"o":"m 615 -278 b 654 -217 640 -267 654 -242 b 653 -201 654 -211 654 -207 l 532 319 b 444 386 524 360 486 386 b 415 382 435 386 425 385 b 331 333 381 372 353 356 b 274 199 276 281 274 210 l 274 197 l 272 197 b 383 -51 281 106 336 21 b 446 -178 418 -104 444 -146 l 446 -182 b 344 -278 446 -254 379 -275 l 57 -278 b 144 -183 101 -262 133 -226 l 253 274 l 253 275 l 250 265 l 382 822 b 385 846 383 831 385 839 b 331 918 385 892 354 911 l 600 918 l 857 -186 b 938 -278 867 -229 897 -262 m 421 -179 b 363 -64 419 -153 393 -111 b 253 164 321 -1 269 78 l 168 -193 b 167 -204 167 -197 167 -200 b 218 -253 167 -231 189 -253 l 344 -253 b 421 -183 347 -253 421 -249 m 313 350 b 508 422 358 394 424 419 l 413 839 l 290 324 b 313 350 297 333 304 342 m 368 1224 l 544 1001 l 531 989 l 344 1204 "},"Á":{"ha":938,"x_min":0,"x_max":0,"o":"m 615 -278 b 654 -217 640 -267 654 -242 b 653 -201 654 -211 654 -207 l 532 319 b 444 386 524 360 486 386 b 415 382 435 386 425 385 b 331 333 381 372 353 356 b 274 199 276 281 274 210 l 274 197 l 272 197 b 383 -51 281 106 336 21 b 446 -178 418 -104 444 -146 l 446 -182 b 344 -278 446 -254 379 -275 l 57 -278 b 144 -183 101 -262 133 -226 l 253 274 l 253 275 l 250 265 l 382 822 b 385 846 383 831 385 839 b 331 918 385 892 354 911 l 600 918 l 857 -186 b 938 -278 867 -229 897 -262 m 421 -179 b 363 -64 419 -153 393 -111 b 253 164 321 -1 269 78 l 168 -193 b 167 -204 167 -197 167 -200 b 218 -253 167 -231 189 -253 l 344 -253 b 421 -183 347 -253 421 -249 m 313 350 b 508 422 358 394 424 419 l 413 839 l 290 324 b 313 350 297 333 304 342 m 425 989 l 411 1001 l 588 1224 l 611 1204 "},"Â":{"ha":938,"x_min":0,"x_max":0,"o":"m 615 -278 b 654 -217 640 -267 654 -242 b 653 -201 654 -211 654 -207 l 532 319 b 444 386 524 360 486 386 b 415 382 435 386 425 385 b 331 333 381 372 353 356 b 274 199 276 281 274 210 l 274 197 l 272 197 b 383 -51 281 106 336 21 b 446 -178 418 -104 444 -146 l 446 -182 b 344 -278 446 -254 379 -275 l 57 -278 b 144 -183 101 -262 133 -226 l 253 274 l 253 275 l 250 265 l 382 822 b 385 846 383 831 385 839 b 331 918 385 892 354 911 l 600 918 l 857 -186 b 938 -278 867 -229 897 -262 m 421 -179 b 363 -64 419 -153 393 -111 b 253 164 321 -1 269 78 l 168 -193 b 167 -204 167 -197 167 -200 b 218 -253 167 -231 189 -253 l 344 -253 b 421 -183 347 -253 421 -249 m 313 350 b 508 422 358 394 424 419 l 413 839 l 290 324 b 313 350 297 333 304 342 m 661 1001 l 647 989 l 478 1171 l 310 989 l 294 1001 l 478 1219 "},"Ã":{"ha":938,"x_min":0,"x_max":0,"o":"m 615 -278 b 654 -217 640 -267 654 -242 b 653 -201 654 -211 654 -207 l 532 319 b 444 386 524 360 486 386 b 415 382 435 386 425 385 b 331 333 381 372 353 356 b 274 199 276 281 274 210 l 274 197 l 272 197 b 383 -51 281 106 336 21 b 446 -178 418 -104 444 -146 l 446 -182 b 344 -278 446 -254 379 -275 l 57 -278 b 144 -183 101 -262 133 -226 l 253 274 l 253 275 l 250 265 l 382 822 b 385 846 383 831 385 839 b 331 918 385 892 354 911 l 600 918 l 857 -186 b 938 -278 867 -229 897 -262 m 421 -179 b 363 -64 419 -153 393 -111 b 253 164 321 -1 269 78 l 168 -193 b 167 -204 167 -197 167 -200 b 218 -253 167 -231 189 -253 l 344 -253 b 421 -183 347 -253 421 -249 m 313 350 b 508 422 358 394 424 419 l 413 839 l 290 324 b 313 350 297 333 304 342 m 296 1028 b 297 1032 296 1028 296 1029 b 306 1043 299 1035 301 1038 b 321 1058 310 1047 314 1053 b 331 1067 324 1061 328 1064 b 344 1075 335 1069 339 1072 b 375 1088 353 1081 363 1085 b 394 1092 381 1090 388 1090 b 414 1090 400 1092 408 1092 l 435 1086 b 454 1078 442 1085 449 1082 b 474 1068 461 1075 467 1071 l 489 1054 b 504 1042 493 1051 499 1046 l 510 1036 l 518 1032 b 532 1024 522 1029 526 1025 l 540 1019 b 547 1018 543 1019 544 1019 b 554 1017 550 1018 553 1017 b 561 1015 557 1017 560 1015 l 579 1015 l 583 1017 b 592 1018 586 1017 589 1018 b 604 1021 594 1019 599 1019 l 625 1033 b 640 1046 631 1038 636 1042 b 649 1053 643 1050 647 1051 l 653 1057 l 660 1051 b 658 1047 660 1051 658 1051 l 650 1035 b 636 1019 646 1032 642 1025 b 625 1011 633 1017 629 1014 b 613 1003 622 1008 618 1006 b 597 996 608 1000 604 997 l 590 992 l 585 990 l 579 990 b 567 989 576 990 572 989 l 550 989 b 540 990 547 989 543 990 b 531 993 538 992 533 992 b 521 997 526 994 525 996 b 501 1007 514 1000 508 1003 l 485 1019 b 469 1032 479 1024 475 1026 l 456 1043 b 442 1051 450 1047 446 1050 l 426 1060 l 411 1064 b 394 1065 406 1065 400 1065 l 379 1065 b 353 1056 371 1063 361 1060 b 342 1051 349 1054 344 1053 b 331 1044 338 1049 335 1047 b 315 1033 325 1040 319 1036 b 306 1025 311 1031 308 1026 b 303 1021 304 1022 303 1021 l 296 1028 "},"Ä":{"ha":938,"x_min":0,"x_max":0,"o":"m 615 -278 b 654 -217 640 -267 654 -242 b 653 -201 654 -211 654 -207 l 532 319 b 444 386 524 360 486 386 b 415 382 435 386 425 385 b 331 333 381 372 353 356 b 274 199 276 281 274 210 l 274 197 l 272 197 b 383 -51 281 106 336 21 b 446 -178 418 -104 444 -146 l 446 -182 b 344 -278 446 -254 379 -275 l 57 -278 b 144 -183 101 -262 133 -226 l 253 274 l 253 275 l 250 265 l 382 822 b 385 846 383 831 385 839 b 331 918 385 892 354 911 l 600 918 l 857 -186 b 938 -278 867 -229 897 -262 m 421 -179 b 363 -64 419 -153 393 -111 b 253 164 321 -1 269 78 l 168 -193 b 167 -204 167 -197 167 -200 b 218 -253 167 -231 189 -253 l 344 -253 b 421 -183 347 -253 421 -249 m 313 350 b 508 422 358 394 424 419 l 413 839 l 290 324 b 313 350 297 333 304 342 m 465 1078 b 375 989 465 1029 425 989 b 286 1078 326 989 286 1029 b 375 1167 286 1126 326 1167 b 465 1078 425 1167 465 1126 m 671 1078 b 581 989 671 1029 631 989 b 492 1078 532 989 492 1029 b 581 1167 492 1126 532 1167 b 671 1078 631 1167 671 1126 "},"Å":{"ha":938,"x_min":0,"x_max":0,"o":"m 615 -278 b 654 -217 640 -267 654 -242 b 653 -201 654 -211 654 -207 l 532 319 b 444 386 524 360 486 386 b 415 382 435 386 425 385 b 331 333 381 372 353 356 b 274 199 276 281 274 210 l 274 197 l 272 197 b 383 -51 281 106 336 21 b 446 -178 418 -104 444 -146 l 446 -182 b 344 -278 446 -254 379 -275 l 57 -278 b 144 -183 101 -262 133 -226 l 253 274 l 253 275 l 250 265 l 382 822 b 385 846 383 831 385 839 b 331 918 385 892 354 911 l 600 918 l 857 -186 b 938 -278 867 -229 897 -262 m 421 -179 b 363 -64 419 -153 393 -111 b 253 164 321 -1 269 78 l 168 -193 b 167 -204 167 -197 167 -200 b 218 -253 167 -231 189 -253 l 344 -253 b 421 -183 347 -253 421 -249 m 313 350 b 508 422 358 394 424 419 l 413 839 l 290 324 b 313 350 297 333 304 342 m 478 947 b 342 1083 403 947 342 1008 b 478 1219 342 1158 403 1219 b 614 1083 553 1219 614 1158 b 478 947 614 1008 553 947 m 478 1200 b 371 1083 413 1200 371 1147 b 478 967 371 1018 413 967 b 585 1083 542 967 585 1018 b 478 1200 585 1147 542 1200 "},"Æ":{"ha":1290,"x_min":0,"x_max":0,"o":"m 421 -179 b 363 -64 417 -151 397 -112 b 299 42 342 -32 319 3 b 253 164 278 79 263 121 l 168 -193 b 167 -204 167 -197 167 -200 b 182 -237 167 -217 172 -228 b 218 -253 192 -247 203 -253 l 344 -253 b 358 -250 346 -253 350 -251 b 385 -242 365 -249 375 -246 b 410 -221 394 -237 403 -231 b 421 -183 417 -211 421 -199 m 313 350 b 508 422 358 394 424 418 l 413 839 l 290 324 b 313 350 297 333 304 342 m 857 -186 b 896 -253 864 -214 878 -236 l 990 -253 b 1065 -243 1011 -253 1036 -250 b 1143 -199 1094 -236 1119 -222 b 1192 -92 1167 -175 1182 -140 l 1290 -278 l 557 -278 b 614 -192 594 -257 614 -229 l 614 -33 l 532 319 b 500 368 528 340 517 356 b 444 386 483 381 465 386 b 415 382 435 386 425 385 b 331 333 381 372 353 356 b 292 278 313 315 300 296 b 276 226 283 258 278 242 b 274 199 275 211 274 203 l 274 197 l 272 197 b 314 65 278 151 292 107 b 383 -51 335 24 358 -15 b 446 -178 421 -104 442 -146 l 446 -182 b 428 -237 446 -206 440 -225 b 386 -267 415 -251 401 -261 b 344 -278 371 -274 357 -276 l 57 -278 b 144 -183 103 -260 132 -229 l 253 274 l 253 275 l 250 265 l 382 822 b 385 846 383 831 385 839 b 368 897 385 869 379 886 b 331 918 356 907 343 914 l 1290 918 l 1192 732 b 1143 840 1182 781 1167 817 b 1065 885 1119 864 1094 878 b 990 894 1036 892 1011 894 l 858 894 b 822 879 844 894 832 889 b 807 843 813 869 807 857 l 807 393 l 856 393 b 974 426 890 393 931 404 b 1075 514 1017 449 1051 478 l 1075 249 b 974 338 1050 286 1017 317 b 856 369 931 358 890 369 l 807 369 l 807 29 "},"Ç":{"ha":1147,"x_min":0,"x_max":0,"o":"m 653 -287 b 429 -240 574 -286 499 -271 b 235 -110 356 -208 292 -165 b 104 85 179 -54 136 11 b 57 319 72 158 57 236 l 57 328 b 232 743 64 494 122 633 b 649 918 342 853 481 911 l 1046 918 l 972 778 l 947 732 b 915 819 942 769 931 799 b 835 881 893 851 867 871 b 751 894 803 890 775 894 l 665 894 b 375 733 550 894 454 840 b 250 325 296 625 254 489 l 250 321 b 307 28 250 214 269 115 b 457 -183 344 -61 394 -132 b 665 -262 519 -236 589 -262 b 821 -235 719 -262 771 -253 b 943 -143 869 -217 911 -186 b 990 33 975 -100 990 -42 l 990 44 l 1147 -49 b 938 -222 1090 -122 1021 -179 b 678 -287 858 -264 771 -286 l 678 -458 b 826 -503 738 -461 786 -476 b 885 -603 865 -531 885 -564 b 821 -704 885 -643 864 -676 b 665 -747 778 -733 725 -747 b 529 -715 614 -747 568 -736 b 451 -635 489 -694 464 -668 l 472 -624 b 540 -694 482 -653 504 -676 b 665 -724 575 -714 617 -724 b 804 -687 719 -724 765 -711 b 861 -603 842 -664 861 -636 b 808 -519 861 -571 843 -543 b 678 -482 774 -497 729 -485 l 653 -482 l 653 -287 "},"È":{"ha":790,"x_min":0,"x_max":0,"o":"m 490 -253 b 692 -92 554 -253 667 -239 l 790 -278 l 57 -278 b 114 -192 92 -262 114 -229 l 114 832 b 99 883 114 851 108 869 b 57 918 89 899 74 911 l 790 918 l 692 732 b 490 894 667 881 554 894 l 358 894 b 307 843 329 894 307 871 l 307 393 l 354 393 b 574 514 426 393 532 443 l 574 249 b 354 369 528 324 426 369 l 307 369 l 307 -201 b 358 -253 307 -231 329 -253 m 314 1224 l 490 1001 l 476 989 l 290 1204 "},"É":{"ha":790,"x_min":0,"x_max":0,"o":"m 490 -253 b 692 -92 554 -253 667 -239 l 790 -278 l 57 -278 b 114 -192 92 -262 114 -229 l 114 832 b 99 883 114 851 108 869 b 57 918 89 899 74 911 l 790 918 l 692 732 b 490 894 667 881 554 894 l 358 894 b 307 843 329 894 307 871 l 307 393 l 354 393 b 574 514 426 393 532 443 l 574 249 b 354 369 528 324 426 369 l 307 369 l 307 -201 b 358 -253 307 -231 329 -253 m 371 989 l 357 1001 l 533 1224 l 557 1204 "},"Ê":{"ha":790,"x_min":0,"x_max":0,"o":"m 490 -253 b 692 -92 554 -253 667 -239 l 790 -278 l 57 -278 b 114 -192 92 -262 114 -229 l 114 832 b 99 883 114 851 108 869 b 57 918 89 899 74 911 l 790 918 l 692 732 b 490 894 667 881 554 894 l 358 894 b 307 843 329 894 307 871 l 307 393 l 354 393 b 574 514 426 393 532 443 l 574 249 b 354 369 528 324 426 369 l 307 369 l 307 -201 b 358 -253 307 -231 329 -253 m 607 1001 l 593 989 l 424 1171 l 256 989 l 240 1001 l 424 1219 "},"Ë":{"ha":790,"x_min":0,"x_max":0,"o":"m 490 -253 b 692 -92 554 -253 667 -239 l 790 -278 l 57 -278 b 114 -192 92 -262 114 -229 l 114 832 b 99 883 114 851 108 869 b 57 918 89 899 74 911 l 790 918 l 692 732 b 490 894 667 881 554 894 l 358 894 b 307 843 329 894 307 871 l 307 393 l 354 393 b 574 514 426 393 532 443 l 574 249 b 354 369 528 324 426 369 l 307 369 l 307 -201 b 358 -253 307 -231 329 -253 m 411 1078 b 321 989 411 1029 371 989 b 232 1078 272 989 232 1029 b 321 1167 232 1126 272 1167 b 411 1078 371 1167 411 1126 m 617 1078 b 526 989 617 1029 576 989 b 438 1078 478 989 438 1029 b 526 1167 438 1126 478 1167 b 617 1078 576 1167 617 1126 "},"Ì":{"ha":364,"x_min":0,"x_max":0,"o":"m 364 918 b 307 832 329 904 307 869 l 307 -192 b 364 -278 307 -229 329 -262 l 57 -278 b 114 -192 92 -262 114 -229 l 114 832 b 57 918 114 869 92 904 m 100 1224 l 276 1001 l 263 989 l 76 1204 "},"Í":{"ha":364,"x_min":0,"x_max":0,"o":"m 364 918 b 307 832 329 904 307 869 l 307 -192 b 364 -278 307 -229 329 -262 l 57 -278 b 114 -192 92 -262 114 -229 l 114 832 b 57 918 114 869 92 904 m 157 989 l 143 1001 l 319 1224 l 343 1204 "},"Î":{"ha":364,"x_min":0,"x_max":0,"o":"m 364 918 b 307 832 329 904 307 869 l 307 -192 b 364 -278 307 -229 329 -262 l 57 -278 b 114 -192 92 -262 114 -229 l 114 832 b 57 918 114 869 92 904 m 393 1001 l 379 989 l 210 1171 l 42 989 l 26 1001 l 210 1219 "},"Ï":{"ha":364,"x_min":0,"x_max":0,"o":"m 364 918 b 307 832 329 904 307 869 l 307 -192 b 364 -278 307 -229 329 -262 l 57 -278 b 114 -192 92 -262 114 -229 l 114 832 b 57 918 114 869 92 904 m 197 1078 b 107 989 197 1029 157 989 b 18 1078 58 989 18 1029 b 107 1167 18 1126 58 1167 b 197 1078 157 1167 197 1126 m 403 1078 b 313 989 403 1029 363 989 b 224 1078 264 989 224 1029 b 313 1167 224 1126 264 1167 b 403 1078 363 1167 403 1126 "},"Ð":{"ha":1146,"x_min":0,"x_max":0,"o":"m 307 -12 b 368 -178 307 -75 328 -131 b 522 -264 408 -226 460 -254 b 550 -265 532 -265 542 -265 b 757 -186 626 -265 696 -239 b 900 25 817 -135 865 -64 b 953 318 935 113 953 211 b 843 728 953 479 917 615 b 558 901 769 839 675 897 l 556 901 b 378 826 485 900 425 875 b 307 649 331 778 307 718 l 307 331 l 421 331 l 421 307 l 307 307 m 114 832 b 99 883 114 850 108 868 b 57 918 89 899 75 911 l 307 918 l 307 813 b 415 892 333 843 369 869 b 561 925 460 914 508 925 b 881 843 688 925 793 897 b 1079 624 968 789 1033 715 b 1146 318 1124 532 1146 431 b 1076 13 1146 206 1122 104 b 872 -207 1029 -79 961 -153 b 551 -289 783 -261 676 -289 b 404 -249 494 -289 446 -275 b 307 -158 361 -222 329 -193 l 307 -278 l 57 -278 b 114 -192 94 -257 114 -229 l 114 307 l -114 307 l -114 331 l 114 331 "},"Ñ":{"ha":851,"x_min":0,"x_max":0,"o":"m 786 -183 b 851 -278 786 -225 811 -262 l 607 -278 l 146 790 l 146 -183 b 211 -278 146 -225 172 -262 l 57 -278 b 122 -183 96 -262 122 -225 l 122 825 b 57 918 122 867 96 904 l 300 918 l 761 -149 l 761 825 b 697 918 761 867 736 904 l 851 918 b 786 825 811 904 786 867 m 272 1028 b 274 1032 272 1028 272 1029 b 282 1043 275 1035 278 1038 b 297 1058 286 1047 290 1053 b 307 1067 300 1061 304 1064 b 321 1075 311 1069 315 1072 b 351 1088 329 1081 339 1085 b 371 1092 357 1090 364 1090 b 390 1090 376 1092 385 1092 l 411 1086 b 431 1078 418 1085 425 1082 b 450 1068 438 1075 443 1071 l 465 1054 b 481 1042 469 1051 475 1046 l 486 1036 l 494 1032 b 508 1024 499 1029 503 1025 l 517 1019 b 524 1018 519 1019 521 1019 b 531 1017 526 1018 529 1017 b 538 1015 533 1017 536 1015 l 556 1015 l 560 1017 b 568 1018 563 1017 565 1018 b 581 1021 571 1019 575 1019 l 601 1033 b 617 1046 607 1038 613 1042 b 625 1053 619 1050 624 1051 l 629 1057 l 636 1051 b 635 1047 636 1051 635 1051 l 626 1035 b 613 1019 622 1032 618 1025 b 601 1011 610 1017 606 1014 b 589 1003 599 1008 594 1006 b 574 996 585 1000 581 997 l 567 992 l 561 990 l 556 990 b 543 989 553 990 549 989 l 526 989 b 517 990 524 989 519 990 b 507 993 514 992 510 992 b 497 997 503 994 501 996 b 478 1007 490 1000 485 1003 l 461 1019 b 446 1032 456 1024 451 1026 l 432 1043 b 418 1051 426 1047 422 1050 l 403 1060 l 388 1064 b 371 1065 382 1065 376 1065 l 356 1065 b 329 1056 347 1063 338 1060 b 318 1051 325 1054 321 1053 b 307 1044 314 1049 311 1047 b 292 1033 301 1040 296 1036 b 282 1025 288 1031 285 1026 b 279 1021 281 1022 279 1021 l 272 1028 "},"Ò":{"ha":1272,"x_min":0,"x_max":0,"o":"m 713 926 b 1272 321 1025 901 1272 640 b 664 -286 1272 -14 1000 -286 b 57 321 329 -286 57 -14 b 664 929 57 657 329 929 b 699 928 676 929 688 928 l 713 928 m 250 321 b 488 -207 250 88 347 -114 b 658 -258 539 -242 599 -258 b 803 -224 708 -258 758 -247 b 876 -160 833 -208 858 -187 b 910 -49 900 -122 910 -85 b 819 157 910 32 861 104 b 671 303 779 208 724 257 b 432 678 553 408 432 515 b 440 756 432 703 435 728 b 492 851 449 794 467 826 b 250 321 349 760 250 557 m 910 -150 b 1079 321 1013 -43 1079 128 b 794 875 1079 579 960 799 b 679 901 758 892 719 901 b 586 883 649 901 617 894 b 463 750 526 861 478 818 b 454 681 457 725 454 703 b 688 321 454 526 572 422 b 839 172 740 274 796 225 b 933 -49 883 115 933 39 b 910 -150 933 -82 926 -115 m 554 1224 l 731 1001 l 717 989 l 531 1204 "},"Ó":{"ha":1272,"x_min":0,"x_max":0,"o":"m 713 926 b 1272 321 1025 901 1272 640 b 664 -286 1272 -14 1000 -286 b 57 321 329 -286 57 -14 b 664 929 57 657 329 929 b 699 928 676 929 688 928 l 713 928 m 250 321 b 488 -207 250 88 347 -114 b 658 -258 539 -242 599 -258 b 803 -224 708 -258 758 -247 b 876 -160 833 -208 858 -187 b 910 -49 900 -122 910 -85 b 819 157 910 32 861 104 b 671 303 779 208 724 257 b 432 678 553 408 432 515 b 440 756 432 703 435 728 b 492 851 449 794 467 826 b 250 321 349 760 250 557 m 910 -150 b 1079 321 1013 -43 1079 128 b 794 875 1079 579 960 799 b 679 901 758 892 719 901 b 586 883 649 901 617 894 b 463 750 526 861 478 818 b 454 681 457 725 454 703 b 688 321 454 526 572 422 b 839 172 740 274 796 225 b 933 -49 883 115 933 39 b 910 -150 933 -82 926 -115 m 611 989 l 597 1001 l 774 1224 l 797 1204 "},"Ô":{"ha":1272,"x_min":0,"x_max":0,"o":"m 713 926 b 1272 321 1025 901 1272 640 b 664 -286 1272 -14 1000 -286 b 57 321 329 -286 57 -14 b 664 929 57 657 329 929 b 699 928 676 929 688 928 l 713 928 m 250 321 b 488 -207 250 88 347 -114 b 658 -258 539 -242 599 -258 b 803 -224 708 -258 758 -247 b 876 -160 833 -208 858 -187 b 910 -49 900 -122 910 -85 b 819 157 910 32 861 104 b 671 303 779 208 724 257 b 432 678 553 408 432 515 b 440 756 432 703 435 728 b 492 851 449 794 467 826 b 250 321 349 760 250 557 m 910 -150 b 1079 321 1013 -43 1079 128 b 794 875 1079 579 960 799 b 679 901 758 892 719 901 b 586 883 649 901 617 894 b 463 750 526 861 478 818 b 454 681 457 725 454 703 b 688 321 454 526 572 422 b 839 172 740 274 796 225 b 933 -49 883 115 933 39 b 910 -150 933 -82 926 -115 m 847 1001 l 833 989 l 664 1171 l 496 989 l 481 1001 l 664 1219 "},"Õ":{"ha":1272,"x_min":0,"x_max":0,"o":"m 713 926 b 1272 321 1025 901 1272 640 b 664 -286 1272 -14 1000 -286 b 57 321 329 -286 57 -14 b 664 929 57 657 329 929 b 699 928 676 929 688 928 l 713 928 m 250 321 b 488 -207 250 88 347 -114 b 658 -258 539 -242 599 -258 b 803 -224 708 -258 758 -247 b 876 -160 833 -208 858 -187 b 910 -49 900 -122 910 -85 b 819 157 910 32 861 104 b 671 303 779 208 724 257 b 432 678 553 408 432 515 b 440 756 432 703 435 728 b 492 851 449 794 467 826 b 250 321 349 760 250 557 m 910 -150 b 1079 321 1013 -43 1079 128 b 794 875 1079 579 960 799 b 679 901 758 892 719 901 b 586 883 649 901 617 894 b 463 750 526 861 478 818 b 454 681 457 725 454 703 b 688 321 454 526 572 422 b 839 172 740 274 796 225 b 933 -49 883 115 933 39 b 910 -150 933 -82 926 -115 m 482 1028 b 483 1032 482 1028 482 1029 b 492 1043 485 1035 488 1038 b 507 1058 496 1047 500 1053 b 517 1067 510 1061 514 1064 b 531 1075 521 1069 525 1072 b 561 1088 539 1081 549 1085 b 581 1092 567 1090 574 1090 b 600 1090 586 1092 594 1092 l 621 1086 b 640 1078 628 1085 635 1082 b 660 1068 647 1075 653 1071 l 675 1054 b 690 1042 679 1051 685 1046 l 696 1036 l 704 1032 b 718 1024 708 1029 713 1025 l 726 1019 b 733 1018 729 1019 731 1019 b 740 1017 736 1018 739 1017 b 747 1015 743 1017 746 1015 l 765 1015 l 769 1017 b 778 1018 772 1017 775 1018 b 790 1021 781 1019 785 1019 l 811 1033 b 826 1046 817 1038 822 1042 b 835 1053 829 1050 833 1051 l 839 1057 l 846 1051 b 844 1047 846 1051 844 1051 l 836 1035 b 822 1019 832 1032 828 1025 b 811 1011 819 1017 815 1014 b 799 1003 808 1008 804 1006 b 783 996 794 1000 790 997 l 776 992 l 771 990 l 765 990 b 753 989 763 990 758 989 l 736 989 b 726 990 733 989 729 990 b 717 993 724 992 719 992 b 707 997 713 994 711 996 b 688 1007 700 1000 694 1003 l 671 1019 b 656 1032 665 1024 661 1026 l 642 1043 b 628 1051 636 1047 632 1050 l 613 1060 l 597 1064 b 581 1065 592 1065 586 1065 l 565 1065 b 539 1056 557 1063 547 1060 b 528 1051 535 1054 531 1053 b 517 1044 524 1049 521 1047 b 501 1033 511 1040 506 1036 b 492 1025 497 1031 494 1026 b 489 1021 490 1022 489 1021 l 482 1028 "},"Ö":{"ha":1272,"x_min":0,"x_max":0,"o":"m 713 926 b 1272 321 1025 901 1272 640 b 664 -286 1272 -14 1000 -286 b 57 321 329 -286 57 -14 b 664 929 57 657 329 929 b 699 928 676 929 688 928 l 713 928 m 250 321 b 488 -207 250 88 347 -114 b 658 -258 539 -242 599 -258 b 803 -224 708 -258 758 -247 b 876 -160 833 -208 858 -187 b 910 -49 900 -122 910 -85 b 819 157 910 32 861 104 b 671 303 779 208 724 257 b 432 678 553 408 432 515 b 440 756 432 703 435 728 b 492 851 449 794 467 826 b 250 321 349 760 250 557 m 910 -150 b 1079 321 1013 -43 1079 128 b 794 875 1079 579 960 799 b 679 901 758 892 719 901 b 586 883 649 901 617 894 b 463 750 526 861 478 818 b 454 681 457 725 454 703 b 688 321 454 526 572 422 b 839 172 740 274 796 225 b 933 -49 883 115 933 39 b 910 -150 933 -82 926 -115 m 651 1078 b 561 989 651 1029 611 989 b 472 1078 513 989 472 1029 b 561 1167 472 1126 513 1167 b 651 1078 611 1167 651 1126 m 857 1078 b 767 989 857 1029 817 989 b 678 1078 718 989 678 1029 b 767 1167 678 1126 718 1167 b 857 1078 817 1167 857 1126 "},"×":{"ha":451,"x_min":0,"x_max":0,"o":"m 254 303 l 74 122 l 57 140 l 238 319 l 57 501 l 74 518 l 254 338 l 435 518 l 451 501 l 271 319 l 451 140 l 435 122 "},"Ø":{"ha":1271,"x_min":0,"x_max":0,"o":"m 664 928 b 1271 319 1000 928 1271 656 b 664 -287 1271 -15 1000 -287 l 664 -439 l 640 -439 l 640 -287 b 57 319 315 -275 57 -8 b 640 926 57 647 315 914 l 640 1078 l 664 1078 m 640 901 b 249 319 422 885 249 631 b 640 -262 249 8 422 -244 m 664 -264 b 1079 319 893 -264 1079 -3 b 664 903 1079 642 893 903 "},"Ù":{"ha":849,"x_min":0,"x_max":0,"o":"m 849 918 b 783 785 786 900 783 804 l 783 50 b 449 -286 783 -135 633 -286 b 115 49 264 -286 115 -136 l 115 832 b 99 883 115 851 108 869 b 57 918 89 899 75 911 l 365 918 b 307 832 331 904 307 869 l 307 47 b 374 -156 307 -49 333 -114 b 535 -214 415 -197 472 -214 b 760 58 649 -214 760 -93 l 760 307 b 579 657 760 442 660 561 b 486 794 532 713 494 757 b 483 822 485 804 483 814 b 518 896 483 860 501 882 b 585 918 535 910 560 918 m 760 782 b 646 894 760 844 708 894 l 585 894 b 533 878 565 894 546 889 b 507 821 517 864 507 844 b 510 799 507 814 508 807 b 597 672 517 768 554 724 b 760 429 656 603 724 522 m 343 1224 l 519 1001 l 506 989 l 319 1204 "},"Ú":{"ha":849,"x_min":0,"x_max":0,"o":"m 849 918 b 783 785 786 900 783 804 l 783 50 b 449 -286 783 -135 633 -286 b 115 49 264 -286 115 -136 l 115 832 b 99 883 115 851 108 869 b 57 918 89 899 75 911 l 365 918 b 307 832 331 904 307 869 l 307 47 b 374 -156 307 -49 333 -114 b 535 -214 415 -197 472 -214 b 760 58 649 -214 760 -93 l 760 307 b 579 657 760 442 660 561 b 486 794 532 713 494 757 b 483 822 485 804 483 814 b 518 896 483 860 501 882 b 585 918 535 910 560 918 m 760 782 b 646 894 760 844 708 894 l 585 894 b 533 878 565 894 546 889 b 507 821 517 864 507 844 b 510 799 507 814 508 807 b 597 672 517 768 554 724 b 760 429 656 603 724 522 m 400 989 l 386 1001 l 563 1224 l 586 1204 "},"Û":{"ha":849,"x_min":0,"x_max":0,"o":"m 849 918 b 783 785 786 900 783 804 l 783 50 b 449 -286 783 -135 633 -286 b 115 49 264 -286 115 -136 l 115 832 b 99 883 115 851 108 869 b 57 918 89 899 75 911 l 365 918 b 307 832 331 904 307 869 l 307 47 b 374 -156 307 -49 333 -114 b 535 -214 415 -197 472 -214 b 760 58 649 -214 760 -93 l 760 307 b 579 657 760 442 660 561 b 486 794 532 713 494 757 b 483 822 485 804 483 814 b 518 896 483 860 501 882 b 585 918 535 910 560 918 m 760 782 b 646 894 760 844 708 894 l 585 894 b 533 878 565 894 546 889 b 507 821 517 864 507 844 b 510 799 507 814 508 807 b 597 672 517 768 554 724 b 760 429 656 603 724 522 m 636 1001 l 622 989 l 453 1171 l 285 989 l 269 1001 l 453 1219 "},"Ü":{"ha":849,"x_min":0,"x_max":0,"o":"m 849 918 b 783 785 786 900 783 804 l 783 50 b 449 -286 783 -135 633 -286 b 115 49 264 -286 115 -136 l 115 832 b 99 883 115 851 108 869 b 57 918 89 899 75 911 l 365 918 b 307 832 331 904 307 869 l 307 47 b 374 -156 307 -49 333 -114 b 535 -214 415 -197 472 -214 b 760 58 649 -214 760 -93 l 760 307 b 579 657 760 442 660 561 b 486 794 532 713 494 757 b 483 822 485 804 483 814 b 518 896 483 860 501 882 b 585 918 535 910 560 918 m 760 782 b 646 894 760 844 708 894 l 585 894 b 533 878 565 894 546 889 b 507 821 517 864 507 844 b 510 799 507 814 508 807 b 597 672 517 768 554 724 b 760 429 656 603 724 522 m 440 1078 b 350 989 440 1029 400 989 b 261 1078 301 989 261 1029 b 350 1167 261 1126 301 1167 b 440 1078 400 1167 440 1126 m 646 1078 b 556 989 646 1029 606 989 b 467 1078 507 989 467 1029 b 556 1167 467 1126 507 1167 b 646 1078 606 1167 646 1126 "},"Ý":{"ha":865,"x_min":0,"x_max":0,"o":"m 865 918 b 771 828 822 903 788 871 l 590 394 b 563 257 572 351 563 304 l 563 -192 b 578 -243 563 -210 568 -228 b 619 -278 588 -258 603 -269 l 313 -278 b 369 -192 347 -262 369 -229 l 369 193 b 331 379 369 257 357 321 l 135 840 b 103 886 126 857 117 874 b 57 918 90 900 74 911 l 364 918 b 336 871 346 908 336 890 b 340 849 336 864 338 856 l 549 360 l 747 835 b 753 858 750 843 753 850 b 711 918 753 883 736 908 m 408 989 l 394 1001 l 571 1224 l 594 1204 "},"Þ":{"ha":882,"x_min":0,"x_max":0,"o":"m 307 776 b 399 882 325 815 356 850 b 554 929 442 914 494 929 b 740 878 629 929 692 913 b 847 750 789 843 824 801 b 882 596 871 699 882 647 b 850 457 882 553 871 506 b 746 329 828 407 793 364 b 557 276 697 294 635 276 l 544 276 b 397 325 485 281 436 296 b 307 429 358 354 328 389 l 307 -192 b 364 -278 307 -229 326 -257 l 57 -278 b 114 -192 94 -257 114 -229 l 114 832 l 115 1014 b 57 1100 115 1051 96 1081 l 365 1100 b 307 1014 326 1081 307 1051 l 307 776 m 307 510 b 357 396 307 469 324 432 b 465 332 389 360 425 339 b 490 331 475 331 483 331 b 613 376 543 331 583 346 b 672 490 642 407 661 444 b 689 626 683 536 689 581 b 665 740 689 663 681 700 b 597 840 649 779 626 813 b 493 882 568 868 533 882 b 463 879 483 882 472 881 l 461 879 b 350 807 415 868 378 844 b 307 682 321 769 307 728 l 307 510 "},"ß":{"ha":849,"x_min":0,"x_max":0,"o":"m 697 282 b 849 8 779 219 847 118 l 849 3 b 785 -182 849 -65 825 -131 b 543 -282 726 -258 633 -282 b 343 -197 474 -282 408 -254 b 307 -156 329 -185 317 -169 l 307 -278 l 57 -278 b 114 -192 92 -264 114 -229 l 114 488 b 519 926 114 688 240 926 b 836 672 661 926 836 875 b 681 460 836 617 806 504 b 550 436 631 442 586 436 b 446 454 486 436 447 453 b 481 429 458 444 471 436 b 697 282 551 376 626 336 m 307 672 b 382 503 307 581 339 532 b 458 482 401 490 429 482 b 646 692 543 482 646 542 l 646 699 b 471 900 642 863 538 900 b 428 893 453 900 438 897 b 307 685 346 861 307 800 m 557 -212 b 656 -12 633 -179 656 -87 l 656 -7 b 572 250 656 88 622 172 b 338 508 518 333 429 429 b 307 539 326 518 315 528 l 307 -64 b 364 -183 307 -110 328 -156 l 365 -183 b 490 -225 400 -210 446 -225 b 557 -212 513 -225 536 -221 "},"à":{"ha":900,"x_min":0,"x_max":0,"o":"m 597 -278 b 638 -218 624 -267 638 -243 b 636 -203 638 -212 638 -208 l 579 69 b 582 28 581 56 582 42 b 518 -167 582 -74 535 -137 b 322 -278 476 -237 406 -278 b 174 -222 261 -278 214 -257 b 99 -17 125 -181 99 -106 b 100 8 99 -8 100 0 b 119 104 101 36 115 89 b 222 608 119 104 193 464 b 225 636 224 618 225 626 b 194 722 225 667 215 697 b 143 840 194 722 143 789 b 147 864 143 849 144 857 b 285 918 163 900 194 918 l 654 918 b 611 853 625 907 611 881 b 613 836 611 847 611 842 l 828 -186 b 900 -278 838 -228 854 -262 m 549 61 b 251 651 549 211 461 379 l 163 222 b 147 97 154 182 147 139 b 261 -101 147 15 172 -61 b 357 -124 294 -117 328 -124 b 549 54 471 -124 547 -24 m 260 674 b 554 192 411 476 517 317 l 419 838 b 351 894 413 869 389 894 l 276 894 b 169 860 201 894 181 882 b 165 839 167 854 165 847 b 213 733 165 803 196 750 b 239 701 221 724 231 713 b 260 674 246 692 253 683 m 306 1197 l 482 975 l 468 963 l 282 1178 "},"á":{"ha":900,"x_min":0,"x_max":0,"o":"m 597 -278 b 638 -218 624 -267 638 -243 b 636 -203 638 -212 638 -208 l 579 69 b 582 28 581 56 582 42 b 518 -167 582 -74 535 -137 b 322 -278 476 -237 406 -278 b 174 -222 261 -278 214 -257 b 99 -17 125 -181 99 -106 b 100 8 99 -8 100 0 b 119 104 101 36 115 89 b 222 608 119 104 193 464 b 225 636 224 618 225 626 b 194 722 225 667 215 697 b 143 840 194 722 143 789 b 147 864 143 849 144 857 b 285 918 163 900 194 918 l 654 918 b 611 853 625 907 611 881 b 613 836 611 847 611 842 l 828 -186 b 900 -278 838 -228 854 -262 m 549 61 b 251 651 549 211 461 379 l 163 222 b 147 97 154 182 147 139 b 261 -101 147 15 172 -61 b 357 -124 294 -117 328 -124 b 549 54 471 -124 547 -24 m 260 674 b 554 192 411 476 517 317 l 419 838 b 351 894 413 869 389 894 l 276 894 b 169 860 201 894 181 882 b 165 839 167 854 165 847 b 213 733 165 803 196 750 b 239 701 221 724 231 713 b 260 674 246 692 253 683 m 363 963 l 349 975 l 525 1197 l 549 1178 "},"â":{"ha":900,"x_min":0,"x_max":0,"o":"m 597 -278 b 638 -218 624 -267 638 -243 b 636 -203 638 -212 638 -208 l 579 69 b 582 28 581 56 582 42 b 518 -167 582 -74 535 -137 b 322 -278 476 -237 406 -278 b 174 -222 261 -278 214 -257 b 99 -17 125 -181 99 -106 b 100 8 99 -8 100 0 b 119 104 101 36 115 89 b 222 608 119 104 193 464 b 225 636 224 618 225 626 b 194 722 225 667 215 697 b 143 840 194 722 143 789 b 147 864 143 849 144 857 b 285 918 163 900 194 918 l 654 918 b 611 853 625 907 611 881 b 613 836 611 847 611 842 l 828 -186 b 900 -278 838 -228 854 -262 m 549 61 b 251 651 549 211 461 379 l 163 222 b 147 97 154 182 147 139 b 261 -101 147 15 172 -61 b 357 -124 294 -117 328 -124 b 549 54 471 -124 547 -24 m 260 674 b 554 192 411 476 517 317 l 419 838 b 351 894 413 869 389 894 l 276 894 b 169 860 201 894 181 882 b 165 839 167 854 165 847 b 213 733 165 803 196 750 b 239 701 221 724 231 713 b 260 674 246 692 253 683 m 599 975 l 585 963 l 415 1144 l 247 963 l 232 975 l 415 1193 "},"ã":{"ha":900,"x_min":0,"x_max":0,"o":"m 597 -278 b 638 -218 624 -267 638 -243 b 636 -203 638 -212 638 -208 l 579 69 b 582 28 581 56 582 42 b 518 -167 582 -74 535 -137 b 322 -278 476 -237 406 -278 b 174 -222 261 -278 214 -257 b 99 -17 125 -181 99 -106 b 100 8 99 -8 100 0 b 119 104 101 36 115 89 b 222 608 119 104 193 464 b 225 636 224 618 225 626 b 194 722 225 667 215 697 b 143 840 194 722 143 789 b 147 864 143 849 144 857 b 285 918 163 900 194 918 l 654 918 b 611 853 625 907 611 881 b 613 836 611 847 611 842 l 828 -186 b 900 -278 838 -228 854 -262 m 549 61 b 251 651 549 211 461 379 l 163 222 b 147 97 154 182 147 139 b 261 -101 147 15 172 -61 b 357 -124 294 -117 328 -124 b 549 54 471 -124 547 -24 m 260 674 b 554 192 411 476 517 317 l 419 838 b 351 894 413 869 389 894 l 276 894 b 169 860 201 894 181 882 b 165 839 167 854 165 847 b 213 733 165 803 196 750 b 239 701 221 724 231 713 b 260 674 246 692 253 683 m 233 1001 b 235 1006 233 1001 233 1003 b 243 1017 236 1008 239 1011 b 258 1032 247 1021 251 1026 b 268 1040 261 1035 265 1038 b 282 1049 272 1043 276 1046 b 313 1061 290 1054 300 1058 b 332 1065 318 1064 325 1064 b 351 1064 338 1065 346 1065 l 372 1060 b 392 1051 379 1058 386 1056 b 411 1042 399 1049 404 1044 l 426 1028 b 442 1015 431 1025 436 1019 l 447 1010 l 456 1006 b 469 997 460 1003 464 999 l 478 993 b 485 992 481 993 482 993 b 492 990 488 992 490 990 b 499 989 494 990 497 989 l 517 989 l 521 990 b 529 992 524 990 526 992 b 542 994 532 993 536 993 l 563 1007 b 578 1019 568 1011 574 1015 b 586 1026 581 1024 585 1025 l 590 1031 l 597 1025 b 596 1021 597 1025 596 1025 l 588 1008 b 574 993 583 1006 579 999 b 563 985 571 990 567 988 b 550 976 560 982 556 979 b 535 969 546 974 542 971 l 528 965 l 522 964 l 517 964 b 504 963 514 964 510 963 l 488 963 b 478 964 485 963 481 964 b 468 967 475 965 471 965 b 458 971 464 968 463 969 b 439 981 451 974 446 976 l 422 993 b 407 1006 417 997 413 1000 l 393 1017 b 379 1025 388 1021 383 1024 l 364 1033 l 349 1038 b 332 1039 343 1039 338 1039 l 317 1039 b 290 1029 308 1036 299 1033 b 279 1025 286 1028 282 1026 b 268 1018 275 1022 272 1021 b 253 1007 263 1014 257 1010 b 243 999 249 1004 246 1000 b 240 994 242 996 240 994 l 233 1001 "},"ä":{"ha":900,"x_min":0,"x_max":0,"o":"m 597 -278 b 638 -218 624 -267 638 -243 b 636 -203 638 -212 638 -208 l 579 69 b 582 28 581 56 582 42 b 518 -167 582 -74 535 -137 b 322 -278 476 -237 406 -278 b 174 -222 261 -278 214 -257 b 99 -17 125 -181 99 -106 b 100 8 99 -8 100 0 b 119 104 101 36 115 89 b 222 608 119 104 193 464 b 225 636 224 618 225 626 b 194 722 225 667 215 697 b 143 840 194 722 143 789 b 147 864 143 849 144 857 b 285 918 163 900 194 918 l 654 918 b 611 853 625 907 611 881 b 613 836 611 847 611 842 l 828 -186 b 900 -278 838 -228 854 -262 m 549 61 b 251 651 549 211 461 379 l 163 222 b 147 97 154 182 147 139 b 261 -101 147 15 172 -61 b 357 -124 294 -117 328 -124 b 549 54 471 -124 547 -24 m 260 674 b 554 192 411 476 517 317 l 419 838 b 351 894 413 869 389 894 l 276 894 b 169 860 201 894 181 882 b 165 839 167 854 165 847 b 213 733 165 803 196 750 b 239 701 221 724 231 713 b 260 674 246 692 253 683 m 403 1051 b 313 963 403 1003 363 963 b 224 1051 264 963 224 1003 b 313 1140 224 1100 264 1140 b 403 1051 363 1140 403 1100 m 608 1051 b 518 963 608 1003 568 963 b 429 1051 469 963 429 1003 b 518 1140 429 1100 469 1140 b 608 1051 568 1140 608 1100 "},"å":{"ha":900,"x_min":0,"x_max":0,"o":"m 597 -278 b 638 -218 624 -267 638 -243 b 636 -203 638 -212 638 -208 l 579 69 b 582 28 581 56 582 42 b 518 -167 582 -74 535 -137 b 322 -278 476 -237 406 -278 b 174 -222 261 -278 214 -257 b 99 -17 125 -181 99 -106 b 100 8 99 -8 100 0 b 119 104 101 36 115 89 b 222 608 119 104 193 464 b 225 636 224 618 225 626 b 194 722 225 667 215 697 b 143 840 194 722 143 789 b 147 864 143 849 144 857 b 285 918 163 900 194 918 l 654 918 b 611 853 625 907 611 881 b 613 836 611 847 611 842 l 828 -186 b 900 -278 838 -228 854 -262 m 549 61 b 251 651 549 211 461 379 l 163 222 b 147 97 154 182 147 139 b 261 -101 147 15 172 -61 b 357 -124 294 -117 328 -124 b 549 54 471 -124 547 -24 m 260 674 b 554 192 411 476 517 317 l 419 838 b 351 894 413 869 389 894 l 276 894 b 169 860 201 894 181 882 b 165 839 167 854 165 847 b 213 733 165 803 196 750 b 239 701 221 724 231 713 b 260 674 246 692 253 683 m 415 921 b 279 1057 340 921 279 982 b 415 1193 279 1132 340 1193 b 551 1057 490 1193 551 1132 b 415 921 551 982 490 921 m 415 1174 b 308 1057 350 1174 308 1121 b 415 940 308 992 350 940 b 522 1057 479 940 522 992 b 415 1174 522 1121 479 1174 "},"æ":{"ha":1282,"x_min":0,"x_max":0,"o":"m 549 61 b 478 313 549 136 525 219 b 251 651 431 404 356 517 l 163 222 b 147 97 153 181 147 139 b 172 -17 147 57 156 18 b 261 -101 188 -51 218 -81 b 357 -124 296 -117 328 -124 b 457 -96 394 -124 428 -114 b 524 -26 486 -78 508 -54 b 549 54 539 0 547 28 m 260 674 b 554 192 415 478 514 317 l 419 838 b 397 879 415 854 408 868 b 351 894 385 889 369 894 l 276 894 b 199 886 239 894 214 892 b 169 860 183 879 174 871 b 165 839 167 854 165 847 b 182 779 165 821 171 800 b 213 733 193 758 203 743 b 215 729 214 732 214 731 b 239 701 224 721 232 711 l 250 688 b 260 674 253 683 256 678 m 828 -186 b 863 -254 832 -214 843 -237 l 979 -254 b 1054 -244 1000 -254 1025 -251 b 1132 -200 1083 -237 1108 -224 b 1181 -92 1156 -176 1171 -140 l 1279 -278 l 546 -278 b 603 -192 583 -258 603 -229 l 603 -43 l 579 69 b 582 28 581 54 582 40 b 563 -82 582 -15 575 -53 b 526 -153 550 -112 538 -136 b 518 -167 522 -158 519 -162 b 322 -278 471 -240 406 -278 b 240 -262 292 -278 264 -272 b 174 -222 217 -253 194 -240 b 99 -17 124 -174 99 -104 l 100 8 b 108 61 101 24 104 40 b 119 104 113 81 117 94 l 119 107 b 132 163 121 113 125 131 b 160 303 139 200 149 247 b 194 468 171 357 182 413 b 222 608 206 524 215 571 b 225 636 224 618 225 626 b 194 722 225 667 215 696 l 193 724 b 192 726 193 725 192 725 b 188 733 190 728 189 731 b 169 763 182 740 176 750 b 151 801 163 775 156 788 b 143 840 146 814 143 828 b 147 864 143 849 144 857 b 188 906 154 882 167 896 b 285 918 207 914 239 918 l 1279 918 l 1181 732 b 1132 840 1171 781 1156 817 b 1054 885 1108 864 1083 878 b 979 894 1025 892 1000 894 l 847 894 b 811 879 833 894 821 889 b 796 842 801 869 796 857 l 796 393 l 844 393 b 964 426 881 393 921 404 b 1064 514 1007 449 1040 478 l 1064 249 b 963 336 1039 286 1006 315 b 844 368 919 357 881 368 l 796 368 l 796 -35 "},"ç":{"ha":1163,"x_min":0,"x_max":0,"o":"m 664 904 b 458 826 589 904 521 878 b 492 832 469 831 481 832 l 493 832 b 614 696 547 832 588 786 b 756 424 654 568 701 478 b 846 385 782 397 813 385 b 943 431 882 385 914 400 l 946 433 b 990 571 975 471 990 517 b 960 704 990 614 981 658 b 861 833 939 750 906 793 b 857 836 860 835 858 835 b 849 842 856 838 853 840 b 664 904 792 883 731 904 m 651 -287 b 360 -206 544 -285 447 -258 b 139 15 267 -151 193 -78 b 57 319 85 107 57 208 b 139 626 57 432 85 533 b 360 846 193 718 267 792 b 664 928 451 900 553 928 b 875 892 738 928 808 915 b 1053 788 940 867 1000 832 b 1135 678 1089 754 1117 718 b 1163 557 1153 638 1163 597 b 1111 407 1163 503 1146 453 b 1013 339 1082 372 1049 349 b 919 322 976 328 946 322 b 890 324 908 322 899 322 b 888 324 889 324 889 324 b 883 325 886 324 885 324 b 875 326 879 325 876 325 l 872 326 b 590 689 750 358 656 479 b 493 808 567 768 535 808 l 492 808 b 374 736 456 808 417 785 b 331 667 358 715 343 692 l 314 633 b 250 319 271 540 250 436 b 306 26 250 213 268 114 b 456 -185 343 -62 393 -133 b 664 -264 518 -237 588 -264 b 819 -236 718 -264 769 -254 b 943 -143 869 -218 911 -186 b 990 32 975 -100 990 -42 l 990 43 l 1147 -49 b 938 -224 1090 -122 1021 -181 b 676 -287 858 -264 771 -286 l 676 -461 b 825 -506 736 -464 785 -479 b 883 -606 864 -533 883 -567 b 819 -707 883 -646 863 -679 b 664 -750 776 -736 724 -750 b 528 -718 613 -750 567 -739 b 450 -637 488 -697 463 -671 l 471 -626 b 539 -697 481 -656 503 -679 b 664 -726 574 -717 615 -726 b 803 -690 718 -726 764 -714 b 860 -606 840 -667 860 -639 b 807 -522 860 -574 842 -546 b 676 -485 772 -500 728 -487 l 651 -485 l 651 -287 "},"è":{"ha":790,"x_min":0,"x_max":0,"o":"m 490 -254 b 692 -92 556 -254 668 -240 l 790 -278 l 57 -278 b 115 -192 92 -264 115 -229 l 115 832 b 99 883 115 850 110 868 b 57 918 89 899 75 911 l 790 918 l 692 732 b 490 894 668 881 556 894 l 358 894 b 307 842 331 894 307 871 l 307 393 l 356 393 b 575 514 428 393 532 443 l 575 249 b 356 368 529 324 428 368 l 307 368 l 307 -203 b 358 -254 307 -231 331 -254 m 321 1197 l 497 975 l 483 963 l 297 1178 "},"é":{"ha":790,"x_min":0,"x_max":0,"o":"m 490 -254 b 692 -92 556 -254 668 -240 l 790 -278 l 57 -278 b 115 -192 92 -264 115 -229 l 115 832 b 99 883 115 850 110 868 b 57 918 89 899 75 911 l 790 918 l 692 732 b 490 894 668 881 556 894 l 358 894 b 307 842 331 894 307 871 l 307 393 l 356 393 b 575 514 428 393 532 443 l 575 249 b 356 368 529 324 428 368 l 307 368 l 307 -203 b 358 -254 307 -231 331 -254 m 378 963 l 364 975 l 540 1197 l 564 1178 "},"ê":{"ha":790,"x_min":0,"x_max":0,"o":"m 490 -254 b 692 -92 556 -254 668 -240 l 790 -278 l 57 -278 b 115 -192 92 -264 115 -229 l 115 832 b 99 883 115 850 110 868 b 57 918 89 899 75 911 l 790 918 l 692 732 b 490 894 668 881 556 894 l 358 894 b 307 842 331 894 307 871 l 307 393 l 356 393 b 575 514 428 393 532 443 l 575 249 b 356 368 529 324 428 368 l 307 368 l 307 -203 b 358 -254 307 -231 331 -254 m 614 975 l 600 963 l 431 1144 l 263 963 l 247 975 l 431 1193 "},"ë":{"ha":790,"x_min":0,"x_max":0,"o":"m 490 -254 b 692 -92 556 -254 668 -240 l 790 -278 l 57 -278 b 115 -192 92 -264 115 -229 l 115 832 b 99 883 115 850 110 868 b 57 918 89 899 75 911 l 790 918 l 692 732 b 490 894 668 881 556 894 l 358 894 b 307 842 331 894 307 871 l 307 393 l 356 393 b 575 514 428 393 532 443 l 575 249 b 356 368 529 324 428 368 l 307 368 l 307 -203 b 358 -254 307 -231 331 -254 m 418 1051 b 328 963 418 1003 378 963 b 239 1051 279 963 239 1003 b 328 1140 239 1100 279 1140 b 418 1051 378 1140 418 1100 m 624 1051 b 533 963 624 1003 583 963 b 444 1051 485 963 444 1003 b 533 1140 444 1100 485 1140 b 624 1051 583 1140 624 1100 "},"ì":{"ha":365,"x_min":0,"x_max":0,"o":"m 365 918 b 307 832 331 903 307 869 l 307 -192 b 365 -278 307 -229 331 -264 l 57 -278 b 115 -192 92 -264 115 -229 l 115 832 b 57 918 115 869 92 903 m 101 1197 l 278 975 l 264 963 l 78 1178 "},"í":{"ha":365,"x_min":0,"x_max":0,"o":"m 365 918 b 307 832 331 903 307 869 l 307 -192 b 365 -278 307 -229 331 -264 l 57 -278 b 115 -192 92 -264 115 -229 l 115 832 b 57 918 115 869 92 903 m 158 963 l 144 975 l 321 1197 l 344 1178 "},"î":{"ha":365,"x_min":0,"x_max":0,"o":"m 365 918 b 307 832 331 903 307 869 l 307 -192 b 365 -278 307 -229 331 -264 l 57 -278 b 115 -192 92 -264 115 -229 l 115 832 b 57 918 115 869 92 903 m 394 975 l 381 963 l 211 1144 l 43 963 l 28 975 l 211 1193 "},"ï":{"ha":365,"x_min":0,"x_max":0,"o":"m 365 918 b 307 832 331 903 307 869 l 307 -192 b 365 -278 307 -229 331 -264 l 57 -278 b 115 -192 92 -264 115 -229 l 115 832 b 57 918 115 869 92 903 m 199 1051 b 108 963 199 1003 158 963 b 19 1051 60 963 19 1003 b 108 1140 19 1100 60 1140 b 199 1051 158 1140 199 1100 m 404 1051 b 314 963 404 1003 364 963 b 225 1051 265 963 225 1003 b 314 1140 225 1100 265 1140 b 404 1051 364 1140 404 1100 "},"ð":{"ha":1146,"x_min":0,"x_max":0,"o":"m 307 -12 b 368 -178 307 -75 328 -131 b 522 -264 408 -226 460 -254 b 550 -265 532 -265 542 -265 b 757 -186 626 -265 696 -239 b 900 25 817 -135 865 -64 b 953 318 935 113 953 211 b 843 728 953 479 917 615 b 558 901 769 839 675 897 l 556 901 b 378 826 485 900 425 875 b 307 649 331 778 307 718 l 307 331 l 421 331 l 421 307 l 307 307 m 114 832 b 99 883 114 850 108 868 b 57 918 89 899 75 911 l 307 918 l 307 813 b 415 892 333 843 369 869 b 561 925 460 914 508 925 b 881 843 688 925 793 897 b 1079 624 968 789 1033 715 b 1146 318 1124 532 1146 431 b 1076 13 1146 206 1122 104 b 872 -207 1029 -79 961 -153 b 551 -289 783 -261 676 -289 b 404 -249 494 -289 446 -275 b 307 -158 361 -222 329 -193 l 307 -278 l 57 -278 b 114 -192 94 -257 114 -229 l 114 307 l -114 307 l -114 331 l 114 331 "},"ñ":{"ha":851,"x_min":0,"x_max":0,"o":"m 786 -185 b 851 -278 786 -226 813 -264 l 608 -278 l 146 789 l 146 -185 b 211 -278 146 -226 172 -264 l 57 -278 b 122 -185 96 -264 122 -226 l 122 825 b 57 918 122 867 96 904 l 301 918 l 763 -150 l 763 825 b 697 918 763 867 736 904 l 851 918 b 786 825 813 904 786 867 m 272 1001 b 274 1006 272 1001 272 1003 b 282 1017 275 1008 278 1011 b 297 1032 286 1021 290 1026 b 307 1040 300 1035 304 1038 b 321 1049 311 1043 315 1046 b 351 1061 329 1054 339 1058 b 371 1065 357 1064 364 1064 b 390 1064 376 1065 385 1065 l 411 1060 b 431 1051 418 1058 425 1056 b 450 1042 438 1049 443 1044 l 465 1028 b 481 1015 469 1025 475 1019 l 486 1010 l 494 1006 b 508 997 499 1003 503 999 l 517 993 b 524 992 519 993 521 993 b 531 990 526 992 529 990 b 538 989 533 990 536 989 l 556 989 l 560 990 b 568 992 563 990 565 992 b 581 994 571 993 575 993 l 601 1007 b 617 1019 607 1011 613 1015 b 625 1026 619 1024 624 1025 l 629 1031 l 636 1025 b 635 1021 636 1025 635 1025 l 626 1008 b 613 993 622 1006 618 999 b 601 985 610 990 606 988 b 589 976 599 982 594 979 b 574 969 585 974 581 971 l 567 965 l 561 964 l 556 964 b 543 963 553 964 549 963 l 526 963 b 517 964 524 963 519 964 b 507 967 514 965 510 965 b 497 971 503 968 501 969 b 478 981 490 974 485 976 l 461 993 b 446 1006 456 997 451 1000 l 432 1017 b 418 1025 426 1021 422 1024 l 403 1033 l 388 1038 b 371 1039 382 1039 376 1039 l 356 1039 b 329 1029 347 1036 338 1033 b 318 1025 325 1028 321 1026 b 307 1018 314 1022 311 1021 b 292 1007 301 1014 296 1010 b 282 999 288 1004 285 1000 b 279 994 281 996 279 994 l 272 1001 "},"ò":{"ha":1272,"x_min":0,"x_max":0,"o":"m 713 926 b 1272 321 1026 901 1272 640 b 665 -287 1272 -15 1000 -287 b 57 321 329 -287 57 -15 b 665 928 57 656 329 928 b 700 926 676 928 689 928 m 250 321 b 489 -207 250 88 347 -114 b 660 -258 540 -242 600 -258 b 804 -224 710 -258 760 -247 b 876 -160 833 -208 860 -189 b 910 -49 900 -122 910 -85 b 821 157 910 32 863 103 b 672 303 779 208 725 256 b 432 678 554 408 432 515 b 440 754 432 701 435 728 b 493 851 449 794 468 826 b 250 321 350 760 250 557 m 910 -150 b 1079 321 1013 -44 1079 128 b 796 875 1079 579 961 797 b 681 900 760 892 719 900 b 588 883 649 900 617 894 b 464 750 528 861 479 817 b 456 679 458 725 456 701 b 689 321 456 526 574 422 b 839 171 742 274 797 225 b 935 -47 885 114 935 39 b 910 -150 935 -81 928 -115 m 556 1207 l 732 985 l 718 972 l 532 1188 "},"ó":{"ha":1272,"x_min":0,"x_max":0,"o":"m 713 926 b 1272 321 1026 901 1272 640 b 665 -287 1272 -15 1000 -287 b 57 321 329 -287 57 -15 b 665 928 57 656 329 928 b 700 926 676 928 689 928 m 250 321 b 489 -207 250 88 347 -114 b 660 -258 540 -242 600 -258 b 804 -224 710 -258 760 -247 b 876 -160 833 -208 860 -189 b 910 -49 900 -122 910 -85 b 821 157 910 32 863 103 b 672 303 779 208 725 256 b 432 678 554 408 432 515 b 440 754 432 701 435 728 b 493 851 449 794 468 826 b 250 321 350 760 250 557 m 910 -150 b 1079 321 1013 -44 1079 128 b 796 875 1079 579 961 797 b 681 900 760 892 719 900 b 588 883 649 900 617 894 b 464 750 528 861 479 817 b 456 679 458 725 456 701 b 689 321 456 526 574 422 b 839 171 742 274 797 225 b 935 -47 885 114 935 39 b 910 -150 935 -81 928 -115 m 613 972 l 599 985 l 775 1207 l 799 1188 "},"ô":{"ha":1272,"x_min":0,"x_max":0,"o":"m 713 926 b 1272 321 1026 901 1272 640 b 665 -287 1272 -15 1000 -287 b 57 321 329 -287 57 -15 b 665 928 57 656 329 928 b 700 926 676 928 689 928 m 250 321 b 489 -207 250 88 347 -114 b 660 -258 540 -242 600 -258 b 804 -224 710 -258 760 -247 b 876 -160 833 -208 860 -189 b 910 -49 900 -122 910 -85 b 821 157 910 32 863 103 b 672 303 779 208 725 256 b 432 678 554 408 432 515 b 440 754 432 701 435 728 b 493 851 449 794 468 826 b 250 321 350 760 250 557 m 910 -150 b 1079 321 1013 -44 1079 128 b 796 875 1079 579 961 797 b 681 900 760 892 719 900 b 588 883 649 900 617 894 b 464 750 528 861 479 817 b 456 679 458 725 456 701 b 689 321 456 526 574 422 b 839 171 742 274 797 225 b 935 -47 885 114 935 39 b 910 -150 935 -81 928 -115 m 849 985 l 835 972 l 665 1154 l 497 972 l 482 985 l 665 1203 "},"õ":{"ha":1272,"x_min":0,"x_max":0,"o":"m 713 926 b 1272 321 1026 901 1272 640 b 665 -287 1272 -15 1000 -287 b 57 321 329 -287 57 -15 b 665 928 57 656 329 928 b 700 926 676 928 689 928 m 250 321 b 489 -207 250 88 347 -114 b 660 -258 540 -242 600 -258 b 804 -224 710 -258 760 -247 b 876 -160 833 -208 860 -189 b 910 -49 900 -122 910 -85 b 821 157 910 32 863 103 b 672 303 779 208 725 256 b 432 678 554 408 432 515 b 440 754 432 701 435 728 b 493 851 449 794 468 826 b 250 321 350 760 250 557 m 910 -150 b 1079 321 1013 -44 1079 128 b 796 875 1079 579 961 797 b 681 900 760 892 719 900 b 588 883 649 900 617 894 b 464 750 528 861 479 817 b 456 679 458 725 456 701 b 689 321 456 526 574 422 b 839 171 742 274 797 225 b 935 -47 885 114 935 39 b 910 -150 935 -81 928 -115 m 483 1011 b 485 1015 483 1011 483 1013 b 493 1026 486 1018 489 1021 b 508 1042 497 1031 501 1036 b 518 1050 511 1044 515 1047 b 532 1058 522 1053 526 1056 b 563 1071 540 1064 550 1068 b 582 1075 568 1074 575 1074 b 601 1074 588 1075 596 1075 l 622 1069 b 642 1061 629 1068 636 1065 b 661 1051 649 1058 654 1054 l 676 1038 b 692 1025 681 1035 686 1029 l 697 1019 l 706 1015 b 719 1007 710 1013 714 1008 l 728 1003 b 735 1001 731 1003 732 1003 b 742 1000 738 1001 740 1000 b 749 999 744 1000 747 999 l 767 999 l 771 1000 b 779 1001 774 1000 776 1001 b 792 1004 782 1003 786 1003 l 813 1017 b 828 1029 818 1021 824 1025 b 836 1036 831 1033 835 1035 l 840 1040 l 847 1035 b 846 1031 847 1035 846 1035 l 838 1018 b 824 1003 833 1015 829 1008 b 813 994 821 1000 817 997 b 800 986 810 992 806 989 b 785 979 796 983 792 981 l 778 975 l 772 974 l 767 974 b 754 972 764 974 760 972 l 738 972 b 728 974 735 972 731 974 b 718 976 725 975 721 975 b 708 981 714 978 713 979 b 689 990 701 983 696 986 l 672 1003 b 657 1015 667 1007 663 1010 l 643 1026 b 629 1035 638 1031 633 1033 l 614 1043 l 599 1047 b 582 1049 593 1049 588 1049 l 567 1049 b 540 1039 558 1046 549 1043 b 529 1035 536 1038 532 1036 b 518 1028 525 1032 522 1031 b 503 1017 513 1024 507 1019 b 493 1008 499 1014 496 1010 b 490 1004 492 1006 490 1004 l 483 1011 "},"ö":{"ha":1272,"x_min":0,"x_max":0,"o":"m 713 926 b 1272 321 1026 901 1272 640 b 665 -287 1272 -15 1000 -287 b 57 321 329 -287 57 -15 b 665 928 57 656 329 928 b 700 926 676 928 689 928 m 250 321 b 489 -207 250 88 347 -114 b 660 -258 540 -242 600 -258 b 804 -224 710 -258 760 -247 b 876 -160 833 -208 860 -189 b 910 -49 900 -122 910 -85 b 821 157 910 32 863 103 b 672 303 779 208 725 256 b 432 678 554 408 432 515 b 440 754 432 701 435 728 b 493 851 449 794 468 826 b 250 321 350 760 250 557 m 910 -150 b 1079 321 1013 -44 1079 128 b 796 875 1079 579 961 797 b 681 900 760 892 719 900 b 588 883 649 900 617 894 b 464 750 528 861 479 817 b 456 679 458 725 456 701 b 689 321 456 526 574 422 b 839 171 742 274 797 225 b 935 -47 885 114 935 39 b 910 -150 935 -81 928 -115 m 653 1061 b 563 972 653 1013 613 972 b 474 1061 514 972 474 1013 b 563 1150 474 1110 514 1150 b 653 1061 613 1150 653 1110 m 858 1061 b 768 972 858 1013 818 972 b 679 1061 719 972 679 1013 b 768 1150 679 1110 719 1150 b 858 1061 818 1150 858 1110 "},"÷":{"ha":592,"x_min":0,"x_max":0,"o":"m 57 332 l 592 332 l 592 308 l 57 308 m 325 142 b 421 44 378 142 421 97 b 325 -51 421 -8 378 -51 b 228 44 271 -51 228 -8 b 325 142 228 97 271 142 m 325 499 b 228 594 271 499 228 542 b 325 692 228 649 271 692 b 421 594 378 692 421 649 b 325 499 421 542 378 499 "},"ø":{"ha":1271,"x_min":0,"x_max":0,"o":"m 664 928 b 1271 319 1000 928 1271 656 b 664 -287 1271 -15 1000 -287 l 664 -439 l 640 -439 l 640 -287 b 57 319 315 -275 57 -8 b 640 926 57 647 315 914 l 640 1078 l 664 1078 m 640 901 b 249 319 422 885 249 631 b 640 -262 249 8 422 -244 m 664 -264 b 1079 319 893 -264 1079 -3 b 664 903 1079 642 893 903 "},"ù":{"ha":847,"x_min":0,"x_max":0,"o":"m 847 918 b 782 782 785 899 782 797 l 782 50 b 449 -287 782 -135 633 -287 b 114 47 264 -287 114 -137 l 114 832 b 99 883 114 850 108 868 b 57 918 89 899 74 911 l 364 918 b 307 832 329 903 307 869 l 307 47 b 374 -156 307 -49 332 -114 b 533 -215 414 -197 471 -215 b 758 57 647 -215 758 -94 l 758 307 b 578 656 758 442 658 560 b 486 793 531 713 494 757 b 483 821 485 803 483 813 b 517 896 483 858 501 882 b 585 918 535 910 558 918 m 758 781 b 646 894 758 843 708 894 l 585 894 b 532 876 564 894 546 888 b 507 822 515 863 507 844 b 510 799 507 815 508 807 b 597 671 517 768 554 724 b 758 429 656 603 724 521 m 343 1197 l 519 975 l 506 963 l 319 1178 "},"ú":{"ha":847,"x_min":0,"x_max":0,"o":"m 847 918 b 782 782 785 899 782 797 l 782 50 b 449 -287 782 -135 633 -287 b 114 47 264 -287 114 -137 l 114 832 b 99 883 114 850 108 868 b 57 918 89 899 74 911 l 364 918 b 307 832 329 903 307 869 l 307 47 b 374 -156 307 -49 332 -114 b 533 -215 414 -197 471 -215 b 758 57 647 -215 758 -94 l 758 307 b 578 656 758 442 658 560 b 486 793 531 713 494 757 b 483 821 485 803 483 813 b 517 896 483 858 501 882 b 585 918 535 910 558 918 m 758 781 b 646 894 758 843 708 894 l 585 894 b 532 876 564 894 546 888 b 507 822 515 863 507 844 b 510 799 507 815 508 807 b 597 671 517 768 554 724 b 758 429 656 603 724 521 m 400 963 l 386 975 l 563 1197 l 586 1178 "},"û":{"ha":847,"x_min":0,"x_max":0,"o":"m 847 918 b 782 782 785 899 782 797 l 782 50 b 449 -287 782 -135 633 -287 b 114 47 264 -287 114 -137 l 114 832 b 99 883 114 850 108 868 b 57 918 89 899 74 911 l 364 918 b 307 832 329 903 307 869 l 307 47 b 374 -156 307 -49 332 -114 b 533 -215 414 -197 471 -215 b 758 57 647 -215 758 -94 l 758 307 b 578 656 758 442 658 560 b 486 793 531 713 494 757 b 483 821 485 803 483 813 b 517 896 483 858 501 882 b 585 918 535 910 558 918 m 758 781 b 646 894 758 843 708 894 l 585 894 b 532 876 564 894 546 888 b 507 822 515 863 507 844 b 510 799 507 815 508 807 b 597 671 517 768 554 724 b 758 429 656 603 724 521 m 636 975 l 622 963 l 453 1144 l 285 963 l 269 975 l 453 1193 "},"ü":{"ha":847,"x_min":0,"x_max":0,"o":"m 847 918 b 782 782 785 899 782 797 l 782 50 b 449 -287 782 -135 633 -287 b 114 47 264 -287 114 -137 l 114 832 b 99 883 114 850 108 868 b 57 918 89 899 74 911 l 364 918 b 307 832 329 903 307 869 l 307 47 b 374 -156 307 -49 332 -114 b 533 -215 414 -197 471 -215 b 758 57 647 -215 758 -94 l 758 307 b 578 656 758 442 658 560 b 486 793 531 713 494 757 b 483 821 485 803 483 813 b 517 896 483 858 501 882 b 585 918 535 910 558 918 m 758 781 b 646 894 758 843 708 894 l 585 894 b 532 876 564 894 546 888 b 507 822 515 863 507 844 b 510 799 507 815 508 807 b 597 671 517 768 554 724 b 758 429 656 603 724 521 m 440 1051 b 350 963 440 1003 400 963 b 261 1051 301 963 261 1003 b 350 1140 261 1100 301 1140 b 440 1051 400 1140 440 1100 m 646 1051 b 556 963 646 1003 606 963 b 467 1051 507 963 467 1003 b 556 1140 467 1100 507 1140 b 646 1051 606 1140 646 1100 "},"ý":{"ha":867,"x_min":0,"x_max":0,"o":"m 867 918 b 771 828 824 903 789 869 l 590 394 b 563 256 572 351 563 304 l 563 -192 b 579 -243 563 -210 568 -228 b 621 -278 589 -258 603 -271 l 313 -278 b 371 -192 347 -264 371 -229 l 371 192 b 332 379 371 257 357 321 l 135 839 b 104 886 128 857 117 872 b 57 918 90 899 75 910 l 365 918 b 338 871 347 908 338 889 b 342 849 338 863 339 856 l 550 360 l 747 833 b 753 858 751 842 753 850 b 713 918 753 883 738 908 m 410 963 l 396 975 l 572 1197 l 596 1178 "},"þ":{"ha":882,"x_min":0,"x_max":0,"o":"m 307 776 b 399 882 325 815 356 850 b 554 929 442 914 494 929 b 740 878 629 929 692 913 b 847 750 789 843 824 801 b 882 596 871 699 882 647 b 850 457 882 553 871 506 b 746 329 828 407 793 364 b 557 276 697 294 635 276 l 544 276 b 397 325 485 281 436 296 b 307 429 358 354 328 389 l 307 -192 b 364 -278 307 -229 326 -257 l 57 -278 b 114 -192 94 -257 114 -229 l 114 832 l 115 1014 b 57 1100 115 1051 96 1081 l 365 1100 b 307 1014 326 1081 307 1051 l 307 776 m 307 510 b 357 396 307 469 324 432 b 465 332 389 360 425 339 b 490 331 475 331 483 331 b 613 376 543 331 583 346 b 672 490 642 407 661 444 b 689 626 683 536 689 581 b 665 740 689 663 681 700 b 597 840 649 779 626 813 b 493 882 568 868 533 882 b 463 879 483 882 472 881 l 461 879 b 350 807 415 868 378 844 b 307 682 321 769 307 728 l 307 510 "},"ÿ":{"ha":867,"x_min":0,"x_max":0,"o":"m 867 918 b 771 828 824 903 789 869 l 590 394 b 563 256 572 351 563 304 l 563 -192 b 579 -243 563 -210 568 -228 b 621 -278 589 -258 603 -271 l 313 -278 b 371 -192 347 -264 371 -229 l 371 192 b 332 379 371 257 357 321 l 135 839 b 104 886 128 857 117 872 b 57 918 90 899 75 910 l 365 918 b 338 871 347 908 338 889 b 342 849 338 863 339 856 l 550 360 l 747 833 b 753 858 751 842 753 850 b 713 918 753 883 738 908 m 450 1051 b 360 963 450 1003 410 963 b 271 1051 311 963 271 1003 b 360 1140 271 1100 311 1140 b 450 1051 410 1140 450 1100 m 656 1051 b 565 963 656 1003 615 963 b 476 1051 517 963 476 1003 b 565 1140 476 1100 517 1140 b 656 1051 615 1140 656 1100 "},"ı":{"ha":365,"x_min":0,"x_max":0,"o":"m 365 918 b 307 832 331 903 307 869 l 307 -192 b 365 -278 307 -229 331 -264 l 57 -278 b 115 -192 92 -264 115 -229 l 115 832 b 57 918 115 869 92 903 "},"̀":{"ha":257,"x_min":0,"x_max":0,"o":"m 81 1224 l 257 1001 l 243 989 l 57 1204 "},"́":{"ha":257,"x_min":0,"x_max":0,"o":"m 71 989 l 57 1001 l 233 1224 l 257 1204 "},"̂":{"ha":424,"x_min":0,"x_max":0,"o":"m 424 1001 l 410 989 l 240 1171 l 72 989 l 57 1001 l 240 1219 "},"̃":{"ha":421,"x_min":0,"x_max":0,"o":"m 57 1028 b 58 1032 57 1028 57 1029 b 67 1043 60 1035 63 1038 b 82 1058 71 1047 75 1053 b 92 1067 85 1061 89 1064 b 106 1075 96 1069 100 1072 b 136 1088 114 1081 124 1085 b 156 1092 142 1090 149 1090 b 175 1090 161 1092 169 1092 l 196 1086 b 215 1078 203 1085 210 1082 b 235 1068 222 1075 228 1071 l 250 1054 b 265 1042 254 1051 260 1046 l 271 1036 l 279 1032 b 293 1024 283 1029 288 1025 l 301 1019 b 308 1018 304 1019 306 1019 b 315 1017 311 1018 314 1017 b 322 1015 318 1017 321 1015 l 340 1015 l 344 1017 b 353 1018 347 1017 350 1018 b 365 1021 356 1019 360 1019 l 386 1033 b 401 1046 392 1038 397 1042 b 410 1053 404 1050 408 1051 l 414 1057 l 421 1051 b 419 1047 421 1051 419 1051 l 411 1035 b 397 1019 407 1032 403 1025 b 386 1011 394 1017 390 1014 b 374 1003 383 1008 379 1006 b 358 996 369 1000 365 997 l 351 992 l 346 990 l 340 990 b 328 989 338 990 333 989 l 311 989 b 301 990 308 989 304 990 b 292 993 299 992 294 992 b 282 997 288 994 286 996 b 263 1007 275 1000 269 1003 l 246 1019 b 231 1032 240 1024 236 1026 l 217 1043 b 203 1051 211 1047 207 1050 l 188 1060 l 172 1064 b 156 1065 167 1065 161 1065 l 140 1065 b 114 1056 132 1063 122 1060 b 103 1051 110 1054 106 1053 b 92 1044 99 1049 96 1047 b 76 1033 86 1040 81 1036 b 67 1025 72 1031 69 1026 b 64 1021 65 1022 64 1021 l 57 1028 "},"̄":{"ha":357,"x_min":0,"x_max":0,"o":"m 57 1008 l 357 1008 l 357 989 l 57 989 "},"̇":{"ha":236,"x_min":0,"x_max":0,"o":"m 236 1078 b 146 989 236 1029 196 989 b 57 1078 97 989 57 1029 b 146 1167 57 1126 97 1167 b 236 1078 196 1167 236 1126 "},"̈":{"ha":442,"x_min":0,"x_max":0,"o":"m 236 1078 b 146 989 236 1029 196 989 b 57 1078 97 989 57 1029 b 146 1167 57 1126 97 1167 b 236 1078 196 1167 236 1126 m 442 1078 b 351 989 442 1029 401 989 b 263 1078 303 989 263 1029 b 351 1167 263 1126 303 1167 b 442 1078 401 1167 442 1126 "},"̊":{"ha":329,"x_min":0,"x_max":0,"o":"m 193 947 b 57 1083 118 947 57 1008 b 193 1219 57 1158 118 1219 b 329 1083 268 1219 329 1158 b 193 947 329 1008 268 947 m 193 1200 b 86 1083 128 1200 86 1147 b 193 967 86 1018 128 967 b 300 1083 257 967 300 1018 b 193 1200 300 1147 257 1200 "},"̌":{"ha":424,"x_min":0,"x_max":0,"o":"m 57 1207 l 72 1219 l 240 1036 l 410 1219 l 424 1207 l 240 989 "},"̧":{"ha":490,"x_min":0,"x_max":0,"o":"m 283 -157 b 490 -301 399 -161 490 -224 b 271 -446 490 -381 392 -446 b 57 -333 167 -446 79 -397 l 78 -322 b 271 -422 94 -379 175 -422 b 467 -301 379 -422 467 -368 b 283 -181 467 -237 385 -185 l 258 -181 l 258 36 l 283 36 "},"–":{"ha":592,"x_min":0,"x_max":0,"o":"m 57 332 l 592 332 l 592 308 l 57 308 "},"—":{"ha":843,"x_min":0,"x_max":0,"o":"m 57 332 l 843 332 l 843 308 l 57 308 "},"‘":{"ha":250,"x_min":0,"x_max":0,"o":"m 57 706 b 190 918 57 738 65 869 b 163 860 190 918 172 894 b 161 844 163 854 161 850 b 197 785 161 821 176 797 b 250 700 229 769 250 736 b 249 688 250 696 250 692 b 165 604 244 643 208 608 b 154 603 163 603 158 603 b 57 700 101 603 57 646 "},"’":{"ha":250,"x_min":0,"x_max":0,"o":"m 250 814 b 117 603 250 783 243 650 b 144 661 117 603 135 626 b 146 675 146 665 146 671 b 110 736 146 700 132 724 b 57 821 79 751 57 783 b 58 833 57 825 58 829 b 142 917 63 878 99 913 b 153 918 146 917 150 918 b 250 821 207 918 250 874 "},"‚":{"ha":250,"x_min":0,"x_max":0,"o":"m 250 -190 b 118 -400 250 -224 242 -353 b 144 -343 118 -400 136 -378 b 147 -326 146 -337 147 -332 b 110 -268 147 -301 132 -279 b 57 -182 79 -251 57 -219 b 58 -169 57 -178 58 -174 b 143 -86 64 -126 100 -90 b 154 -85 147 -86 151 -85 b 250 -182 208 -85 250 -129 "},"“":{"ha":472,"x_min":0,"x_max":0,"o":"m 57 706 b 190 918 57 738 65 869 b 163 860 190 918 172 894 b 161 844 163 854 161 850 b 197 785 161 821 176 797 b 250 700 229 769 250 736 b 249 688 250 696 250 692 b 165 604 244 643 208 608 b 154 603 163 603 158 603 b 57 700 101 603 57 646 m 279 706 b 413 918 279 738 288 869 b 385 860 413 918 394 894 b 383 844 385 854 383 850 b 419 785 383 821 399 797 b 472 700 451 769 472 736 b 471 688 472 696 472 692 b 388 604 467 643 431 608 b 376 603 385 603 381 603 b 279 700 324 603 279 646 "},"”":{"ha":472,"x_min":0,"x_max":0,"o":"m 472 814 b 339 603 472 783 465 650 b 367 661 339 603 357 626 b 368 675 368 665 368 671 b 332 736 368 700 354 724 b 279 821 301 751 279 783 b 281 833 279 825 281 829 b 364 917 285 878 321 913 b 375 918 368 917 372 918 b 472 821 429 918 472 874 m 250 814 b 117 603 250 783 243 650 b 144 661 117 603 135 626 b 146 675 146 665 146 671 b 110 736 146 700 132 724 b 57 821 79 751 57 783 b 58 833 57 825 58 829 b 142 917 63 878 99 913 b 153 918 146 917 150 918 b 250 821 207 918 250 874 "},"„":{"ha":461,"x_min":0,"x_max":0,"o":"m 461 -190 b 329 -400 461 -224 453 -353 b 356 -343 329 -400 347 -378 b 358 -326 357 -337 358 -332 b 321 -268 358 -301 343 -279 b 268 -182 290 -251 268 -219 b 269 -169 268 -178 269 -174 b 354 -86 275 -126 311 -90 b 365 -85 358 -86 363 -85 b 461 -182 419 -85 461 -129 m 250 -190 b 118 -400 250 -224 242 -353 b 144 -343 118 -400 136 -378 b 147 -326 146 -337 147 -332 b 110 -268 147 -301 132 -279 b 57 -182 79 -251 57 -219 b 58 -169 57 -178 58 -174 b 143 -86 64 -126 100 -90 b 154 -85 147 -86 151 -85 b 250 -182 208 -85 250 -129 "},"†":{"ha":735,"x_min":0,"x_max":0,"o":"m 408 594 l 735 594 l 735 571 l 408 571 l 408 -278 l 383 -278 l 383 571 l 57 571 l 57 594 l 383 594 l 383 918 l 408 918 "},"‡":{"ha":735,"x_min":0,"x_max":0,"o":"m 408 594 l 735 594 l 735 571 l 408 571 l 408 124 l 735 124 l 735 100 l 408 100 l 408 -278 l 383 -278 l 383 100 l 57 100 l 57 124 l 383 124 l 383 571 l 57 571 l 57 594 l 383 594 l 383 918 l 408 918 "},"•":{"ha":460,"x_min":0,"x_max":0,"o":"m 258 286 b 115 344 201 286 154 306 b 57 488 76 383 57 432 b 117 629 57 543 78 590 b 258 688 156 668 203 688 b 400 628 314 688 361 668 b 460 488 439 589 460 542 b 400 344 460 432 439 385 b 258 286 360 306 313 286 "},"…":{"ha":1389,"x_min":0,"x_max":0,"o":"m 250 -182 b 153 -278 250 -235 207 -278 b 57 -182 100 -278 57 -235 b 153 -85 57 -128 100 -85 b 250 -182 207 -85 250 -128 m 713 -182 b 615 -278 713 -235 669 -278 b 519 -182 563 -278 519 -235 b 615 -85 519 -128 563 -85 b 713 -182 669 -85 713 -128 m 1175 -182 b 1078 -278 1175 -235 1132 -278 b 982 -182 1025 -278 982 -235 b 1078 -85 982 -128 1025 -85 b 1175 -182 1132 -85 1175 -128 "},"‹":{"ha":400,"x_min":0,"x_max":0,"o":"m 108 319 l 400 164 l 400 138 l 57 319 l 400 503 l 400 475 "},"›":{"ha":400,"x_min":0,"x_max":0,"o":"m 349 319 l 57 475 l 57 503 l 400 319 l 57 138 l 57 164 "},"⁄":{"ha":528,"x_min":0,"x_max":0,"o":"m 82 -278 l 57 -278 l 503 918 l 528 918 "},"₣":{"ha":844,"x_min":0,"x_max":0,"o":"m 746 732 b 544 894 722 881 610 894 l 394 894 b 343 843 365 894 343 871 l 343 367 l 493 367 l 493 343 l 343 343 l 343 -71 b 347 -108 343 -83 344 -96 b 504 -247 367 -203 433 -247 b 669 -124 572 -247 644 -203 b 682 -32 678 -97 682 -68 l 815 -160 b 493 -278 815 -160 686 -278 b 150 49 306 -278 150 -131 l 150 343 l 57 343 l 57 367 l 150 367 l 150 832 b 93 918 150 869 128 904 l 844 918 "},"₤":{"ha":838,"x_min":0,"x_max":0,"o":"m 538 -254 b 739 -92 603 -254 715 -240 l 838 -278 l 86 -278 b 143 -192 121 -264 143 -229 l 143 208 l 57 208 l 57 233 l 143 233 l 143 314 l 57 314 l 57 339 l 143 339 l 143 592 b 486 918 143 771 299 918 b 807 800 679 918 807 800 l 675 672 b 663 764 675 708 669 738 b 496 888 638 843 565 888 b 339 749 426 888 358 843 b 336 711 338 736 336 724 l 336 339 l 494 339 l 494 314 l 336 314 l 336 233 l 494 233 l 494 208 l 336 208 l 336 -203 b 388 -254 336 -231 358 -254 "},"₧":{"ha":2233,"x_min":0,"x_max":0,"o":"m 504 929 b 800 596 707 929 800 749 b 507 276 800 465 717 276 l 496 276 b 282 429 388 281 321 350 l 282 -192 b 333 -278 282 -229 301 -262 l 57 -278 b 108 -192 88 -262 108 -229 l 108 832 b 57 918 108 869 88 904 l 333 918 b 282 832 301 904 282 869 l 282 776 b 504 929 313 850 396 929 m 425 332 b 447 331 432 331 440 331 b 625 626 589 331 625 490 b 450 882 625 733 556 882 b 422 879 440 882 432 882 l 421 879 b 282 682 338 858 282 775 l 282 510 b 425 332 282 429 357 340 m 1585 918 l 1486 732 b 1303 893 1464 867 1369 890 b 1285 894 1297 893 1290 894 l 869 894 b 801 865 844 894 818 883 b 782 817 788 851 782 833 b 807 753 782 793 792 769 b 854 732 821 738 838 732 b 907 747 876 732 899 742 b 915 753 910 750 913 751 b 949 783 928 761 938 772 b 990 819 961 796 974 810 b 1072 851 1013 835 1040 844 b 1085 854 1076 853 1081 854 b 1104 857 1090 856 1097 857 b 1150 861 1121 860 1136 861 l 1153 861 b 1215 851 1175 860 1196 857 b 1267 783 1246 843 1267 815 l 1267 -192 b 1283 -243 1267 -210 1272 -228 b 1325 -278 1293 -258 1307 -271 l 1017 -278 b 1075 -192 1051 -264 1075 -229 l 1075 760 b 1028 807 1075 788 1053 807 b 1003 800 1019 807 1011 804 b 967 767 989 792 978 779 b 929 733 956 756 943 743 b 919 726 926 731 922 729 b 854 708 897 714 875 708 b 789 738 829 708 806 718 b 758 817 769 758 758 788 b 783 882 758 840 765 863 b 869 918 806 904 838 918 m 2104 332 b 2233 69 2193 264 2233 167 b 2182 -117 2233 4 2215 -60 b 1844 -287 2126 -208 2033 -287 b 1483 -7 1653 -287 1532 -164 l 1667 94 b 1644 -24 1657 71 1644 28 b 1667 -139 1644 -58 1650 -99 b 1868 -264 1700 -218 1782 -264 l 1879 -264 b 2081 -128 1949 -260 2039 -218 b 2104 -22 2096 -92 2104 -56 b 1979 183 2104 65 2054 140 l 1613 417 b 1482 642 1521 483 1482 564 b 1667 896 1482 747 1554 847 b 1671 897 1668 896 1669 897 b 1786 918 1708 911 1747 918 l 2194 918 l 2096 732 b 1913 893 2074 867 1979 890 b 1893 894 1907 893 1900 894 l 1813 894 b 1656 794 1746 894 1682 857 b 1642 728 1646 774 1642 750 b 1710 596 1642 681 1663 632 "},"€":{"ha":1260,"x_min":0,"x_max":0,"o":"m 776 -264 b 1144 49 936 -264 1075 -137 l 1260 -47 b 776 -287 1150 -193 974 -287 b 171 278 456 -287 192 -37 l 57 278 l 57 301 l 169 301 l 169 319 b 176 414 169 351 172 383 l 57 414 l 57 438 l 181 438 b 776 918 236 715 482 918 l 1201 918 l 1139 801 l 1103 732 b 900 893 1078 879 965 893 l 776 893 b 371 438 576 893 410 701 l 592 438 l 592 414 l 367 414 b 363 319 364 383 363 351 l 363 301 l 592 301 l 592 278 l 363 278 b 776 -264 378 -25 557 -264 "},"№":{"ha":1678,"x_min":0,"x_max":0,"o":"m 786 -183 b 851 -278 786 -225 811 -262 l 607 -278 l 146 790 l 146 -183 b 211 -278 146 -225 172 -262 l 57 -278 b 122 -183 96 -262 122 -225 l 122 825 b 57 918 122 867 96 904 l 300 918 l 761 -149 l 761 825 b 697 918 761 867 736 904 l 851 918 b 786 825 811 904 786 867 m 997 -146 l 1532 -146 l 1532 -169 l 997 -169 m 982 400 b 1026 185 982 319 997 249 b 1144 39 1056 121 1096 72 b 1261 4 1182 17 1221 4 b 1360 28 1296 4 1328 13 b 1410 72 1381 38 1397 53 b 1432 147 1425 97 1432 122 b 1413 224 1432 175 1426 200 b 1371 288 1400 249 1386 269 b 1279 379 1343 319 1313 350 b 1269 388 1275 382 1272 385 b 1192 461 1243 411 1217 435 b 1131 543 1167 486 1146 514 b 1106 643 1114 574 1106 607 b 1111 696 1106 660 1108 676 b 1147 761 1118 722 1131 744 b 1028 617 1097 729 1057 682 b 982 400 997 553 982 481 m 1432 78 b 1517 217 1468 115 1496 161 b 1547 400 1538 274 1547 333 b 1494 635 1547 488 1531 567 b 1354 778 1458 703 1413 750 b 1275 794 1328 789 1303 794 b 1213 783 1254 794 1233 792 b 1128 693 1169 768 1142 738 b 1122 644 1124 675 1122 660 b 1146 550 1122 610 1131 578 b 1206 471 1161 522 1182 496 b 1282 400 1229 446 1254 422 b 1288 394 1283 397 1286 396 b 1383 297 1324 364 1356 332 b 1429 231 1400 278 1415 256 b 1449 149 1442 204 1449 178 b 1432 78 1449 125 1443 103 m 1297 813 b 1492 747 1369 807 1435 785 b 1629 599 1549 708 1594 660 b 1679 400 1663 539 1679 472 b 1624 192 1679 324 1661 254 b 1474 40 1586 129 1536 78 b 1265 -15 1411 3 1342 -15 b 1056 40 1189 -15 1119 3 b 906 192 993 78 943 129 b 850 400 868 254 850 324 b 906 608 850 476 868 546 b 1056 758 943 671 993 721 b 1265 814 1119 796 1189 814 b 1289 813 1274 814 1282 814 "},"™":{"ha":501,"x_min":0,"x_max":0,"o":"m 488 636 b 501 614 488 626 493 618 l 424 614 b 435 622 428 615 432 619 b 439 636 438 626 439 631 l 439 903 l 364 733 l 299 885 l 299 638 b 315 614 299 626 306 618 l 276 614 b 292 638 286 618 292 626 l 292 894 b 276 918 292 904 286 914 l 338 918 l 388 801 l 439 918 l 501 918 b 492 908 497 915 494 913 b 488 896 489 906 488 900 m 267 918 l 242 871 b 196 911 236 904 213 911 l 85 911 b 68 904 79 911 72 908 b 63 892 64 900 63 896 b 69 876 63 886 65 881 b 82 871 72 872 78 871 b 94 875 88 871 93 874 b 97 876 96 875 96 875 b 106 883 100 878 103 881 b 117 893 108 886 113 890 b 138 901 122 896 129 899 l 140 901 b 146 903 142 901 143 903 l 157 903 b 174 901 163 903 168 903 b 186 883 181 899 186 892 l 186 636 b 190 622 186 631 188 626 b 201 614 193 619 197 615 l 124 614 b 138 636 132 618 138 626 l 138 878 b 126 889 138 885 132 889 b 119 888 124 889 122 889 b 110 879 115 886 113 882 b 100 871 107 876 104 874 b 99 869 100 869 99 869 b 82 864 93 865 88 864 b 65 872 75 864 69 867 b 57 893 61 878 57 885 b 64 908 57 899 60 904 b 85 918 69 914 78 918 "},"−":{"ha":592,"x_min":0,"x_max":0,"o":"m 57 332 l 592 332 l 592 308 l 57 308 "},"≈":{"ha":421,"x_min":0,"x_max":0,"o":"m 57 254 b 58 258 57 254 57 256 b 67 269 60 261 63 264 b 82 285 71 274 75 279 b 92 293 85 288 89 290 b 106 301 96 296 100 299 b 136 314 114 307 124 311 b 156 318 142 317 149 317 b 175 317 161 318 169 318 l 196 313 b 215 304 203 311 210 308 b 235 294 222 301 228 297 l 250 281 b 265 268 254 278 260 272 l 271 263 l 279 258 b 293 250 283 256 288 251 l 301 246 b 308 244 304 246 306 246 b 315 243 311 244 314 243 b 322 242 318 243 321 242 l 340 242 l 344 243 b 353 244 347 243 350 244 b 365 247 356 246 360 246 l 386 260 b 401 272 392 264 397 268 b 410 279 404 276 408 278 l 414 283 l 421 278 b 419 274 421 278 419 278 l 411 261 b 397 246 407 258 403 251 b 386 238 394 243 390 240 b 374 229 383 235 379 232 b 358 222 369 226 365 224 l 351 218 l 346 217 l 340 217 b 328 215 338 217 333 215 l 311 215 b 301 217 308 215 304 217 b 292 219 299 218 294 218 b 282 224 288 221 286 222 b 263 233 275 226 269 229 l 246 246 b 231 258 240 250 236 253 l 217 269 b 203 278 211 274 207 276 l 188 286 l 172 290 b 156 292 167 292 161 292 l 140 292 b 114 282 132 289 122 286 b 103 278 110 281 106 279 b 92 271 99 275 96 274 b 76 260 86 267 81 263 b 67 251 72 257 69 253 b 64 247 65 249 64 247 l 57 254 m 57 358 b 58 363 57 358 57 360 b 67 374 60 365 63 368 b 82 389 71 378 75 383 b 92 397 85 392 89 394 b 106 406 96 400 100 403 b 136 418 114 411 124 415 b 156 422 142 421 149 421 b 175 421 161 422 169 422 l 196 417 b 215 408 203 415 210 413 b 235 399 222 406 228 401 l 250 385 b 265 372 254 382 260 376 l 271 367 l 279 363 b 293 354 283 360 288 356 l 301 350 b 308 349 304 350 306 350 b 315 347 311 349 314 347 b 322 346 318 347 321 346 l 340 346 l 344 347 b 353 349 347 347 350 349 b 365 351 356 350 360 350 l 386 364 b 401 376 392 368 397 372 b 410 383 404 381 408 382 l 414 388 l 421 382 b 419 378 421 382 419 382 l 411 365 b 397 350 407 363 403 356 b 386 342 394 347 390 344 b 374 333 383 339 379 336 b 358 326 369 331 365 328 l 351 322 l 346 321 l 340 321 b 328 319 338 321 333 319 l 311 319 b 301 321 308 319 304 321 b 292 324 299 322 294 322 b 282 328 288 325 286 326 b 263 338 275 331 269 333 l 246 350 b 231 363 240 354 236 357 l 217 374 b 203 382 211 378 207 381 l 188 390 l 172 394 b 156 396 167 396 161 396 l 140 396 b 114 386 132 393 122 390 b 103 382 110 385 106 383 b 92 375 99 379 96 378 b 76 364 86 371 81 367 b 67 356 72 361 69 357 b 64 351 65 353 64 351 l 57 358 "},"≤":{"ha":399,"x_min":0,"x_max":0,"o":"m 108 319 l 399 164 l 399 138 l 57 319 l 399 503 l 399 475 m 60 10 l 396 10 l 396 -14 l 60 -14 "},"≥":{"ha":399,"x_min":0,"x_max":0,"o":"m 57 503 l 399 319 l 57 138 l 57 164 l 347 319 l 57 475 m 60 10 l 396 10 l 396 -14 l 60 -14 "},"ﬁ":{"ha":1157,"x_min":0,"x_max":0,"o":"m 790 918 l 692 732 b 489 894 667 881 554 894 l 364 894 b 307 836 332 894 307 868 l 307 393 l 354 393 b 574 514 426 393 532 443 l 574 249 b 354 368 528 324 426 368 l 307 368 l 307 -192 b 322 -243 307 -210 313 -228 b 364 -278 332 -258 347 -271 l 57 -278 b 113 -206 88 -265 108 -237 b 114 -192 114 -201 114 -196 l 114 832 b 99 883 114 850 108 868 b 57 918 89 899 74 911 m 1156 918 b 1097 832 1121 903 1097 869 l 1097 -192 b 1156 -278 1097 -229 1121 -264 l 847 -278 b 906 -192 882 -264 906 -229 l 906 832 b 847 918 906 869 882 903 "},"ﬂ":{"ha":1492,"x_min":0,"x_max":0,"o":"m 790 918 l 692 732 b 489 894 667 881 554 894 l 364 894 b 307 836 332 894 307 868 l 307 393 l 354 393 b 574 514 426 393 532 443 l 574 249 b 354 368 528 324 426 368 l 307 368 l 307 -192 b 322 -243 307 -210 313 -228 b 364 -278 332 -258 347 -271 l 57 -278 b 113 -206 88 -265 108 -237 b 114 -192 114 -201 114 -196 l 114 832 b 99 883 114 850 108 868 b 57 918 89 899 74 911 m 904 832 b 889 883 904 850 899 868 b 847 918 879 899 864 911 l 1154 918 b 1097 832 1119 903 1097 869 l 1097 -203 b 1149 -254 1097 -231 1119 -254 l 1193 -254 b 1394 -92 1258 -254 1371 -240 l 1493 -278 l 847 -278 b 904 -192 882 -264 904 -229 "},"Œ":{"ha":1639,"x_min":0,"x_max":0,"o":"m 250 321 b 315 6 250 204 272 99 b 488 -207 358 -87 417 -158 b 658 -258 542 -242 599 -258 b 803 -224 708 -258 757 -247 b 876 -160 833 -208 858 -187 b 910 -49 899 -122 910 -85 b 882 65 910 -8 900 31 b 819 157 863 100 842 131 b 671 303 776 208 726 257 b 557 411 631 338 593 374 b 467 532 519 449 490 489 b 432 678 443 575 432 624 b 440 756 432 703 435 729 b 492 851 450 794 467 826 b 317 640 419 804 361 733 b 250 321 272 546 250 439 m 963 726 b 794 875 917 794 860 843 b 679 901 757 893 719 901 b 586 883 647 901 617 896 b 463 750 524 863 482 818 b 454 681 457 726 454 703 b 489 542 454 629 465 583 b 576 425 513 500 542 461 b 688 321 611 389 649 354 b 699 311 692 318 694 315 b 839 172 750 268 796 221 b 904 74 863 143 883 111 b 933 -49 924 36 933 -6 b 910 -150 933 -81 925 -115 b 963 -85 929 -131 946 -108 l 963 726 m 961 -210 b 664 -286 871 -261 772 -286 b 358 -204 551 -286 450 -258 b 139 15 267 -150 193 -76 b 57 321 85 107 57 208 b 139 628 57 433 85 535 b 358 847 193 719 267 793 b 664 929 450 901 551 929 b 699 928 676 929 688 929 l 713 928 l 713 926 b 961 851 803 918 886 893 b 947 883 958 863 954 874 b 906 918 938 899 924 911 l 1639 918 l 1540 732 b 1492 840 1531 781 1515 817 b 1414 885 1468 864 1442 878 b 1338 894 1385 892 1360 894 l 1207 894 b 1171 879 1193 894 1181 889 b 1156 843 1161 869 1156 857 l 1156 679 b 1197 614 1171 658 1185 636 b 1267 404 1233 549 1257 478 b 1322 426 1285 408 1303 417 b 1422 514 1365 449 1399 478 l 1422 249 b 1322 338 1399 286 1365 317 b 1271 358 1304 346 1288 353 b 1272 321 1272 346 1272 333 b 1190 15 1272 208 1244 107 b 1156 -37 1179 -3 1168 -21 l 1156 -201 b 1171 -237 1156 -217 1161 -228 b 1207 -253 1181 -247 1193 -253 l 1338 -253 b 1414 -243 1360 -253 1385 -250 b 1492 -199 1442 -236 1468 -222 b 1540 -92 1515 -175 1531 -140 l 1639 -278 l 906 -278 b 961 -210 938 -261 956 -237 "},"œ":{"ha":1868,"x_min":0,"x_max":0,"o":"m 250 321 b 315 6 250 204 272 99 b 489 -207 358 -87 417 -158 b 660 -258 543 -242 600 -258 b 804 -224 710 -258 758 -247 b 876 -160 835 -208 858 -187 b 910 -49 899 -122 910 -85 b 882 64 910 -8 900 29 b 821 157 864 99 843 131 b 685 292 781 204 735 249 b 672 303 681 296 676 299 b 558 411 632 338 594 374 b 468 532 521 449 492 489 b 432 678 444 575 432 624 b 440 754 432 701 435 728 b 493 851 450 794 467 826 b 317 640 419 804 361 733 b 250 321 272 546 250 439 m 910 -150 b 1033 54 961 -96 1003 -28 b 1079 321 1064 136 1079 225 b 1001 665 1079 450 1053 565 b 796 875 949 764 881 835 b 681 900 758 892 719 900 b 588 883 649 900 618 894 b 464 750 525 861 483 817 b 456 679 458 725 456 701 b 490 542 456 628 467 582 b 578 425 514 500 543 461 b 689 321 613 389 650 354 b 699 313 692 318 694 315 b 839 171 750 269 797 222 b 906 72 863 142 885 110 b 935 -47 925 35 935 -4 b 910 -150 935 -81 926 -115 m 1193 19 b 1190 15 1192 18 1192 17 b 971 -204 1136 -76 1063 -150 b 665 -287 879 -260 778 -287 b 360 -204 553 -287 451 -260 b 139 15 267 -150 193 -76 b 57 321 85 107 57 208 b 139 626 57 433 85 535 b 360 846 193 718 267 792 b 665 928 451 900 553 928 b 700 926 678 928 689 928 l 713 926 b 997 829 818 917 913 885 b 1193 622 1079 775 1144 707 l 1193 832 b 1176 883 1193 850 1188 868 b 1136 918 1167 899 1154 911 l 1868 918 l 1769 732 b 1722 840 1761 781 1746 817 b 1644 885 1699 864 1672 878 b 1568 894 1615 892 1590 894 l 1438 894 b 1401 879 1422 894 1411 889 b 1386 842 1392 869 1386 857 l 1386 393 l 1433 393 b 1553 426 1469 393 1510 404 b 1653 514 1596 449 1629 478 l 1653 249 b 1551 336 1628 286 1594 315 b 1433 368 1508 357 1469 368 l 1386 368 l 1386 -203 b 1401 -239 1386 -217 1392 -229 b 1438 -254 1411 -249 1422 -254 l 1568 -254 b 1644 -244 1590 -254 1615 -251 b 1722 -200 1672 -237 1699 -224 b 1769 -92 1746 -176 1761 -140 l 1868 -278 l 1136 -278 b 1193 -192 1174 -258 1193 -229 l 1193 19 "},"Š":{"ha":808,"x_min":0,"x_max":0,"o":"m 678 332 b 776 213 722 297 756 258 b 808 69 797 167 808 118 b 756 -115 808 4 790 -57 b 686 -200 738 -146 714 -174 b 578 -262 657 -226 621 -247 b 418 -287 535 -279 481 -287 b 251 -250 354 -287 299 -275 b 131 -149 203 -225 163 -192 b 58 -6 99 -107 74 -60 l 240 94 b 225 46 235 82 229 67 b 218 -24 221 25 218 3 b 240 -137 218 -58 225 -97 b 321 -229 258 -178 285 -208 b 439 -262 357 -251 396 -262 l 453 -262 b 565 -228 490 -261 528 -250 b 654 -126 603 -206 633 -172 b 678 -21 669 -89 678 -54 b 554 185 678 67 636 135 l 188 418 b 89 526 142 451 110 488 b 57 643 68 565 57 604 b 107 790 57 694 74 744 b 242 896 139 836 185 871 b 243 897 242 897 242 897 b 244 897 243 897 243 897 b 246 899 244 899 244 899 b 361 918 283 911 321 918 l 768 918 l 669 732 b 596 863 657 797 632 842 b 488 894 558 883 522 894 l 388 894 b 294 868 353 894 322 886 b 229 796 265 850 244 826 b 215 729 219 775 215 753 b 232 658 215 706 221 682 b 285 596 243 635 261 614 m 249 1207 l 264 1219 l 432 1036 l 601 1219 l 615 1207 l 432 989 "},"š":{"ha":808,"x_min":0,"x_max":0,"o":"m 679 332 b 808 69 768 264 808 167 b 757 -117 808 4 790 -60 b 419 -287 701 -208 608 -287 b 58 -7 228 -287 107 -164 l 242 94 b 219 -24 232 71 219 28 b 242 -139 219 -58 225 -99 b 443 -264 275 -218 357 -264 l 454 -264 b 656 -128 524 -260 614 -218 b 679 -22 671 -92 679 -56 b 554 183 679 65 629 140 l 188 417 b 57 642 97 483 57 564 b 242 896 57 747 129 847 b 246 897 243 896 244 897 b 361 918 283 911 322 918 l 769 918 l 671 732 b 488 893 649 867 554 890 b 468 894 482 893 475 894 l 388 894 b 231 794 321 894 257 857 b 217 728 221 774 217 750 b 285 596 217 681 238 632 m 250 1181 l 265 1193 l 433 1010 l 603 1193 l 617 1181 l 433 963 "},"Ÿ":{"ha":865,"x_min":0,"x_max":0,"o":"m 865 918 b 771 828 822 903 788 871 l 590 394 b 563 257 572 351 563 304 l 563 -192 b 578 -243 563 -210 568 -228 b 619 -278 588 -258 603 -269 l 313 -278 b 369 -192 347 -262 369 -229 l 369 193 b 331 379 369 257 357 321 l 135 840 b 103 886 126 857 117 874 b 57 918 90 900 74 911 l 364 918 b 336 871 346 908 336 890 b 340 849 336 864 338 856 l 549 360 l 747 835 b 753 858 750 843 753 850 b 711 918 753 883 736 908 m 449 1078 b 358 989 449 1029 408 989 b 269 1078 310 989 269 1029 b 358 1167 269 1126 310 1167 b 449 1078 408 1167 449 1126 m 654 1078 b 564 989 654 1029 614 989 b 475 1078 515 989 475 1029 b 564 1167 475 1126 515 1167 b 654 1078 614 1167 654 1126 "},"ž":{"ha":847,"x_min":0,"x_max":0,"o":"m 547 -254 b 749 -92 613 -254 725 -240 l 847 -278 l 57 -278 l 622 894 l 357 894 b 156 732 293 894 179 881 l 57 918 l 847 918 l 283 -254 m 269 1181 l 285 1193 l 453 1010 l 622 1193 l 636 1181 l 453 963 "},"‰":{"ha":1294,"x_min":0,"x_max":0,"o":"m 267 -278 l 242 -278 l 686 918 l 713 918 m 242 921 b 425 653 343 921 425 801 b 242 383 425 504 343 383 b 57 653 140 383 57 504 b 242 921 57 801 140 921 m 242 394 b 332 653 289 394 332 510 b 242 911 332 796 289 911 b 150 653 193 911 150 796 b 242 394 150 510 193 394 m 700 254 b 883 -14 801 254 883 135 b 700 -283 883 -162 801 -283 b 515 -14 599 -283 515 -162 b 700 254 515 135 599 254 m 700 -272 b 790 -14 747 -272 790 -157 b 700 244 790 128 747 244 b 608 -14 651 244 608 128 b 700 -272 608 -157 651 -272 m 1111 254 b 1294 -14 1213 254 1294 135 b 1111 -283 1294 -162 1213 -283 b 926 -14 1010 -283 926 -162 b 1111 254 926 135 1010 254 m 1111 -272 b 1201 -14 1158 -272 1201 -157 b 1111 244 1201 128 1158 244 b 1019 -14 1063 244 1019 128 b 1111 -272 1019 -157 1063 -272 "},"":{"ha":1879,"x_min":0,"x_max":0,"o":"m 1272 931 b 1879 324 1607 931 1879 658 b 1272 -285 1879 -12 1607 -285 b 992 -217 1171 -285 1076 -260 b 968 -203 983 -212 976 -207 b 664 -285 879 -254 775 -285 b 57 324 329 -285 57 -12 b 664 931 57 658 329 931 b 968 850 775 931 879 901 b 1036 804 992 836 1014 821 b 1272 324 1179 693 1272 519 b 1036 -157 1272 128 1179 -46 b 1054 -174 1042 -162 1049 -168 b 1272 -260 1117 -228 1192 -260 b 1686 324 1500 -260 1686 1 b 1272 907 1686 646 1500 907 b 1054 819 1192 907 1117 875 b 992 863 1035 836 1014 850 b 1272 931 1076 907 1171 931 m 664 -260 b 900 -157 751 -260 833 -222 b 881 -142 893 -151 888 -147 b 664 324 749 -31 664 136 b 881 789 664 510 749 678 b 900 804 888 793 893 799 b 664 907 833 868 751 907 b 250 324 435 907 250 646 b 664 -260 250 1 435 -260 m 968 -74 b 1079 324 1038 31 1079 169 b 968 721 1079 476 1038 617 b 954 699 963 714 958 706 b 857 324 893 597 857 467 b 954 -51 857 181 893 50 b 968 -74 958 -58 963 -67 "},"":{"ha":1740,"x_min":0,"x_max":0,"o":"m 1256 893 b 1053 821 1182 893 1114 868 b 996 861 1035 836 1017 849 b 1256 918 1075 897 1163 918 l 1681 918 l 1619 801 l 1582 732 b 1381 893 1558 879 1444 893 m 1740 -49 b 1256 -287 1629 -194 1454 -287 b 982 -222 1157 -287 1064 -264 l 957 -210 b 665 -285 871 -257 771 -285 b 57 324 329 -285 57 -12 b 665 931 57 658 329 931 b 971 849 776 931 881 901 b 1035 806 993 836 1014 821 b 1272 324 1179 694 1272 519 b 1025 -165 1272 124 1175 -54 b 1044 -182 1032 -171 1038 -176 b 1256 -264 1106 -233 1179 -264 b 1624 49 1415 -264 1554 -137 m 665 -260 b 890 -165 749 -260 826 -225 b 872 -151 885 -161 878 -156 b 649 319 736 -39 649 131 b 879 790 649 513 739 682 b 899 806 886 796 893 800 b 665 907 832 869 751 907 b 250 324 436 907 250 646 b 665 -260 250 1 436 -260 m 960 -87 b 1079 324 1033 18 1079 163 b 964 728 1079 481 1036 624 b 949 707 958 721 954 714 b 842 319 882 606 842 471 b 944 -67 842 172 881 36 b 960 -87 950 -74 954 -81 "},"":{"ha":1753,"x_min":0,"x_max":0,"o":"m 1146 931 b 1753 324 1481 931 1753 658 b 1146 -285 1753 -12 1481 -285 b 886 -226 1053 -285 964 -264 l 861 -214 b 551 -290 775 -262 671 -290 b 307 -160 439 -290 350 -225 l 307 -278 l 57 -278 b 114 -192 92 -264 114 -229 l 114 832 b 99 883 114 850 108 868 b 57 918 88 899 74 911 l 307 918 l 307 813 b 560 925 358 872 456 925 b 854 857 675 925 772 900 l 879 869 b 1146 931 960 908 1050 931 m 846 -81 b 953 318 913 24 953 164 b 844 725 953 476 913 619 b 778 807 824 756 801 783 b 558 901 715 865 642 900 l 556 901 b 307 649 417 900 307 786 l 307 -14 b 522 -264 307 -139 397 -249 b 550 -267 532 -265 540 -267 b 781 -162 638 -267 717 -228 b 763 -149 775 -158 768 -153 b 538 324 625 -36 538 133 b 758 792 538 513 624 681 b 831 703 785 767 810 738 b 731 324 768 601 731 468 b 832 -60 731 178 769 43 b 846 -81 836 -67 842 -74 m 1146 -260 b 1560 324 1374 -260 1560 1 b 1146 907 1560 646 1374 907 b 939 831 1071 907 1000 879 b 921 814 933 825 928 819 b 1146 318 1068 704 1146 524 b 925 -171 1146 117 1068 -60 b 943 -186 931 -176 938 -182 b 1146 -260 1003 -233 1072 -260 "},"":{"ha":1822,"x_min":0,"x_max":0,"o":"m 1256 893 b 1053 821 1182 893 1113 868 b 996 861 1035 836 1015 849 b 1239 917 1069 894 1151 915 b 1256 918 1244 918 1250 918 l 1663 918 l 1589 776 l 1564 732 b 1532 818 1558 768 1547 796 b 1368 893 1489 883 1417 893 m 1822 368 b 1765 288 1789 354 1768 322 l 1765 -278 l 1746 -271 b 1576 -237 1692 -249 1635 -237 b 1442 -258 1532 -237 1486 -244 b 1256 -287 1383 -276 1321 -287 l 1233 -287 b 982 -222 1143 -285 1058 -261 b 957 -208 974 -218 965 -214 b 664 -285 869 -257 771 -285 b 57 324 329 -285 57 -12 b 664 931 57 658 329 931 b 969 849 775 931 881 901 b 1033 806 992 836 1014 821 b 1272 324 1178 694 1272 519 b 1028 -162 1272 125 1176 -51 b 1047 -179 1035 -168 1040 -174 b 1256 -264 1108 -229 1179 -260 l 1279 -264 b 1454 -228 1346 -264 1400 -249 b 1572 -50 1526 -199 1572 -128 l 1572 282 b 1557 333 1572 301 1567 319 b 1515 368 1547 349 1532 361 m 664 -260 b 890 -165 747 -260 825 -225 b 872 -150 885 -160 878 -156 b 649 318 736 -39 649 131 l 649 322 b 879 790 649 514 739 682 b 899 806 885 796 892 800 b 664 907 832 869 751 907 b 250 324 435 907 250 646 b 664 -260 250 1 435 -260 m 960 -85 b 1079 324 1033 19 1079 164 b 963 728 1079 481 1035 624 b 949 707 958 721 953 714 b 840 319 882 606 840 471 b 946 -64 840 171 881 38 b 960 -85 950 -71 956 -78 "},"":{"ha":1682,"x_min":0,"x_max":0,"o":"m 1250 893 b 1199 842 1222 893 1199 871 l 1199 392 l 1247 392 b 1467 513 1318 392 1424 442 l 1467 247 b 1247 368 1421 322 1318 368 l 1199 368 l 1199 -203 b 1250 -254 1199 -231 1222 -254 l 1382 -254 b 1583 -92 1447 -254 1560 -240 l 1682 -278 l 949 -278 b 1007 -192 983 -264 1007 -229 l 1007 386 b 874 447 963 397 917 417 b 835 474 860 457 847 465 l 835 -192 b 892 -278 835 -229 857 -264 l 585 -278 b 642 -192 619 -264 642 -229 l 642 538 l 631 538 b 407 447 529 529 457 492 b 307 217 342 389 307 304 l 307 -192 b 364 -278 307 -229 329 -264 l 57 -278 b 114 -192 92 -264 114 -229 l 114 832 b 57 918 114 869 92 903 l 364 918 b 307 832 329 903 307 869 l 307 354 b 642 563 351 439 447 553 l 642 832 b 585 918 642 869 619 903 l 892 918 b 835 832 857 903 835 869 l 835 501 b 888 467 851 492 869 481 b 1007 411 925 439 967 422 l 1007 832 b 990 883 1007 850 1000 868 b 949 918 981 899 967 910 l 1682 918 l 1583 732 b 1382 893 1560 879 1447 893 "},"":{"ha":1682,"x_min":0,"x_max":0,"o":"m 990 883 b 949 918 981 899 965 910 l 1682 918 l 1583 732 b 1382 893 1558 879 1446 893 l 1256 893 b 1199 836 1224 893 1199 868 l 1199 392 l 1247 392 b 1465 513 1318 392 1424 442 l 1465 247 b 1247 368 1419 322 1318 368 l 1199 368 l 1199 -192 b 1214 -244 1199 -211 1204 -229 b 1256 -278 1224 -258 1239 -271 l 949 -278 b 1004 -206 979 -265 1000 -237 b 1006 -192 1006 -201 1006 -197 l 1006 386 b 874 447 963 397 917 417 b 835 474 860 457 847 465 l 835 -192 b 892 -278 835 -229 857 -264 l 585 -278 b 642 -192 619 -264 642 -229 l 642 538 l 629 538 b 406 447 528 529 457 492 b 307 217 342 389 307 304 l 307 -192 b 364 -278 307 -229 329 -264 l 57 -278 b 114 -192 92 -264 114 -229 l 114 832 b 57 918 114 869 92 903 l 364 918 b 307 832 329 903 307 869 l 307 354 b 642 563 351 439 447 553 l 642 832 b 585 918 642 869 619 903 l 892 918 b 835 832 857 903 835 869 l 835 501 b 888 467 851 492 869 481 b 1006 411 925 439 967 422 l 1006 832 b 990 883 1006 850 1000 868 "},"":{"ha":1153,"x_min":0,"x_max":0,"o":"m 853 -254 b 1054 -92 917 -254 1031 -240 l 1153 -278 l 57 -278 b 114 -192 92 -264 114 -229 l 114 832 b 99 883 114 850 108 868 b 57 918 89 899 75 910 l 364 918 b 307 832 329 903 307 869 l 307 -203 b 358 -254 307 -231 331 -254 l 499 -254 b 564 -193 533 -254 563 -228 l 564 832 b 547 883 564 850 557 868 b 506 918 538 899 524 910 l 814 918 b 756 832 779 903 756 869 l 756 -203 b 807 -254 756 -231 779 -254 "},"":{"ha":1506,"x_min":0,"x_max":0,"o":"m 1175 892 b 1243 915 1193 907 1217 915 l 1506 915 b 1442 781 1444 896 1442 801 l 1442 44 b 1107 -290 1442 -140 1292 -290 b 772 44 922 -290 772 -140 l 772 758 b 757 831 772 783 768 808 b 661 890 735 876 704 888 l 168 890 b 100 863 143 890 118 881 b 81 814 86 849 81 832 b 106 750 81 790 90 767 b 153 729 119 735 138 729 b 207 744 176 729 199 739 b 215 750 210 746 213 747 b 249 781 228 758 238 769 b 289 817 261 793 274 807 b 371 849 313 832 339 842 b 383 851 375 850 379 850 b 404 854 390 853 397 853 b 450 857 419 857 435 857 b 451 858 450 858 450 858 l 451 857 b 515 849 474 857 496 854 b 567 781 546 840 567 811 l 567 -194 b 582 -247 567 -214 572 -232 b 624 -281 592 -261 607 -274 l 317 -281 b 374 -194 351 -267 374 -232 l 374 757 b 328 803 374 783 351 803 b 303 796 319 803 311 801 b 265 764 289 788 278 776 b 229 729 254 751 243 740 b 218 724 225 728 222 725 b 154 704 196 711 174 704 b 88 733 128 704 106 714 b 57 814 69 756 57 785 b 83 879 57 836 65 860 b 168 915 106 901 136 915 l 1022 915 b 965 828 988 900 965 867 l 965 44 b 1032 -160 965 -53 990 -118 b 1192 -218 1074 -200 1129 -218 b 1417 54 1307 -218 1417 -97 l 1417 303 b 1238 653 1417 439 1317 557 b 1144 790 1190 708 1153 753 b 1142 818 1143 800 1142 810 b 1175 892 1142 856 1160 878 m 1417 778 b 1304 890 1417 840 1367 890 l 1243 890 b 1190 874 1222 890 1204 885 b 1165 818 1174 860 1165 842 b 1168 794 1165 811 1167 803 b 1256 668 1175 764 1213 719 b 1417 426 1314 599 1382 518 "},"":{"ha":1401,"x_min":0,"x_max":0,"o":"m 665 833 b 750 918 665 879 703 918 l 1401 918 l 1303 732 b 1121 893 1282 865 1186 890 l 1085 893 l 1085 -192 b 1100 -244 1085 -211 1090 -229 b 1142 -278 1110 -258 1125 -271 l 835 -278 b 892 -192 869 -264 892 -229 l 892 893 l 756 893 b 689 828 719 893 689 864 l 689 732 b 685 678 689 715 689 694 b 646 640 678 647 660 640 b 571 721 604 640 579 701 b 569 724 571 722 569 724 b 560 747 567 732 563 739 b 496 847 543 785 526 822 b 465 867 486 854 475 861 b 376 890 438 882 407 890 b 290 865 347 890 317 882 b 229 794 264 849 243 824 b 215 728 221 774 215 751 b 285 594 215 681 236 631 l 678 332 b 808 68 767 264 808 167 b 756 -117 808 4 790 -61 b 418 -287 700 -208 607 -287 b 58 -7 226 -287 107 -165 l 240 93 b 218 -24 231 71 218 28 b 240 -139 218 -58 224 -99 b 442 -264 274 -218 356 -264 l 453 -264 b 654 -128 524 -260 614 -218 b 678 -22 671 -92 678 -56 b 554 183 678 65 628 140 l 188 417 b 57 642 96 483 57 564 b 242 896 57 747 128 847 b 246 897 242 896 243 896 b 319 918 268 906 294 913 b 364 922 335 921 350 922 b 419 915 383 922 401 919 b 467 899 435 911 451 906 b 582 757 543 856 564 796 b 592 735 585 749 589 742 b 593 731 592 733 593 732 b 646 665 615 676 633 665 b 661 683 649 665 657 665 b 665 732 665 697 665 717 "},"":{"ha":1663,"x_min":0,"x_max":0,"o":"m 1663 594 b 1340 276 1663 464 1572 276 l 1325 276 b 1293 279 1314 276 1304 278 b 1358 235 1317 264 1338 250 b 1582 -150 1554 86 1565 -72 b 1663 -278 1604 -260 1663 -278 l 1314 -278 b 1383 -135 1314 -278 1383 -274 b 1368 -3 1383 -100 1379 -57 b 1147 349 1325 203 1147 349 b 1086 429 1122 372 1103 400 l 1086 -192 b 1144 -278 1086 -229 1110 -264 l 836 -278 b 894 -192 871 -264 894 -229 l 894 543 b 710 821 894 656 808 779 b 444 893 710 821 578 892 l 439 893 b 229 794 360 893 281 867 b 210 731 217 775 210 754 b 285 594 210 683 238 631 l 679 332 b 808 68 767 264 808 167 b 756 -117 808 4 790 -61 b 418 -287 701 -208 607 -287 b 58 -7 228 -287 107 -165 l 240 93 b 218 -24 231 71 218 28 b 240 -139 218 -58 224 -99 b 442 -264 274 -218 357 -264 l 453 -264 b 654 -128 524 -260 614 -218 b 678 -21 671 -92 678 -56 b 554 183 678 65 629 140 l 188 417 b 57 642 96 483 57 564 b 242 896 57 747 128 847 b 246 897 242 896 244 896 b 399 924 311 924 399 924 b 728 842 529 924 635 888 b 914 714 800 806 863 760 b 940 689 924 706 932 697 b 894 747 922 714 904 735 l 894 832 b 836 918 894 869 871 903 l 1144 918 b 1086 832 1110 903 1086 869 l 1086 781 b 1335 918 1121 854 1214 918 b 1663 594 1560 918 1663 749 m 1246 332 b 1469 625 1424 332 1469 482 b 1274 882 1469 733 1390 882 b 1243 879 1264 882 1254 882 l 1242 878 b 1086 681 1150 857 1086 774 l 1086 510 b 1088 503 1086 507 1088 504 b 1104 439 1088 482 1094 460 b 1246 332 1132 382 1189 332 "},"":{"ha":1263,"x_min":0,"x_max":0,"o":"m 831 893 b 779 842 803 893 779 871 l 779 392 l 828 392 b 1047 513 899 392 1004 442 l 1047 247 b 828 368 1000 322 899 368 l 779 368 l 779 -203 b 831 -254 779 -231 803 -254 l 963 -254 b 1164 -92 1026 -254 1140 -240 l 1263 -278 l 529 -278 b 586 -192 564 -264 586 -229 l 586 328 b 463 263 549 313 506 292 b 414 226 446 253 431 240 l 414 -292 b 340 -474 414 -362 386 -426 b 158 -549 293 -519 229 -549 b 88 -524 133 -549 108 -540 b 33 -410 61 -504 33 -468 b 36 -376 33 -399 35 -387 b 222 39 42 -339 47 -212 l 222 832 b 207 883 222 850 217 868 b 165 918 196 899 182 910 l 472 918 b 414 832 438 903 414 869 l 414 258 b 449 283 426 267 438 275 b 586 353 497 315 544 338 l 586 832 b 571 883 586 850 581 868 b 529 918 561 899 547 910 l 1263 918 l 1164 732 b 963 893 1140 879 1026 893 m 222 -7 b 60 -381 208 -31 79 -192 b 58 -406 58 -389 58 -397 b 117 -515 58 -469 92 -500 b 151 -524 126 -521 139 -524 b 222 -453 190 -524 222 -492 "},"":{"ha":1263,"x_min":0,"x_max":0,"o":"m 1263 918 l 1164 732 b 963 893 1139 879 1026 893 l 836 893 b 779 836 806 893 779 868 l 779 392 l 828 392 b 1047 513 899 392 1004 442 l 1047 247 b 828 368 1000 322 899 368 l 779 368 l 779 -192 b 794 -244 779 -211 785 -229 b 836 -278 804 -258 819 -271 l 529 -278 b 585 -206 560 -265 581 -237 b 586 -192 586 -201 586 -197 l 586 328 b 463 263 547 313 506 292 b 415 226 446 253 431 240 l 415 -292 b 340 -474 415 -362 386 -426 b 158 -549 293 -519 229 -549 b 89 -524 133 -549 108 -540 b 33 -410 61 -504 33 -468 b 36 -376 33 -399 35 -387 b 222 39 42 -339 49 -212 l 222 832 b 207 883 222 850 217 868 b 165 918 196 899 182 910 l 472 918 b 415 832 438 903 415 869 l 415 258 b 450 283 426 267 438 275 b 586 353 497 315 544 338 l 586 832 b 571 883 586 850 581 868 b 529 918 561 899 547 910 m 222 -7 b 60 -381 208 -31 79 -192 b 58 -403 58 -389 58 -396 b 117 -515 58 -468 92 -500 b 151 -524 126 -521 139 -524 b 222 -453 190 -524 222 -492 "},"":{"ha":1365,"x_min":0,"x_max":0,"o":"m 1307 -192 b 1365 -278 1307 -229 1331 -264 l 1057 -278 b 1115 -192 1092 -264 1115 -229 l 1115 432 b 779 394 985 432 874 417 l 779 -192 b 836 -278 779 -229 801 -264 l 529 -278 b 586 -192 564 -264 586 -229 l 586 328 b 415 226 506 292 449 253 l 415 -292 b 340 -474 415 -362 386 -426 b 160 -549 294 -519 231 -549 b 89 -524 133 -549 108 -540 b 33 -408 63 -503 33 -468 b 36 -376 33 -399 35 -387 b 222 39 42 -339 49 -212 l 222 832 b 207 883 222 850 217 868 b 165 918 197 899 182 910 l 472 918 b 415 832 438 903 415 869 l 415 257 b 586 354 453 283 510 319 l 586 832 b 529 918 586 869 564 903 l 836 918 b 779 832 801 903 779 869 l 779 418 b 1115 457 874 442 985 457 l 1115 832 b 1057 918 1115 869 1092 903 l 1365 918 b 1307 832 1331 903 1307 869 m 222 -7 b 60 -381 208 -31 81 -192 b 58 -403 58 -389 58 -396 b 117 -515 58 -468 92 -500 b 151 -524 128 -521 139 -524 b 222 -453 190 -524 222 -492 "},"":{"ha":1269,"x_min":0,"x_max":0,"o":"m 1269 369 l 1269 -282 b 1051 -204 1207 -231 1129 -204 b 914 -233 1006 -204 958 -214 b 661 -287 836 -268 750 -287 l 643 -287 b 57 321 318 -276 57 -4 l 57 324 b 647 918 58 651 321 910 l 1071 918 l 972 732 b 861 478 936 653 894 558 b 831 403 850 453 840 428 b 817 369 825 392 821 381 m 1076 344 l 807 344 b 578 57 747 200 685 74 b 536 54 563 54 550 54 b 422 92 481 54 444 74 b 376 194 393 118 376 154 b 624 369 376 275 440 369 l 790 369 b 808 413 796 383 801 397 b 839 488 818 438 828 463 b 946 732 871 564 911 654 b 956 772 951 744 956 758 b 943 815 956 788 951 803 b 940 819 942 817 942 818 b 776 894 897 883 825 893 l 664 894 b 249 321 435 894 249 643 b 664 -262 249 -1 436 -243 b 701 -264 674 -264 688 -264 b 888 -222 747 -264 814 -257 b 1076 15 990 -176 1076 -78 m 624 344 b 400 194 486 344 400 288 b 439 110 400 161 414 132 b 536 78 457 94 488 78 b 575 81 549 78 561 78 b 781 344 665 94 725 210 "},"":{"ha":1271,"x_min":0,"x_max":0,"o":"m 1271 369 l 1271 318 b 1254 172 1271 268 1265 219 b 664 -287 1188 -92 949 -287 l 643 -287 b 57 321 318 -276 57 -4 l 57 324 b 649 918 58 651 321 910 l 1072 918 l 997 778 l 974 732 b 942 819 968 768 956 797 b 778 894 899 883 826 893 l 664 894 b 250 321 436 894 250 643 b 664 -262 250 -1 436 -262 b 1065 174 857 -262 1019 -78 b 1078 314 1075 219 1078 267 l 1078 344 l 1015 344 b 956 325 994 344 974 338 b 840 167 911 292 872 242 b 601 -10 790 47 686 -10 b 567 -7 589 -10 578 -10 b 444 151 490 8 444 68 b 739 369 444 367 735 369 m 819 176 b 940 344 851 256 893 310 l 739 344 b 468 151 728 344 468 343 b 571 17 468 81 507 29 b 600 14 581 15 590 14 b 819 176 678 14 772 65 "},"":{"ha":847,"x_min":0,"x_max":0,"o":"m 547 -254 b 749 -92 611 -254 725 -240 l 847 -278 l 57 -278 l 357 344 l 211 344 l 211 369 l 368 369 l 621 894 l 357 894 b 156 732 292 894 179 881 l 57 918 l 847 918 l 582 369 l 724 369 l 724 344 l 571 344 l 282 -254 "}}}
